M48
; DRILL file {KiCad (7.0.0-0)} date Wednesday, June 28, 2023 at 09:11:32 AM
; FORMAT={-:-/ absolute / inch / decimal}
; #@! TF.CreationDate,2023-06-28T09:11:32-07:00
; #@! TF.GenerationSoftware,Kicad,Pcbnew,(7.0.0-0)
; #@! TF.FileFunction,Plated,1,6,PTH
FMAT,2
INCH
; #@! TA.AperFunction,Plated,PTH,ComponentDrill
T1C0.0118
; #@! TA.AperFunction,Plated,PTH,ViaDrill
T2C0.0150
%
G90
G05
T1
X6.8583Y-3.3728
X6.8583Y-3.42
X6.8583Y-3.4672
X6.8583Y-3.5145
X6.8583Y-3.5617
X6.8583Y-3.609
X6.8583Y-4.211
X6.8583Y-4.2583
X6.8583Y-4.3055
X6.8583Y-4.3528
X6.8583Y-4.4
X6.8583Y-4.4472
X6.9055Y-3.3728
X6.9055Y-3.42
X6.9055Y-3.4672
X6.9055Y-3.5145
X6.9055Y-3.5617
X6.9055Y-3.609
X6.9055Y-4.211
X6.9055Y-4.2583
X6.9055Y-4.3055
X6.9055Y-4.3528
X6.9055Y-4.4
X6.9055Y-4.4472
X6.9528Y-3.3728
X6.9528Y-3.42
X6.9528Y-3.4672
X6.9528Y-3.5145
X6.9528Y-3.5617
X6.9528Y-3.609
X6.9528Y-4.211
X6.9528Y-4.2583
X6.9528Y-4.3055
X6.9528Y-4.3528
X6.9528Y-4.4
X6.9528Y-4.4472
X7.0Y-3.3728
X7.0Y-3.42
X7.0Y-3.4672
X7.0Y-3.5145
X7.0Y-3.5617
X7.0Y-3.609
X7.0Y-4.211
X7.0Y-4.2583
X7.0Y-4.3055
X7.0Y-4.3528
X7.0Y-4.4
X7.0Y-4.4472
X7.0472Y-3.3728
X7.0472Y-3.42
X7.0472Y-3.4672
X7.0472Y-3.5145
X7.0472Y-3.5617
X7.0472Y-3.609
X7.0472Y-4.211
X7.0472Y-4.2583
X7.0472Y-4.3055
X7.0472Y-4.3528
X7.0472Y-4.4
X7.0472Y-4.4472
X7.0945Y-3.3728
X7.0945Y-3.42
X7.0945Y-3.4672
X7.0945Y-3.5145
X7.0945Y-3.5617
X7.0945Y-3.609
X7.0945Y-4.211
X7.0945Y-4.2583
X7.0945Y-4.3055
X7.0945Y-4.3528
X7.0945Y-4.4
X7.0945Y-4.4472
X7.1417Y-3.3728
X7.1417Y-3.42
X7.1417Y-3.4672
X7.1417Y-3.5145
X7.1417Y-3.5617
X7.1417Y-3.609
X7.1417Y-4.211
X7.1417Y-4.2583
X7.1417Y-4.3055
X7.1417Y-4.3528
X7.1417Y-4.4
X7.1417Y-4.4472
X7.8583Y-3.3728
X7.8583Y-3.42
X7.8583Y-3.4672
X7.8583Y-3.5145
X7.8583Y-3.5617
X7.8583Y-3.609
X7.8583Y-4.211
X7.8583Y-4.2583
X7.8583Y-4.3055
X7.8583Y-4.3528
X7.8583Y-4.4
X7.8583Y-4.4472
X7.9055Y-3.3728
X7.9055Y-3.42
X7.9055Y-3.4672
X7.9055Y-3.5145
X7.9055Y-3.5617
X7.9055Y-3.609
X7.9055Y-4.211
X7.9055Y-4.2583
X7.9055Y-4.3055
X7.9055Y-4.3528
X7.9055Y-4.4
X7.9055Y-4.4472
X7.9528Y-3.3728
X7.9528Y-3.42
X7.9528Y-3.4672
X7.9528Y-3.5145
X7.9528Y-3.5617
X7.9528Y-3.609
X7.9528Y-4.211
X7.9528Y-4.2583
X7.9528Y-4.3055
X7.9528Y-4.3528
X7.9528Y-4.4
X7.9528Y-4.4472
X8.0Y-3.3728
X8.0Y-3.42
X8.0Y-3.4672
X8.0Y-3.5145
X8.0Y-3.5617
X8.0Y-3.609
X8.0Y-4.211
X8.0Y-4.2583
X8.0Y-4.3055
X8.0Y-4.3528
X8.0Y-4.4
X8.0Y-4.4472
X8.0472Y-3.3728
X8.0472Y-3.42
X8.0472Y-3.4672
X8.0472Y-3.5145
X8.0472Y-3.5617
X8.0472Y-3.609
X8.0472Y-4.211
X8.0472Y-4.2583
X8.0472Y-4.3055
X8.0472Y-4.3528
X8.0472Y-4.4
X8.0472Y-4.4472
X8.0945Y-3.3728
X8.0945Y-3.42
X8.0945Y-3.4672
X8.0945Y-3.5145
X8.0945Y-3.5617
X8.0945Y-3.609
X8.0945Y-4.211
X8.0945Y-4.2583
X8.0945Y-4.3055
X8.0945Y-4.3528
X8.0945Y-4.4
X8.0945Y-4.4472
X8.1417Y-3.3728
X8.1417Y-3.42
X8.1417Y-3.4672
X8.1417Y-3.5145
X8.1417Y-3.5617
X8.1417Y-3.609
X8.1417Y-4.211
X8.1417Y-4.2583
X8.1417Y-4.3055
X8.1417Y-4.3528
X8.1417Y-4.4
X8.1417Y-4.4472
X8.8583Y-3.3728
X8.8583Y-3.42
X8.8583Y-3.4672
X8.8583Y-3.5145
X8.8583Y-3.5617
X8.8583Y-3.609
X8.8583Y-4.211
X8.8583Y-4.2583
X8.8583Y-4.3055
X8.8583Y-4.3528
X8.8583Y-4.4
X8.8583Y-4.4472
X8.9055Y-3.3728
X8.9055Y-3.42
X8.9055Y-3.4672
X8.9055Y-3.5145
X8.9055Y-3.5617
X8.9055Y-3.609
X8.9055Y-4.211
X8.9055Y-4.2583
X8.9055Y-4.3055
X8.9055Y-4.3528
X8.9055Y-4.4
X8.9055Y-4.4472
X8.9528Y-3.3728
X8.9528Y-3.42
X8.9528Y-3.4672
X8.9528Y-3.5145
X8.9528Y-3.5617
X8.9528Y-3.609
X8.9528Y-4.211
X8.9528Y-4.2583
X8.9528Y-4.3055
X8.9528Y-4.3528
X8.9528Y-4.4
X8.9528Y-4.4472
X9.0Y-3.3728
X9.0Y-3.42
X9.0Y-3.4672
X9.0Y-3.5145
X9.0Y-3.5617
X9.0Y-3.609
X9.0Y-4.211
X9.0Y-4.2583
X9.0Y-4.3055
X9.0Y-4.3528
X9.0Y-4.4
X9.0Y-4.4472
X9.0472Y-3.3728
X9.0472Y-3.42
X9.0472Y-3.4672
X9.0472Y-3.5145
X9.0472Y-3.5617
X9.0472Y-3.609
X9.0472Y-4.211
X9.0472Y-4.2583
X9.0472Y-4.3055
X9.0472Y-4.3528
X9.0472Y-4.4
X9.0472Y-4.4472
X9.0945Y-3.3728
X9.0945Y-3.42
X9.0945Y-3.4672
X9.0945Y-3.5145
X9.0945Y-3.5617
X9.0945Y-3.609
X9.0945Y-4.211
X9.0945Y-4.2583
X9.0945Y-4.3055
X9.0945Y-4.3528
X9.0945Y-4.4
X9.0945Y-4.4472
X9.1417Y-3.3728
X9.1417Y-3.42
X9.1417Y-3.4672
X9.1417Y-3.5145
X9.1417Y-3.5617
X9.1417Y-3.609
X9.1417Y-4.211
X9.1417Y-4.2583
X9.1417Y-4.3055
X9.1417Y-4.3528
X9.1417Y-4.4
X9.1417Y-4.4472
T2
X6.9Y-2.89
X6.9Y-2.99
X6.9Y-3.09
X6.9Y-3.9
X6.9Y-4.0
X6.9Y-4.9
X6.9Y-5.0
X6.9Y-5.1
X7.0Y-2.89
X7.0Y-2.99
X7.0Y-3.09
X7.0Y-3.9
X7.0Y-4.0
X7.0Y-4.9
X7.0Y-5.0
X7.0Y-5.1
X7.1Y-2.89
X7.1Y-2.99
X7.1Y-3.09
X7.1Y-3.9
X7.1Y-4.0
X7.1Y-4.9
X7.1Y-5.0
X7.1Y-5.1
X7.2Y-2.89
X7.2Y-2.99
X7.2Y-3.09
X7.2Y-4.9
X7.2Y-5.0
X7.2Y-5.1
X7.3Y-2.89
X7.3Y-2.99
X7.3Y-3.09
X7.3Y-4.9
X7.3Y-5.0
X7.3Y-5.1
X7.4Y-2.89
X7.4Y-2.99
X7.4Y-3.09
X7.4Y-3.9
X7.4Y-4.0
X7.4Y-4.2
X7.4Y-4.3
X7.4Y-4.4
X7.4Y-4.5
X7.4Y-4.9
X7.4Y-5.0
X7.4Y-5.1
X7.5Y-2.89
X7.5Y-2.99
X7.5Y-3.09
X7.5Y-3.9
X7.5Y-4.0
X7.5Y-4.2
X7.5Y-4.3
X7.5Y-4.4
X7.5Y-4.5
X7.5Y-4.9
X7.5Y-5.0
X7.5Y-5.1
X7.6Y-2.89
X7.6Y-2.99
X7.6Y-3.09
X7.6Y-3.9
X7.6Y-4.0
X7.6Y-4.2
X7.6Y-4.3
X7.6Y-4.4
X7.6Y-4.5
X7.6Y-4.9
X7.6Y-5.0
X7.6Y-5.1
X7.7Y-2.89
X7.7Y-2.99
X7.7Y-3.09
X7.7Y-4.9
X7.7Y-5.0
X7.7Y-5.1
X7.8Y-2.89
X7.8Y-2.99
X7.8Y-3.09
X7.8Y-4.9
X7.8Y-5.0
X7.8Y-5.1
X7.9Y-2.89
X7.9Y-2.99
X7.9Y-3.09
X7.9Y-4.0
X7.9Y-4.1
X7.9Y-4.9
X7.9Y-5.0
X7.9Y-5.1
X8.0Y-2.89
X8.0Y-2.99
X8.0Y-3.09
X8.0Y-4.0
X8.0Y-4.1
X8.0Y-4.9
X8.0Y-5.0
X8.0Y-5.1
X8.1Y-2.89
X8.1Y-2.99
X8.1Y-3.09
X8.1Y-4.0
X8.1Y-4.1
X8.1Y-4.9
X8.1Y-5.0
X8.1Y-5.1
X8.2Y-2.89
X8.2Y-2.99
X8.2Y-3.09
X8.2Y-4.9
X8.2Y-5.0
X8.2Y-5.1
X8.3Y-2.89
X8.3Y-2.99
X8.3Y-3.09
X8.3Y-4.9
X8.3Y-5.0
X8.3Y-5.1
X8.4Y-2.89
X8.4Y-2.99
X8.4Y-3.09
X8.4Y-3.9
X8.4Y-4.0
X8.4Y-4.2
X8.4Y-4.3
X8.4Y-4.4
X8.4Y-4.5
X8.4Y-4.9
X8.4Y-5.0
X8.4Y-5.1
X8.5Y-2.89
X8.5Y-2.99
X8.5Y-3.09
X8.5Y-3.9
X8.5Y-4.0
X8.5Y-4.2
X8.5Y-4.3
X8.5Y-4.4
X8.5Y-4.5
X8.5Y-4.9
X8.5Y-5.0
X8.5Y-5.1
X8.6Y-2.89
X8.6Y-2.99
X8.6Y-3.09
X8.6Y-3.9
X8.6Y-4.0
X8.6Y-4.2
X8.6Y-4.3
X8.6Y-4.4
X8.6Y-4.5
X8.6Y-4.9
X8.6Y-5.0
X8.6Y-5.1
X8.7Y-2.89
X8.7Y-2.99
X8.7Y-3.09
X8.7Y-4.9
X8.7Y-5.0
X8.7Y-5.1
X8.8Y-2.89
X8.8Y-2.99
X8.8Y-3.09
X8.8Y-4.9
X8.8Y-5.0
X8.8Y-5.1
X8.9Y-2.89
X8.9Y-2.99
X8.9Y-3.09
X8.9Y-4.0
X8.9Y-4.1
X8.9Y-4.9
X8.9Y-5.0
X8.9Y-5.1
X9.0Y-2.89
X9.0Y-2.99
X9.0Y-3.09
X9.0Y-4.0
X9.0Y-4.1
X9.0Y-4.9
X9.0Y-5.0
X9.0Y-5.1
X9.1Y-2.89
X9.1Y-2.99
X9.1Y-3.09
X9.1Y-4.0
X9.1Y-4.1
X9.1Y-4.9
X9.1Y-5.0
X9.1Y-5.1
X9.4Y-3.9
X9.4Y-4.0
X9.4Y-4.2
X9.4Y-4.3
X9.4Y-4.4
X9.4Y-4.5
X9.5Y-3.9
X9.5Y-4.0
X9.5Y-4.2
X9.5Y-4.3
X9.5Y-4.4
X9.5Y-4.5
X9.6Y-3.9
X9.6Y-4.0
X9.6Y-4.2
X9.6Y-4.3
X9.6Y-4.4
X9.6Y-4.5
T0
M30
