%TF.GenerationSoftware,KiCad,Pcbnew,(7.0.0-0)*%
%TF.CreationDate,2023-06-28T09:11:26-07:00*%
%TF.ProjectId,Power Stage,506f7765-7220-4537-9461-67652e6b6963,rev?*%
%TF.SameCoordinates,Original*%
%TF.FileFunction,Copper,L3,Inr*%
%TF.FilePolarity,Positive*%
%FSLAX46Y46*%
G04 Gerber Fmt 4.6, Leading zero omitted, Abs format (unit mm)*
G04 Created by KiCad (PCBNEW (7.0.0-0)) date 2023-06-28 09:11:26*
%MOMM*%
%LPD*%
G01*
G04 APERTURE LIST*
%TA.AperFunction,ComponentPad*%
%ADD10C,0.600000*%
%TD*%
%TA.AperFunction,ViaPad*%
%ADD11C,0.762000*%
%TD*%
G04 APERTURE END LIST*
D10*
%TO.N,Net-(Q5-S)*%
%TO.C,Q6*%
X229800000Y-106960000D03*
X225000000Y-108160000D03*
X226200000Y-108160000D03*
X229800000Y-109360000D03*
X228600000Y-111760000D03*
X226200000Y-111760000D03*
X231000000Y-108160000D03*
X225000000Y-110560000D03*
X227400000Y-110560000D03*
X228600000Y-106960000D03*
X226200000Y-109360000D03*
X232200000Y-108160000D03*
X231000000Y-112960000D03*
X226200000Y-106960000D03*
X229800000Y-112960000D03*
X226200000Y-112960000D03*
X231000000Y-110560000D03*
X229800000Y-110560000D03*
X231000000Y-106960000D03*
X231000000Y-109360000D03*
X232200000Y-110560000D03*
X229800000Y-108160000D03*
X228600000Y-112960000D03*
X227400000Y-106960000D03*
X225000000Y-112960000D03*
X229800000Y-111760000D03*
X225000000Y-109360000D03*
X231000000Y-111760000D03*
X232200000Y-106960000D03*
X226200000Y-110560000D03*
X227400000Y-109360000D03*
X225000000Y-106960000D03*
X227400000Y-112960000D03*
X228600000Y-108160000D03*
X227400000Y-108160000D03*
X232200000Y-111760000D03*
X227400000Y-111760000D03*
X228600000Y-110560000D03*
X232200000Y-112960000D03*
X228600000Y-109360000D03*
X225000000Y-111760000D03*
X232200000Y-109360000D03*
%TD*%
%TO.N,VS*%
%TO.C,Q5*%
X229800000Y-85668000D03*
X225000000Y-86868000D03*
X226200000Y-86868000D03*
X229800000Y-88068000D03*
X228600000Y-90468000D03*
X226200000Y-90468000D03*
X231000000Y-86868000D03*
X225000000Y-89268000D03*
X227400000Y-89268000D03*
X228600000Y-85668000D03*
X226200000Y-88068000D03*
X232200000Y-86868000D03*
X231000000Y-91668000D03*
X226200000Y-85668000D03*
X229800000Y-91668000D03*
X226200000Y-91668000D03*
X231000000Y-89268000D03*
X229800000Y-89268000D03*
X231000000Y-85668000D03*
X231000000Y-88068000D03*
X232200000Y-89268000D03*
X229800000Y-86868000D03*
X228600000Y-91668000D03*
X227400000Y-85668000D03*
X225000000Y-91668000D03*
X229800000Y-90468000D03*
X225000000Y-88068000D03*
X231000000Y-90468000D03*
X232200000Y-85668000D03*
X226200000Y-89268000D03*
X227400000Y-88068000D03*
X225000000Y-85668000D03*
X227400000Y-91668000D03*
X228600000Y-86868000D03*
X227400000Y-86868000D03*
X232200000Y-90468000D03*
X227400000Y-90468000D03*
X228600000Y-89268000D03*
X232200000Y-91668000D03*
X228600000Y-88068000D03*
X225000000Y-90468000D03*
X232200000Y-88068000D03*
%TD*%
%TO.N,Net-(Q3-S)*%
%TO.C,Q4*%
X204400000Y-106960000D03*
X199600000Y-108160000D03*
X200800000Y-108160000D03*
X204400000Y-109360000D03*
X203200000Y-111760000D03*
X200800000Y-111760000D03*
X205600000Y-108160000D03*
X199600000Y-110560000D03*
X202000000Y-110560000D03*
X203200000Y-106960000D03*
X200800000Y-109360000D03*
X206800000Y-108160000D03*
X205600000Y-112960000D03*
X200800000Y-106960000D03*
X204400000Y-112960000D03*
X200800000Y-112960000D03*
X205600000Y-110560000D03*
X204400000Y-110560000D03*
X205600000Y-106960000D03*
X205600000Y-109360000D03*
X206800000Y-110560000D03*
X204400000Y-108160000D03*
X203200000Y-112960000D03*
X202000000Y-106960000D03*
X199600000Y-112960000D03*
X204400000Y-111760000D03*
X199600000Y-109360000D03*
X205600000Y-111760000D03*
X206800000Y-106960000D03*
X200800000Y-110560000D03*
X202000000Y-109360000D03*
X199600000Y-106960000D03*
X202000000Y-112960000D03*
X203200000Y-108160000D03*
X202000000Y-108160000D03*
X206800000Y-111760000D03*
X202000000Y-111760000D03*
X203200000Y-110560000D03*
X206800000Y-112960000D03*
X203200000Y-109360000D03*
X199600000Y-111760000D03*
X206800000Y-109360000D03*
%TD*%
%TO.N,VS*%
%TO.C,Q3*%
X204400000Y-85668000D03*
X199600000Y-86868000D03*
X200800000Y-86868000D03*
X204400000Y-88068000D03*
X203200000Y-90468000D03*
X200800000Y-90468000D03*
X205600000Y-86868000D03*
X199600000Y-89268000D03*
X202000000Y-89268000D03*
X203200000Y-85668000D03*
X200800000Y-88068000D03*
X206800000Y-86868000D03*
X205600000Y-91668000D03*
X200800000Y-85668000D03*
X204400000Y-91668000D03*
X200800000Y-91668000D03*
X205600000Y-89268000D03*
X204400000Y-89268000D03*
X205600000Y-85668000D03*
X205600000Y-88068000D03*
X206800000Y-89268000D03*
X204400000Y-86868000D03*
X203200000Y-91668000D03*
X202000000Y-85668000D03*
X199600000Y-91668000D03*
X204400000Y-90468000D03*
X199600000Y-88068000D03*
X205600000Y-90468000D03*
X206800000Y-85668000D03*
X200800000Y-89268000D03*
X202000000Y-88068000D03*
X199600000Y-85668000D03*
X202000000Y-91668000D03*
X203200000Y-86868000D03*
X202000000Y-86868000D03*
X206800000Y-90468000D03*
X202000000Y-90468000D03*
X203200000Y-89268000D03*
X206800000Y-91668000D03*
X203200000Y-88068000D03*
X199600000Y-90468000D03*
X206800000Y-88068000D03*
%TD*%
%TO.N,Net-(Q1-S)*%
%TO.C,Q2*%
X179000000Y-106960000D03*
X174200000Y-108160000D03*
X175400000Y-108160000D03*
X179000000Y-109360000D03*
X177800000Y-111760000D03*
X175400000Y-111760000D03*
X180200000Y-108160000D03*
X174200000Y-110560000D03*
X176600000Y-110560000D03*
X177800000Y-106960000D03*
X175400000Y-109360000D03*
X181400000Y-108160000D03*
X180200000Y-112960000D03*
X175400000Y-106960000D03*
X179000000Y-112960000D03*
X175400000Y-112960000D03*
X180200000Y-110560000D03*
X179000000Y-110560000D03*
X180200000Y-106960000D03*
X180200000Y-109360000D03*
X181400000Y-110560000D03*
X179000000Y-108160000D03*
X177800000Y-112960000D03*
X176600000Y-106960000D03*
X174200000Y-112960000D03*
X179000000Y-111760000D03*
X174200000Y-109360000D03*
X180200000Y-111760000D03*
X181400000Y-106960000D03*
X175400000Y-110560000D03*
X176600000Y-109360000D03*
X174200000Y-106960000D03*
X176600000Y-112960000D03*
X177800000Y-108160000D03*
X176600000Y-108160000D03*
X181400000Y-111760000D03*
X176600000Y-111760000D03*
X177800000Y-110560000D03*
X181400000Y-112960000D03*
X177800000Y-109360000D03*
X174200000Y-111760000D03*
X181400000Y-109360000D03*
%TD*%
%TO.N,VS*%
%TO.C,Q1*%
X179000000Y-85668000D03*
X174200000Y-86868000D03*
X175400000Y-86868000D03*
X179000000Y-88068000D03*
X177800000Y-90468000D03*
X175400000Y-90468000D03*
X180200000Y-86868000D03*
X174200000Y-89268000D03*
X176600000Y-89268000D03*
X177800000Y-85668000D03*
X175400000Y-88068000D03*
X181400000Y-86868000D03*
X180200000Y-91668000D03*
X175400000Y-85668000D03*
X179000000Y-91668000D03*
X175400000Y-91668000D03*
X180200000Y-89268000D03*
X179000000Y-89268000D03*
X180200000Y-85668000D03*
X180200000Y-88068000D03*
X181400000Y-89268000D03*
X179000000Y-86868000D03*
X177800000Y-91668000D03*
X176600000Y-85668000D03*
X174200000Y-91668000D03*
X179000000Y-90468000D03*
X174200000Y-88068000D03*
X180200000Y-90468000D03*
X181400000Y-85668000D03*
X175400000Y-89268000D03*
X176600000Y-88068000D03*
X174200000Y-85668000D03*
X176600000Y-91668000D03*
X177800000Y-86868000D03*
X176600000Y-86868000D03*
X181400000Y-90468000D03*
X176600000Y-90468000D03*
X177800000Y-89268000D03*
X181400000Y-91668000D03*
X177800000Y-88068000D03*
X174200000Y-90468000D03*
X181400000Y-88068000D03*
%TD*%
D11*
%TO.N,Net-(Q1-S)*%
X177800000Y-99060000D03*
X180340000Y-101600000D03*
X177800000Y-101600000D03*
X175260000Y-99060000D03*
X180340000Y-99060000D03*
X175260000Y-101600000D03*
%TO.N,Net-(Q3-S)*%
X203200000Y-104140000D03*
X205740000Y-104140000D03*
X205740000Y-101600000D03*
X200660000Y-104140000D03*
X200660000Y-101600000D03*
X203200000Y-101600000D03*
%TO.N,Net-(Q5-S)*%
X226060000Y-101600000D03*
X226060000Y-104140000D03*
X231140000Y-101600000D03*
X231140000Y-104140000D03*
X228600000Y-104140000D03*
X228600000Y-101600000D03*
%TO.N,/W_OUT*%
X238760000Y-99060000D03*
X238760000Y-101600000D03*
%TO.N,/V_OUT*%
X213360000Y-99060000D03*
X213360000Y-101600000D03*
%TO.N,/U_OUT*%
X187960000Y-99060000D03*
X187960000Y-101600000D03*
%TO.N,VS*%
X187960000Y-78486000D03*
X175260000Y-73406000D03*
X228600000Y-75946000D03*
X185420000Y-78486000D03*
X180340000Y-75946000D03*
X187960000Y-73406000D03*
X185420000Y-73406000D03*
X228600000Y-73406000D03*
X231140000Y-73406000D03*
X231140000Y-78486000D03*
X231140000Y-75946000D03*
X228600000Y-78486000D03*
X193040000Y-75946000D03*
X198120000Y-75946000D03*
X190500000Y-75946000D03*
X180340000Y-78486000D03*
X195580000Y-78486000D03*
X193040000Y-73406000D03*
X193040000Y-78486000D03*
X177800000Y-73406000D03*
X177800000Y-78486000D03*
X177800000Y-75946000D03*
X198120000Y-78486000D03*
X180340000Y-73406000D03*
X195580000Y-73406000D03*
X190500000Y-78486000D03*
X223520000Y-73406000D03*
X190500000Y-73406000D03*
X175260000Y-78486000D03*
X220980000Y-78486000D03*
X220980000Y-73406000D03*
X223520000Y-78486000D03*
X220980000Y-75946000D03*
X218440000Y-75946000D03*
X208280000Y-73406000D03*
X205740000Y-73406000D03*
X210820000Y-75946000D03*
X218440000Y-78486000D03*
X215900000Y-73406000D03*
X210820000Y-73406000D03*
X210820000Y-78486000D03*
X208280000Y-75946000D03*
X208280000Y-78486000D03*
X205740000Y-75946000D03*
X213360000Y-73406000D03*
X205740000Y-78486000D03*
X215900000Y-75946000D03*
X215900000Y-78486000D03*
X218440000Y-73406000D03*
X213360000Y-78486000D03*
X213360000Y-75946000D03*
X226060000Y-75946000D03*
X175260000Y-75946000D03*
X187960000Y-75946000D03*
X182880000Y-75946000D03*
X226060000Y-78486000D03*
X223520000Y-75946000D03*
X198120000Y-73406000D03*
X203200000Y-75946000D03*
X203200000Y-78486000D03*
X200660000Y-73406000D03*
X200660000Y-78486000D03*
X200660000Y-75946000D03*
X203200000Y-73406000D03*
X185420000Y-75946000D03*
X182880000Y-78486000D03*
X182880000Y-73406000D03*
X195580000Y-75946000D03*
X226060000Y-73406000D03*
%TO.N,GND*%
X228600000Y-124460000D03*
X231140000Y-124460000D03*
X231140000Y-129540000D03*
X231140000Y-127000000D03*
X228600000Y-129540000D03*
X228600000Y-127000000D03*
X220980000Y-124460000D03*
X226060000Y-127000000D03*
X226060000Y-129540000D03*
X223520000Y-124460000D03*
X223520000Y-129540000D03*
X223520000Y-127000000D03*
X226060000Y-124460000D03*
X220980000Y-129540000D03*
X220980000Y-127000000D03*
X213360000Y-124460000D03*
X218440000Y-127000000D03*
X218440000Y-129540000D03*
X215900000Y-124460000D03*
X215900000Y-129540000D03*
X215900000Y-127000000D03*
X218440000Y-124460000D03*
X213360000Y-129540000D03*
X213360000Y-127000000D03*
X205740000Y-124460000D03*
X210820000Y-127000000D03*
X210820000Y-129540000D03*
X208280000Y-124460000D03*
X208280000Y-129540000D03*
X208280000Y-127000000D03*
X210820000Y-124460000D03*
X205740000Y-129540000D03*
X205740000Y-127000000D03*
X198120000Y-124460000D03*
X203200000Y-127000000D03*
X203200000Y-129540000D03*
X200660000Y-124460000D03*
X200660000Y-129540000D03*
X200660000Y-127000000D03*
X203200000Y-124460000D03*
X198120000Y-129540000D03*
X198120000Y-127000000D03*
X190500000Y-124460000D03*
X195580000Y-127000000D03*
X195580000Y-129540000D03*
X193040000Y-124460000D03*
X193040000Y-129540000D03*
X193040000Y-127000000D03*
X195580000Y-124460000D03*
X190500000Y-129540000D03*
X190500000Y-127000000D03*
X182880000Y-124460000D03*
X187960000Y-127000000D03*
X187960000Y-129540000D03*
X185420000Y-124460000D03*
X185420000Y-129540000D03*
X185420000Y-127000000D03*
X187960000Y-124460000D03*
X182880000Y-129540000D03*
X182880000Y-127000000D03*
X180340000Y-124460000D03*
X180340000Y-129540000D03*
X180340000Y-127000000D03*
X177800000Y-124460000D03*
X177800000Y-129540000D03*
X177800000Y-127000000D03*
X175260000Y-124460000D03*
X175260000Y-127000000D03*
X175260000Y-129540000D03*
%TO.N,/W_OUT*%
X241300000Y-111760000D03*
X238760000Y-109220000D03*
X241300000Y-109220000D03*
X238760000Y-106680000D03*
X243840000Y-101600000D03*
X243840000Y-106680000D03*
X243840000Y-114300000D03*
X243840000Y-99060000D03*
X238760000Y-111760000D03*
X241300000Y-106680000D03*
X238760000Y-114300000D03*
X243840000Y-109220000D03*
X241300000Y-114300000D03*
X243840000Y-111760000D03*
X241300000Y-99060000D03*
X241300000Y-101600000D03*
%TO.N,/V_OUT*%
X215900000Y-99060000D03*
X213360000Y-109220000D03*
X218440000Y-101600000D03*
X215900000Y-101600000D03*
X215900000Y-114300000D03*
X218440000Y-106680000D03*
X213360000Y-106680000D03*
X218440000Y-111760000D03*
X218440000Y-114300000D03*
X218440000Y-99060000D03*
X215900000Y-111760000D03*
X215900000Y-109220000D03*
X215900000Y-106680000D03*
X213360000Y-114300000D03*
X213360000Y-111760000D03*
X218440000Y-109220000D03*
%TO.N,/U_OUT*%
X193040000Y-99060000D03*
X190500000Y-99060000D03*
X193040000Y-101600000D03*
X190500000Y-101600000D03*
X193040000Y-106680000D03*
X190500000Y-106680000D03*
X187960000Y-106680000D03*
X193040000Y-109220000D03*
X190500000Y-109220000D03*
X187960000Y-109220000D03*
X187960000Y-111760000D03*
X190500000Y-111760000D03*
X193040000Y-111760000D03*
X193040000Y-114300000D03*
X190500000Y-114300000D03*
X187960000Y-114300000D03*
%TD*%
%TA.AperFunction,Conductor*%
%TO.N,Net-(Q1-S)*%
G36*
X167128091Y-91449439D02*
G01*
X167168319Y-91476319D01*
X173482000Y-97790000D01*
X181740000Y-97790000D01*
X181802000Y-97806613D01*
X181847387Y-97852000D01*
X181864000Y-97914000D01*
X181864000Y-100206000D01*
X181847387Y-100268000D01*
X181802000Y-100313387D01*
X181740000Y-100330000D01*
X170993362Y-100330000D01*
X170945909Y-100320561D01*
X170905681Y-100293681D01*
X164600638Y-93988638D01*
X164592000Y-93980000D01*
X164579789Y-93980000D01*
X144904000Y-93980000D01*
X144842000Y-93963387D01*
X144796613Y-93918000D01*
X144780000Y-93856000D01*
X144780000Y-91564000D01*
X144796613Y-91502000D01*
X144842000Y-91456613D01*
X144904000Y-91440000D01*
X167080638Y-91440000D01*
X167128091Y-91449439D01*
G37*
%TD.AperFunction*%
%TD*%
%TA.AperFunction,Conductor*%
%TO.N,Net-(Q3-S)*%
G36*
X207202000Y-102886613D02*
G01*
X207247387Y-102932000D01*
X207264000Y-102994000D01*
X207264000Y-105286000D01*
X207247387Y-105348000D01*
X207202000Y-105393387D01*
X207140000Y-105410000D01*
X170942000Y-105410000D01*
X170933364Y-105418635D01*
X170933361Y-105418638D01*
X167168319Y-109183681D01*
X167128091Y-109210561D01*
X167080638Y-109220000D01*
X144904000Y-109220000D01*
X144842000Y-109203387D01*
X144796613Y-109158000D01*
X144780000Y-109096000D01*
X144780000Y-106804000D01*
X144796613Y-106742000D01*
X144842000Y-106696613D01*
X144904000Y-106680000D01*
X164579789Y-106680000D01*
X164592000Y-106680000D01*
X168365680Y-102906319D01*
X168405909Y-102879439D01*
X168453362Y-102870000D01*
X207140000Y-102870000D01*
X207202000Y-102886613D01*
G37*
%TD.AperFunction*%
%TD*%
%TA.AperFunction,Conductor*%
%TO.N,Net-(Q5-S)*%
G36*
X232602000Y-102886613D02*
G01*
X232647387Y-102932000D01*
X232664000Y-102994000D01*
X232664000Y-105286000D01*
X232647387Y-105348000D01*
X232602000Y-105393387D01*
X232540000Y-105410000D01*
X222250000Y-105410000D01*
X222250000Y-105426326D01*
X222250000Y-120526000D01*
X222233387Y-120588000D01*
X222188000Y-120633387D01*
X222126000Y-120650000D01*
X173736000Y-120650000D01*
X173727577Y-120657431D01*
X173727575Y-120657433D01*
X169453156Y-124428980D01*
X169414970Y-124451986D01*
X169371115Y-124460000D01*
X144904000Y-124460000D01*
X144842000Y-124443387D01*
X144796613Y-124398000D01*
X144780000Y-124336000D01*
X144780000Y-122044000D01*
X144796613Y-121982000D01*
X144842000Y-121936613D01*
X144904000Y-121920000D01*
X166865789Y-121920000D01*
X166878000Y-121920000D01*
X170905681Y-117892318D01*
X170945909Y-117865439D01*
X170993362Y-117856000D01*
X219693674Y-117856000D01*
X219710000Y-117856000D01*
X219710000Y-102994000D01*
X219726613Y-102932000D01*
X219772000Y-102886613D01*
X219834000Y-102870000D01*
X232540000Y-102870000D01*
X232602000Y-102886613D01*
G37*
%TD.AperFunction*%
%TD*%
M02*
