%TF.GenerationSoftware,KiCad,Pcbnew,(7.0.0-0)*%
%TF.CreationDate,2023-06-28T09:11:26-07:00*%
%TF.ProjectId,Power Stage,506f7765-7220-4537-9461-67652e6b6963,rev?*%
%TF.SameCoordinates,Original*%
%TF.FileFunction,Legend,Top*%
%TF.FilePolarity,Positive*%
%FSLAX46Y46*%
G04 Gerber Fmt 4.6, Leading zero omitted, Abs format (unit mm)*
G04 Created by KiCad (PCBNEW (7.0.0-0)) date 2023-06-28 09:11:26*
%MOMM*%
%LPD*%
G01*
G04 APERTURE LIST*
%ADD10C,0.150000*%
%ADD11C,0.120000*%
G04 APERTURE END LIST*
D10*
%TO.C,U6*%
X360932095Y-112049380D02*
X360932095Y-112858904D01*
X360932095Y-112858904D02*
X360979714Y-112954142D01*
X360979714Y-112954142D02*
X361027333Y-113001761D01*
X361027333Y-113001761D02*
X361122571Y-113049380D01*
X361122571Y-113049380D02*
X361313047Y-113049380D01*
X361313047Y-113049380D02*
X361408285Y-113001761D01*
X361408285Y-113001761D02*
X361455904Y-112954142D01*
X361455904Y-112954142D02*
X361503523Y-112858904D01*
X361503523Y-112858904D02*
X361503523Y-112049380D01*
X362408285Y-112049380D02*
X362217809Y-112049380D01*
X362217809Y-112049380D02*
X362122571Y-112097000D01*
X362122571Y-112097000D02*
X362074952Y-112144619D01*
X362074952Y-112144619D02*
X361979714Y-112287476D01*
X361979714Y-112287476D02*
X361932095Y-112477952D01*
X361932095Y-112477952D02*
X361932095Y-112858904D01*
X361932095Y-112858904D02*
X361979714Y-112954142D01*
X361979714Y-112954142D02*
X362027333Y-113001761D01*
X362027333Y-113001761D02*
X362122571Y-113049380D01*
X362122571Y-113049380D02*
X362313047Y-113049380D01*
X362313047Y-113049380D02*
X362408285Y-113001761D01*
X362408285Y-113001761D02*
X362455904Y-112954142D01*
X362455904Y-112954142D02*
X362503523Y-112858904D01*
X362503523Y-112858904D02*
X362503523Y-112620809D01*
X362503523Y-112620809D02*
X362455904Y-112525571D01*
X362455904Y-112525571D02*
X362408285Y-112477952D01*
X362408285Y-112477952D02*
X362313047Y-112430333D01*
X362313047Y-112430333D02*
X362122571Y-112430333D01*
X362122571Y-112430333D02*
X362027333Y-112477952D01*
X362027333Y-112477952D02*
X361979714Y-112525571D01*
X361979714Y-112525571D02*
X361932095Y-112620809D01*
%TO.C,U5*%
X360932095Y-107599380D02*
X360932095Y-108408904D01*
X360932095Y-108408904D02*
X360979714Y-108504142D01*
X360979714Y-108504142D02*
X361027333Y-108551761D01*
X361027333Y-108551761D02*
X361122571Y-108599380D01*
X361122571Y-108599380D02*
X361313047Y-108599380D01*
X361313047Y-108599380D02*
X361408285Y-108551761D01*
X361408285Y-108551761D02*
X361455904Y-108504142D01*
X361455904Y-108504142D02*
X361503523Y-108408904D01*
X361503523Y-108408904D02*
X361503523Y-107599380D01*
X362455904Y-107599380D02*
X361979714Y-107599380D01*
X361979714Y-107599380D02*
X361932095Y-108075571D01*
X361932095Y-108075571D02*
X361979714Y-108027952D01*
X361979714Y-108027952D02*
X362074952Y-107980333D01*
X362074952Y-107980333D02*
X362313047Y-107980333D01*
X362313047Y-107980333D02*
X362408285Y-108027952D01*
X362408285Y-108027952D02*
X362455904Y-108075571D01*
X362455904Y-108075571D02*
X362503523Y-108170809D01*
X362503523Y-108170809D02*
X362503523Y-108408904D01*
X362503523Y-108408904D02*
X362455904Y-108504142D01*
X362455904Y-108504142D02*
X362408285Y-108551761D01*
X362408285Y-108551761D02*
X362313047Y-108599380D01*
X362313047Y-108599380D02*
X362074952Y-108599380D01*
X362074952Y-108599380D02*
X361979714Y-108551761D01*
X361979714Y-108551761D02*
X361932095Y-108504142D01*
%TO.C,U4*%
X360932095Y-103149380D02*
X360932095Y-103958904D01*
X360932095Y-103958904D02*
X360979714Y-104054142D01*
X360979714Y-104054142D02*
X361027333Y-104101761D01*
X361027333Y-104101761D02*
X361122571Y-104149380D01*
X361122571Y-104149380D02*
X361313047Y-104149380D01*
X361313047Y-104149380D02*
X361408285Y-104101761D01*
X361408285Y-104101761D02*
X361455904Y-104054142D01*
X361455904Y-104054142D02*
X361503523Y-103958904D01*
X361503523Y-103958904D02*
X361503523Y-103149380D01*
X362408285Y-103482714D02*
X362408285Y-104149380D01*
X362170190Y-103101761D02*
X361932095Y-103816047D01*
X361932095Y-103816047D02*
X362551142Y-103816047D01*
%TO.C,U3*%
X141478095Y-110107380D02*
X141478095Y-110916904D01*
X141478095Y-110916904D02*
X141525714Y-111012142D01*
X141525714Y-111012142D02*
X141573333Y-111059761D01*
X141573333Y-111059761D02*
X141668571Y-111107380D01*
X141668571Y-111107380D02*
X141859047Y-111107380D01*
X141859047Y-111107380D02*
X141954285Y-111059761D01*
X141954285Y-111059761D02*
X142001904Y-111012142D01*
X142001904Y-111012142D02*
X142049523Y-110916904D01*
X142049523Y-110916904D02*
X142049523Y-110107380D01*
X142430476Y-110107380D02*
X143049523Y-110107380D01*
X143049523Y-110107380D02*
X142716190Y-110488333D01*
X142716190Y-110488333D02*
X142859047Y-110488333D01*
X142859047Y-110488333D02*
X142954285Y-110535952D01*
X142954285Y-110535952D02*
X143001904Y-110583571D01*
X143001904Y-110583571D02*
X143049523Y-110678809D01*
X143049523Y-110678809D02*
X143049523Y-110916904D01*
X143049523Y-110916904D02*
X143001904Y-111012142D01*
X143001904Y-111012142D02*
X142954285Y-111059761D01*
X142954285Y-111059761D02*
X142859047Y-111107380D01*
X142859047Y-111107380D02*
X142573333Y-111107380D01*
X142573333Y-111107380D02*
X142478095Y-111059761D01*
X142478095Y-111059761D02*
X142430476Y-111012142D01*
%TO.C,U2*%
X141478095Y-94867380D02*
X141478095Y-95676904D01*
X141478095Y-95676904D02*
X141525714Y-95772142D01*
X141525714Y-95772142D02*
X141573333Y-95819761D01*
X141573333Y-95819761D02*
X141668571Y-95867380D01*
X141668571Y-95867380D02*
X141859047Y-95867380D01*
X141859047Y-95867380D02*
X141954285Y-95819761D01*
X141954285Y-95819761D02*
X142001904Y-95772142D01*
X142001904Y-95772142D02*
X142049523Y-95676904D01*
X142049523Y-95676904D02*
X142049523Y-94867380D01*
X142478095Y-94962619D02*
X142525714Y-94915000D01*
X142525714Y-94915000D02*
X142620952Y-94867380D01*
X142620952Y-94867380D02*
X142859047Y-94867380D01*
X142859047Y-94867380D02*
X142954285Y-94915000D01*
X142954285Y-94915000D02*
X143001904Y-94962619D01*
X143001904Y-94962619D02*
X143049523Y-95057857D01*
X143049523Y-95057857D02*
X143049523Y-95153095D01*
X143049523Y-95153095D02*
X143001904Y-95295952D01*
X143001904Y-95295952D02*
X142430476Y-95867380D01*
X142430476Y-95867380D02*
X143049523Y-95867380D01*
%TO.C,U1*%
X141478095Y-79627380D02*
X141478095Y-80436904D01*
X141478095Y-80436904D02*
X141525714Y-80532142D01*
X141525714Y-80532142D02*
X141573333Y-80579761D01*
X141573333Y-80579761D02*
X141668571Y-80627380D01*
X141668571Y-80627380D02*
X141859047Y-80627380D01*
X141859047Y-80627380D02*
X141954285Y-80579761D01*
X141954285Y-80579761D02*
X142001904Y-80532142D01*
X142001904Y-80532142D02*
X142049523Y-80436904D01*
X142049523Y-80436904D02*
X142049523Y-79627380D01*
X143049523Y-80627380D02*
X142478095Y-80627380D01*
X142763809Y-80627380D02*
X142763809Y-79627380D01*
X142763809Y-79627380D02*
X142668571Y-79770238D01*
X142668571Y-79770238D02*
X142573333Y-79865476D01*
X142573333Y-79865476D02*
X142478095Y-79913095D01*
%TO.C,R33*%
X343161142Y-59019380D02*
X342827809Y-58543190D01*
X342589714Y-59019380D02*
X342589714Y-58019380D01*
X342589714Y-58019380D02*
X342970666Y-58019380D01*
X342970666Y-58019380D02*
X343065904Y-58067000D01*
X343065904Y-58067000D02*
X343113523Y-58114619D01*
X343113523Y-58114619D02*
X343161142Y-58209857D01*
X343161142Y-58209857D02*
X343161142Y-58352714D01*
X343161142Y-58352714D02*
X343113523Y-58447952D01*
X343113523Y-58447952D02*
X343065904Y-58495571D01*
X343065904Y-58495571D02*
X342970666Y-58543190D01*
X342970666Y-58543190D02*
X342589714Y-58543190D01*
X343494476Y-58019380D02*
X344113523Y-58019380D01*
X344113523Y-58019380D02*
X343780190Y-58400333D01*
X343780190Y-58400333D02*
X343923047Y-58400333D01*
X343923047Y-58400333D02*
X344018285Y-58447952D01*
X344018285Y-58447952D02*
X344065904Y-58495571D01*
X344065904Y-58495571D02*
X344113523Y-58590809D01*
X344113523Y-58590809D02*
X344113523Y-58828904D01*
X344113523Y-58828904D02*
X344065904Y-58924142D01*
X344065904Y-58924142D02*
X344018285Y-58971761D01*
X344018285Y-58971761D02*
X343923047Y-59019380D01*
X343923047Y-59019380D02*
X343637333Y-59019380D01*
X343637333Y-59019380D02*
X343542095Y-58971761D01*
X343542095Y-58971761D02*
X343494476Y-58924142D01*
X344446857Y-58019380D02*
X345065904Y-58019380D01*
X345065904Y-58019380D02*
X344732571Y-58400333D01*
X344732571Y-58400333D02*
X344875428Y-58400333D01*
X344875428Y-58400333D02*
X344970666Y-58447952D01*
X344970666Y-58447952D02*
X345018285Y-58495571D01*
X345018285Y-58495571D02*
X345065904Y-58590809D01*
X345065904Y-58590809D02*
X345065904Y-58828904D01*
X345065904Y-58828904D02*
X345018285Y-58924142D01*
X345018285Y-58924142D02*
X344970666Y-58971761D01*
X344970666Y-58971761D02*
X344875428Y-59019380D01*
X344875428Y-59019380D02*
X344589714Y-59019380D01*
X344589714Y-59019380D02*
X344494476Y-58971761D01*
X344494476Y-58971761D02*
X344446857Y-58924142D01*
%TO.C,R32*%
X343161142Y-56069380D02*
X342827809Y-55593190D01*
X342589714Y-56069380D02*
X342589714Y-55069380D01*
X342589714Y-55069380D02*
X342970666Y-55069380D01*
X342970666Y-55069380D02*
X343065904Y-55117000D01*
X343065904Y-55117000D02*
X343113523Y-55164619D01*
X343113523Y-55164619D02*
X343161142Y-55259857D01*
X343161142Y-55259857D02*
X343161142Y-55402714D01*
X343161142Y-55402714D02*
X343113523Y-55497952D01*
X343113523Y-55497952D02*
X343065904Y-55545571D01*
X343065904Y-55545571D02*
X342970666Y-55593190D01*
X342970666Y-55593190D02*
X342589714Y-55593190D01*
X343494476Y-55069380D02*
X344113523Y-55069380D01*
X344113523Y-55069380D02*
X343780190Y-55450333D01*
X343780190Y-55450333D02*
X343923047Y-55450333D01*
X343923047Y-55450333D02*
X344018285Y-55497952D01*
X344018285Y-55497952D02*
X344065904Y-55545571D01*
X344065904Y-55545571D02*
X344113523Y-55640809D01*
X344113523Y-55640809D02*
X344113523Y-55878904D01*
X344113523Y-55878904D02*
X344065904Y-55974142D01*
X344065904Y-55974142D02*
X344018285Y-56021761D01*
X344018285Y-56021761D02*
X343923047Y-56069380D01*
X343923047Y-56069380D02*
X343637333Y-56069380D01*
X343637333Y-56069380D02*
X343542095Y-56021761D01*
X343542095Y-56021761D02*
X343494476Y-55974142D01*
X344494476Y-55164619D02*
X344542095Y-55117000D01*
X344542095Y-55117000D02*
X344637333Y-55069380D01*
X344637333Y-55069380D02*
X344875428Y-55069380D01*
X344875428Y-55069380D02*
X344970666Y-55117000D01*
X344970666Y-55117000D02*
X345018285Y-55164619D01*
X345018285Y-55164619D02*
X345065904Y-55259857D01*
X345065904Y-55259857D02*
X345065904Y-55355095D01*
X345065904Y-55355095D02*
X345018285Y-55497952D01*
X345018285Y-55497952D02*
X344446857Y-56069380D01*
X344446857Y-56069380D02*
X345065904Y-56069380D01*
%TO.C,R31*%
X343161142Y-53119380D02*
X342827809Y-52643190D01*
X342589714Y-53119380D02*
X342589714Y-52119380D01*
X342589714Y-52119380D02*
X342970666Y-52119380D01*
X342970666Y-52119380D02*
X343065904Y-52167000D01*
X343065904Y-52167000D02*
X343113523Y-52214619D01*
X343113523Y-52214619D02*
X343161142Y-52309857D01*
X343161142Y-52309857D02*
X343161142Y-52452714D01*
X343161142Y-52452714D02*
X343113523Y-52547952D01*
X343113523Y-52547952D02*
X343065904Y-52595571D01*
X343065904Y-52595571D02*
X342970666Y-52643190D01*
X342970666Y-52643190D02*
X342589714Y-52643190D01*
X343494476Y-52119380D02*
X344113523Y-52119380D01*
X344113523Y-52119380D02*
X343780190Y-52500333D01*
X343780190Y-52500333D02*
X343923047Y-52500333D01*
X343923047Y-52500333D02*
X344018285Y-52547952D01*
X344018285Y-52547952D02*
X344065904Y-52595571D01*
X344065904Y-52595571D02*
X344113523Y-52690809D01*
X344113523Y-52690809D02*
X344113523Y-52928904D01*
X344113523Y-52928904D02*
X344065904Y-53024142D01*
X344065904Y-53024142D02*
X344018285Y-53071761D01*
X344018285Y-53071761D02*
X343923047Y-53119380D01*
X343923047Y-53119380D02*
X343637333Y-53119380D01*
X343637333Y-53119380D02*
X343542095Y-53071761D01*
X343542095Y-53071761D02*
X343494476Y-53024142D01*
X345065904Y-53119380D02*
X344494476Y-53119380D01*
X344780190Y-53119380D02*
X344780190Y-52119380D01*
X344780190Y-52119380D02*
X344684952Y-52262238D01*
X344684952Y-52262238D02*
X344589714Y-52357476D01*
X344589714Y-52357476D02*
X344494476Y-52405095D01*
%TO.C,R30*%
X338751142Y-76719380D02*
X338417809Y-76243190D01*
X338179714Y-76719380D02*
X338179714Y-75719380D01*
X338179714Y-75719380D02*
X338560666Y-75719380D01*
X338560666Y-75719380D02*
X338655904Y-75767000D01*
X338655904Y-75767000D02*
X338703523Y-75814619D01*
X338703523Y-75814619D02*
X338751142Y-75909857D01*
X338751142Y-75909857D02*
X338751142Y-76052714D01*
X338751142Y-76052714D02*
X338703523Y-76147952D01*
X338703523Y-76147952D02*
X338655904Y-76195571D01*
X338655904Y-76195571D02*
X338560666Y-76243190D01*
X338560666Y-76243190D02*
X338179714Y-76243190D01*
X339084476Y-75719380D02*
X339703523Y-75719380D01*
X339703523Y-75719380D02*
X339370190Y-76100333D01*
X339370190Y-76100333D02*
X339513047Y-76100333D01*
X339513047Y-76100333D02*
X339608285Y-76147952D01*
X339608285Y-76147952D02*
X339655904Y-76195571D01*
X339655904Y-76195571D02*
X339703523Y-76290809D01*
X339703523Y-76290809D02*
X339703523Y-76528904D01*
X339703523Y-76528904D02*
X339655904Y-76624142D01*
X339655904Y-76624142D02*
X339608285Y-76671761D01*
X339608285Y-76671761D02*
X339513047Y-76719380D01*
X339513047Y-76719380D02*
X339227333Y-76719380D01*
X339227333Y-76719380D02*
X339132095Y-76671761D01*
X339132095Y-76671761D02*
X339084476Y-76624142D01*
X340322571Y-75719380D02*
X340417809Y-75719380D01*
X340417809Y-75719380D02*
X340513047Y-75767000D01*
X340513047Y-75767000D02*
X340560666Y-75814619D01*
X340560666Y-75814619D02*
X340608285Y-75909857D01*
X340608285Y-75909857D02*
X340655904Y-76100333D01*
X340655904Y-76100333D02*
X340655904Y-76338428D01*
X340655904Y-76338428D02*
X340608285Y-76528904D01*
X340608285Y-76528904D02*
X340560666Y-76624142D01*
X340560666Y-76624142D02*
X340513047Y-76671761D01*
X340513047Y-76671761D02*
X340417809Y-76719380D01*
X340417809Y-76719380D02*
X340322571Y-76719380D01*
X340322571Y-76719380D02*
X340227333Y-76671761D01*
X340227333Y-76671761D02*
X340179714Y-76624142D01*
X340179714Y-76624142D02*
X340132095Y-76528904D01*
X340132095Y-76528904D02*
X340084476Y-76338428D01*
X340084476Y-76338428D02*
X340084476Y-76100333D01*
X340084476Y-76100333D02*
X340132095Y-75909857D01*
X340132095Y-75909857D02*
X340179714Y-75814619D01*
X340179714Y-75814619D02*
X340227333Y-75767000D01*
X340227333Y-75767000D02*
X340322571Y-75719380D01*
%TO.C,R29*%
X338751142Y-73769380D02*
X338417809Y-73293190D01*
X338179714Y-73769380D02*
X338179714Y-72769380D01*
X338179714Y-72769380D02*
X338560666Y-72769380D01*
X338560666Y-72769380D02*
X338655904Y-72817000D01*
X338655904Y-72817000D02*
X338703523Y-72864619D01*
X338703523Y-72864619D02*
X338751142Y-72959857D01*
X338751142Y-72959857D02*
X338751142Y-73102714D01*
X338751142Y-73102714D02*
X338703523Y-73197952D01*
X338703523Y-73197952D02*
X338655904Y-73245571D01*
X338655904Y-73245571D02*
X338560666Y-73293190D01*
X338560666Y-73293190D02*
X338179714Y-73293190D01*
X339132095Y-72864619D02*
X339179714Y-72817000D01*
X339179714Y-72817000D02*
X339274952Y-72769380D01*
X339274952Y-72769380D02*
X339513047Y-72769380D01*
X339513047Y-72769380D02*
X339608285Y-72817000D01*
X339608285Y-72817000D02*
X339655904Y-72864619D01*
X339655904Y-72864619D02*
X339703523Y-72959857D01*
X339703523Y-72959857D02*
X339703523Y-73055095D01*
X339703523Y-73055095D02*
X339655904Y-73197952D01*
X339655904Y-73197952D02*
X339084476Y-73769380D01*
X339084476Y-73769380D02*
X339703523Y-73769380D01*
X340179714Y-73769380D02*
X340370190Y-73769380D01*
X340370190Y-73769380D02*
X340465428Y-73721761D01*
X340465428Y-73721761D02*
X340513047Y-73674142D01*
X340513047Y-73674142D02*
X340608285Y-73531285D01*
X340608285Y-73531285D02*
X340655904Y-73340809D01*
X340655904Y-73340809D02*
X340655904Y-72959857D01*
X340655904Y-72959857D02*
X340608285Y-72864619D01*
X340608285Y-72864619D02*
X340560666Y-72817000D01*
X340560666Y-72817000D02*
X340465428Y-72769380D01*
X340465428Y-72769380D02*
X340274952Y-72769380D01*
X340274952Y-72769380D02*
X340179714Y-72817000D01*
X340179714Y-72817000D02*
X340132095Y-72864619D01*
X340132095Y-72864619D02*
X340084476Y-72959857D01*
X340084476Y-72959857D02*
X340084476Y-73197952D01*
X340084476Y-73197952D02*
X340132095Y-73293190D01*
X340132095Y-73293190D02*
X340179714Y-73340809D01*
X340179714Y-73340809D02*
X340274952Y-73388428D01*
X340274952Y-73388428D02*
X340465428Y-73388428D01*
X340465428Y-73388428D02*
X340560666Y-73340809D01*
X340560666Y-73340809D02*
X340608285Y-73293190D01*
X340608285Y-73293190D02*
X340655904Y-73197952D01*
%TO.C,R28*%
X338751142Y-70819380D02*
X338417809Y-70343190D01*
X338179714Y-70819380D02*
X338179714Y-69819380D01*
X338179714Y-69819380D02*
X338560666Y-69819380D01*
X338560666Y-69819380D02*
X338655904Y-69867000D01*
X338655904Y-69867000D02*
X338703523Y-69914619D01*
X338703523Y-69914619D02*
X338751142Y-70009857D01*
X338751142Y-70009857D02*
X338751142Y-70152714D01*
X338751142Y-70152714D02*
X338703523Y-70247952D01*
X338703523Y-70247952D02*
X338655904Y-70295571D01*
X338655904Y-70295571D02*
X338560666Y-70343190D01*
X338560666Y-70343190D02*
X338179714Y-70343190D01*
X339132095Y-69914619D02*
X339179714Y-69867000D01*
X339179714Y-69867000D02*
X339274952Y-69819380D01*
X339274952Y-69819380D02*
X339513047Y-69819380D01*
X339513047Y-69819380D02*
X339608285Y-69867000D01*
X339608285Y-69867000D02*
X339655904Y-69914619D01*
X339655904Y-69914619D02*
X339703523Y-70009857D01*
X339703523Y-70009857D02*
X339703523Y-70105095D01*
X339703523Y-70105095D02*
X339655904Y-70247952D01*
X339655904Y-70247952D02*
X339084476Y-70819380D01*
X339084476Y-70819380D02*
X339703523Y-70819380D01*
X340274952Y-70247952D02*
X340179714Y-70200333D01*
X340179714Y-70200333D02*
X340132095Y-70152714D01*
X340132095Y-70152714D02*
X340084476Y-70057476D01*
X340084476Y-70057476D02*
X340084476Y-70009857D01*
X340084476Y-70009857D02*
X340132095Y-69914619D01*
X340132095Y-69914619D02*
X340179714Y-69867000D01*
X340179714Y-69867000D02*
X340274952Y-69819380D01*
X340274952Y-69819380D02*
X340465428Y-69819380D01*
X340465428Y-69819380D02*
X340560666Y-69867000D01*
X340560666Y-69867000D02*
X340608285Y-69914619D01*
X340608285Y-69914619D02*
X340655904Y-70009857D01*
X340655904Y-70009857D02*
X340655904Y-70057476D01*
X340655904Y-70057476D02*
X340608285Y-70152714D01*
X340608285Y-70152714D02*
X340560666Y-70200333D01*
X340560666Y-70200333D02*
X340465428Y-70247952D01*
X340465428Y-70247952D02*
X340274952Y-70247952D01*
X340274952Y-70247952D02*
X340179714Y-70295571D01*
X340179714Y-70295571D02*
X340132095Y-70343190D01*
X340132095Y-70343190D02*
X340084476Y-70438428D01*
X340084476Y-70438428D02*
X340084476Y-70628904D01*
X340084476Y-70628904D02*
X340132095Y-70724142D01*
X340132095Y-70724142D02*
X340179714Y-70771761D01*
X340179714Y-70771761D02*
X340274952Y-70819380D01*
X340274952Y-70819380D02*
X340465428Y-70819380D01*
X340465428Y-70819380D02*
X340560666Y-70771761D01*
X340560666Y-70771761D02*
X340608285Y-70724142D01*
X340608285Y-70724142D02*
X340655904Y-70628904D01*
X340655904Y-70628904D02*
X340655904Y-70438428D01*
X340655904Y-70438428D02*
X340608285Y-70343190D01*
X340608285Y-70343190D02*
X340560666Y-70295571D01*
X340560666Y-70295571D02*
X340465428Y-70247952D01*
%TO.C,R27*%
X338751142Y-67869380D02*
X338417809Y-67393190D01*
X338179714Y-67869380D02*
X338179714Y-66869380D01*
X338179714Y-66869380D02*
X338560666Y-66869380D01*
X338560666Y-66869380D02*
X338655904Y-66917000D01*
X338655904Y-66917000D02*
X338703523Y-66964619D01*
X338703523Y-66964619D02*
X338751142Y-67059857D01*
X338751142Y-67059857D02*
X338751142Y-67202714D01*
X338751142Y-67202714D02*
X338703523Y-67297952D01*
X338703523Y-67297952D02*
X338655904Y-67345571D01*
X338655904Y-67345571D02*
X338560666Y-67393190D01*
X338560666Y-67393190D02*
X338179714Y-67393190D01*
X339132095Y-66964619D02*
X339179714Y-66917000D01*
X339179714Y-66917000D02*
X339274952Y-66869380D01*
X339274952Y-66869380D02*
X339513047Y-66869380D01*
X339513047Y-66869380D02*
X339608285Y-66917000D01*
X339608285Y-66917000D02*
X339655904Y-66964619D01*
X339655904Y-66964619D02*
X339703523Y-67059857D01*
X339703523Y-67059857D02*
X339703523Y-67155095D01*
X339703523Y-67155095D02*
X339655904Y-67297952D01*
X339655904Y-67297952D02*
X339084476Y-67869380D01*
X339084476Y-67869380D02*
X339703523Y-67869380D01*
X340036857Y-66869380D02*
X340703523Y-66869380D01*
X340703523Y-66869380D02*
X340274952Y-67869380D01*
%TO.C,R26*%
X338751142Y-64919380D02*
X338417809Y-64443190D01*
X338179714Y-64919380D02*
X338179714Y-63919380D01*
X338179714Y-63919380D02*
X338560666Y-63919380D01*
X338560666Y-63919380D02*
X338655904Y-63967000D01*
X338655904Y-63967000D02*
X338703523Y-64014619D01*
X338703523Y-64014619D02*
X338751142Y-64109857D01*
X338751142Y-64109857D02*
X338751142Y-64252714D01*
X338751142Y-64252714D02*
X338703523Y-64347952D01*
X338703523Y-64347952D02*
X338655904Y-64395571D01*
X338655904Y-64395571D02*
X338560666Y-64443190D01*
X338560666Y-64443190D02*
X338179714Y-64443190D01*
X339132095Y-64014619D02*
X339179714Y-63967000D01*
X339179714Y-63967000D02*
X339274952Y-63919380D01*
X339274952Y-63919380D02*
X339513047Y-63919380D01*
X339513047Y-63919380D02*
X339608285Y-63967000D01*
X339608285Y-63967000D02*
X339655904Y-64014619D01*
X339655904Y-64014619D02*
X339703523Y-64109857D01*
X339703523Y-64109857D02*
X339703523Y-64205095D01*
X339703523Y-64205095D02*
X339655904Y-64347952D01*
X339655904Y-64347952D02*
X339084476Y-64919380D01*
X339084476Y-64919380D02*
X339703523Y-64919380D01*
X340560666Y-63919380D02*
X340370190Y-63919380D01*
X340370190Y-63919380D02*
X340274952Y-63967000D01*
X340274952Y-63967000D02*
X340227333Y-64014619D01*
X340227333Y-64014619D02*
X340132095Y-64157476D01*
X340132095Y-64157476D02*
X340084476Y-64347952D01*
X340084476Y-64347952D02*
X340084476Y-64728904D01*
X340084476Y-64728904D02*
X340132095Y-64824142D01*
X340132095Y-64824142D02*
X340179714Y-64871761D01*
X340179714Y-64871761D02*
X340274952Y-64919380D01*
X340274952Y-64919380D02*
X340465428Y-64919380D01*
X340465428Y-64919380D02*
X340560666Y-64871761D01*
X340560666Y-64871761D02*
X340608285Y-64824142D01*
X340608285Y-64824142D02*
X340655904Y-64728904D01*
X340655904Y-64728904D02*
X340655904Y-64490809D01*
X340655904Y-64490809D02*
X340608285Y-64395571D01*
X340608285Y-64395571D02*
X340560666Y-64347952D01*
X340560666Y-64347952D02*
X340465428Y-64300333D01*
X340465428Y-64300333D02*
X340274952Y-64300333D01*
X340274952Y-64300333D02*
X340179714Y-64347952D01*
X340179714Y-64347952D02*
X340132095Y-64395571D01*
X340132095Y-64395571D02*
X340084476Y-64490809D01*
%TO.C,R25*%
X338751142Y-61969380D02*
X338417809Y-61493190D01*
X338179714Y-61969380D02*
X338179714Y-60969380D01*
X338179714Y-60969380D02*
X338560666Y-60969380D01*
X338560666Y-60969380D02*
X338655904Y-61017000D01*
X338655904Y-61017000D02*
X338703523Y-61064619D01*
X338703523Y-61064619D02*
X338751142Y-61159857D01*
X338751142Y-61159857D02*
X338751142Y-61302714D01*
X338751142Y-61302714D02*
X338703523Y-61397952D01*
X338703523Y-61397952D02*
X338655904Y-61445571D01*
X338655904Y-61445571D02*
X338560666Y-61493190D01*
X338560666Y-61493190D02*
X338179714Y-61493190D01*
X339132095Y-61064619D02*
X339179714Y-61017000D01*
X339179714Y-61017000D02*
X339274952Y-60969380D01*
X339274952Y-60969380D02*
X339513047Y-60969380D01*
X339513047Y-60969380D02*
X339608285Y-61017000D01*
X339608285Y-61017000D02*
X339655904Y-61064619D01*
X339655904Y-61064619D02*
X339703523Y-61159857D01*
X339703523Y-61159857D02*
X339703523Y-61255095D01*
X339703523Y-61255095D02*
X339655904Y-61397952D01*
X339655904Y-61397952D02*
X339084476Y-61969380D01*
X339084476Y-61969380D02*
X339703523Y-61969380D01*
X340608285Y-60969380D02*
X340132095Y-60969380D01*
X340132095Y-60969380D02*
X340084476Y-61445571D01*
X340084476Y-61445571D02*
X340132095Y-61397952D01*
X340132095Y-61397952D02*
X340227333Y-61350333D01*
X340227333Y-61350333D02*
X340465428Y-61350333D01*
X340465428Y-61350333D02*
X340560666Y-61397952D01*
X340560666Y-61397952D02*
X340608285Y-61445571D01*
X340608285Y-61445571D02*
X340655904Y-61540809D01*
X340655904Y-61540809D02*
X340655904Y-61778904D01*
X340655904Y-61778904D02*
X340608285Y-61874142D01*
X340608285Y-61874142D02*
X340560666Y-61921761D01*
X340560666Y-61921761D02*
X340465428Y-61969380D01*
X340465428Y-61969380D02*
X340227333Y-61969380D01*
X340227333Y-61969380D02*
X340132095Y-61921761D01*
X340132095Y-61921761D02*
X340084476Y-61874142D01*
%TO.C,R24*%
X338751142Y-59019380D02*
X338417809Y-58543190D01*
X338179714Y-59019380D02*
X338179714Y-58019380D01*
X338179714Y-58019380D02*
X338560666Y-58019380D01*
X338560666Y-58019380D02*
X338655904Y-58067000D01*
X338655904Y-58067000D02*
X338703523Y-58114619D01*
X338703523Y-58114619D02*
X338751142Y-58209857D01*
X338751142Y-58209857D02*
X338751142Y-58352714D01*
X338751142Y-58352714D02*
X338703523Y-58447952D01*
X338703523Y-58447952D02*
X338655904Y-58495571D01*
X338655904Y-58495571D02*
X338560666Y-58543190D01*
X338560666Y-58543190D02*
X338179714Y-58543190D01*
X339132095Y-58114619D02*
X339179714Y-58067000D01*
X339179714Y-58067000D02*
X339274952Y-58019380D01*
X339274952Y-58019380D02*
X339513047Y-58019380D01*
X339513047Y-58019380D02*
X339608285Y-58067000D01*
X339608285Y-58067000D02*
X339655904Y-58114619D01*
X339655904Y-58114619D02*
X339703523Y-58209857D01*
X339703523Y-58209857D02*
X339703523Y-58305095D01*
X339703523Y-58305095D02*
X339655904Y-58447952D01*
X339655904Y-58447952D02*
X339084476Y-59019380D01*
X339084476Y-59019380D02*
X339703523Y-59019380D01*
X340560666Y-58352714D02*
X340560666Y-59019380D01*
X340322571Y-57971761D02*
X340084476Y-58686047D01*
X340084476Y-58686047D02*
X340703523Y-58686047D01*
%TO.C,R23*%
X338751142Y-56069380D02*
X338417809Y-55593190D01*
X338179714Y-56069380D02*
X338179714Y-55069380D01*
X338179714Y-55069380D02*
X338560666Y-55069380D01*
X338560666Y-55069380D02*
X338655904Y-55117000D01*
X338655904Y-55117000D02*
X338703523Y-55164619D01*
X338703523Y-55164619D02*
X338751142Y-55259857D01*
X338751142Y-55259857D02*
X338751142Y-55402714D01*
X338751142Y-55402714D02*
X338703523Y-55497952D01*
X338703523Y-55497952D02*
X338655904Y-55545571D01*
X338655904Y-55545571D02*
X338560666Y-55593190D01*
X338560666Y-55593190D02*
X338179714Y-55593190D01*
X339132095Y-55164619D02*
X339179714Y-55117000D01*
X339179714Y-55117000D02*
X339274952Y-55069380D01*
X339274952Y-55069380D02*
X339513047Y-55069380D01*
X339513047Y-55069380D02*
X339608285Y-55117000D01*
X339608285Y-55117000D02*
X339655904Y-55164619D01*
X339655904Y-55164619D02*
X339703523Y-55259857D01*
X339703523Y-55259857D02*
X339703523Y-55355095D01*
X339703523Y-55355095D02*
X339655904Y-55497952D01*
X339655904Y-55497952D02*
X339084476Y-56069380D01*
X339084476Y-56069380D02*
X339703523Y-56069380D01*
X340036857Y-55069380D02*
X340655904Y-55069380D01*
X340655904Y-55069380D02*
X340322571Y-55450333D01*
X340322571Y-55450333D02*
X340465428Y-55450333D01*
X340465428Y-55450333D02*
X340560666Y-55497952D01*
X340560666Y-55497952D02*
X340608285Y-55545571D01*
X340608285Y-55545571D02*
X340655904Y-55640809D01*
X340655904Y-55640809D02*
X340655904Y-55878904D01*
X340655904Y-55878904D02*
X340608285Y-55974142D01*
X340608285Y-55974142D02*
X340560666Y-56021761D01*
X340560666Y-56021761D02*
X340465428Y-56069380D01*
X340465428Y-56069380D02*
X340179714Y-56069380D01*
X340179714Y-56069380D02*
X340084476Y-56021761D01*
X340084476Y-56021761D02*
X340036857Y-55974142D01*
%TO.C,R22*%
X338751142Y-53119380D02*
X338417809Y-52643190D01*
X338179714Y-53119380D02*
X338179714Y-52119380D01*
X338179714Y-52119380D02*
X338560666Y-52119380D01*
X338560666Y-52119380D02*
X338655904Y-52167000D01*
X338655904Y-52167000D02*
X338703523Y-52214619D01*
X338703523Y-52214619D02*
X338751142Y-52309857D01*
X338751142Y-52309857D02*
X338751142Y-52452714D01*
X338751142Y-52452714D02*
X338703523Y-52547952D01*
X338703523Y-52547952D02*
X338655904Y-52595571D01*
X338655904Y-52595571D02*
X338560666Y-52643190D01*
X338560666Y-52643190D02*
X338179714Y-52643190D01*
X339132095Y-52214619D02*
X339179714Y-52167000D01*
X339179714Y-52167000D02*
X339274952Y-52119380D01*
X339274952Y-52119380D02*
X339513047Y-52119380D01*
X339513047Y-52119380D02*
X339608285Y-52167000D01*
X339608285Y-52167000D02*
X339655904Y-52214619D01*
X339655904Y-52214619D02*
X339703523Y-52309857D01*
X339703523Y-52309857D02*
X339703523Y-52405095D01*
X339703523Y-52405095D02*
X339655904Y-52547952D01*
X339655904Y-52547952D02*
X339084476Y-53119380D01*
X339084476Y-53119380D02*
X339703523Y-53119380D01*
X340084476Y-52214619D02*
X340132095Y-52167000D01*
X340132095Y-52167000D02*
X340227333Y-52119380D01*
X340227333Y-52119380D02*
X340465428Y-52119380D01*
X340465428Y-52119380D02*
X340560666Y-52167000D01*
X340560666Y-52167000D02*
X340608285Y-52214619D01*
X340608285Y-52214619D02*
X340655904Y-52309857D01*
X340655904Y-52309857D02*
X340655904Y-52405095D01*
X340655904Y-52405095D02*
X340608285Y-52547952D01*
X340608285Y-52547952D02*
X340036857Y-53119380D01*
X340036857Y-53119380D02*
X340655904Y-53119380D01*
%TO.C,R21*%
X334341142Y-76719380D02*
X334007809Y-76243190D01*
X333769714Y-76719380D02*
X333769714Y-75719380D01*
X333769714Y-75719380D02*
X334150666Y-75719380D01*
X334150666Y-75719380D02*
X334245904Y-75767000D01*
X334245904Y-75767000D02*
X334293523Y-75814619D01*
X334293523Y-75814619D02*
X334341142Y-75909857D01*
X334341142Y-75909857D02*
X334341142Y-76052714D01*
X334341142Y-76052714D02*
X334293523Y-76147952D01*
X334293523Y-76147952D02*
X334245904Y-76195571D01*
X334245904Y-76195571D02*
X334150666Y-76243190D01*
X334150666Y-76243190D02*
X333769714Y-76243190D01*
X334722095Y-75814619D02*
X334769714Y-75767000D01*
X334769714Y-75767000D02*
X334864952Y-75719380D01*
X334864952Y-75719380D02*
X335103047Y-75719380D01*
X335103047Y-75719380D02*
X335198285Y-75767000D01*
X335198285Y-75767000D02*
X335245904Y-75814619D01*
X335245904Y-75814619D02*
X335293523Y-75909857D01*
X335293523Y-75909857D02*
X335293523Y-76005095D01*
X335293523Y-76005095D02*
X335245904Y-76147952D01*
X335245904Y-76147952D02*
X334674476Y-76719380D01*
X334674476Y-76719380D02*
X335293523Y-76719380D01*
X336245904Y-76719380D02*
X335674476Y-76719380D01*
X335960190Y-76719380D02*
X335960190Y-75719380D01*
X335960190Y-75719380D02*
X335864952Y-75862238D01*
X335864952Y-75862238D02*
X335769714Y-75957476D01*
X335769714Y-75957476D02*
X335674476Y-76005095D01*
%TO.C,R20*%
X169911380Y-120022857D02*
X169435190Y-120356190D01*
X169911380Y-120594285D02*
X168911380Y-120594285D01*
X168911380Y-120594285D02*
X168911380Y-120213333D01*
X168911380Y-120213333D02*
X168959000Y-120118095D01*
X168959000Y-120118095D02*
X169006619Y-120070476D01*
X169006619Y-120070476D02*
X169101857Y-120022857D01*
X169101857Y-120022857D02*
X169244714Y-120022857D01*
X169244714Y-120022857D02*
X169339952Y-120070476D01*
X169339952Y-120070476D02*
X169387571Y-120118095D01*
X169387571Y-120118095D02*
X169435190Y-120213333D01*
X169435190Y-120213333D02*
X169435190Y-120594285D01*
X169006619Y-119641904D02*
X168959000Y-119594285D01*
X168959000Y-119594285D02*
X168911380Y-119499047D01*
X168911380Y-119499047D02*
X168911380Y-119260952D01*
X168911380Y-119260952D02*
X168959000Y-119165714D01*
X168959000Y-119165714D02*
X169006619Y-119118095D01*
X169006619Y-119118095D02*
X169101857Y-119070476D01*
X169101857Y-119070476D02*
X169197095Y-119070476D01*
X169197095Y-119070476D02*
X169339952Y-119118095D01*
X169339952Y-119118095D02*
X169911380Y-119689523D01*
X169911380Y-119689523D02*
X169911380Y-119070476D01*
X168911380Y-118451428D02*
X168911380Y-118356190D01*
X168911380Y-118356190D02*
X168959000Y-118260952D01*
X168959000Y-118260952D02*
X169006619Y-118213333D01*
X169006619Y-118213333D02*
X169101857Y-118165714D01*
X169101857Y-118165714D02*
X169292333Y-118118095D01*
X169292333Y-118118095D02*
X169530428Y-118118095D01*
X169530428Y-118118095D02*
X169720904Y-118165714D01*
X169720904Y-118165714D02*
X169816142Y-118213333D01*
X169816142Y-118213333D02*
X169863761Y-118260952D01*
X169863761Y-118260952D02*
X169911380Y-118356190D01*
X169911380Y-118356190D02*
X169911380Y-118451428D01*
X169911380Y-118451428D02*
X169863761Y-118546666D01*
X169863761Y-118546666D02*
X169816142Y-118594285D01*
X169816142Y-118594285D02*
X169720904Y-118641904D01*
X169720904Y-118641904D02*
X169530428Y-118689523D01*
X169530428Y-118689523D02*
X169292333Y-118689523D01*
X169292333Y-118689523D02*
X169101857Y-118641904D01*
X169101857Y-118641904D02*
X169006619Y-118594285D01*
X169006619Y-118594285D02*
X168959000Y-118546666D01*
X168959000Y-118546666D02*
X168911380Y-118451428D01*
%TO.C,R19*%
X166863380Y-85732857D02*
X166387190Y-86066190D01*
X166863380Y-86304285D02*
X165863380Y-86304285D01*
X165863380Y-86304285D02*
X165863380Y-85923333D01*
X165863380Y-85923333D02*
X165911000Y-85828095D01*
X165911000Y-85828095D02*
X165958619Y-85780476D01*
X165958619Y-85780476D02*
X166053857Y-85732857D01*
X166053857Y-85732857D02*
X166196714Y-85732857D01*
X166196714Y-85732857D02*
X166291952Y-85780476D01*
X166291952Y-85780476D02*
X166339571Y-85828095D01*
X166339571Y-85828095D02*
X166387190Y-85923333D01*
X166387190Y-85923333D02*
X166387190Y-86304285D01*
X166863380Y-84780476D02*
X166863380Y-85351904D01*
X166863380Y-85066190D02*
X165863380Y-85066190D01*
X165863380Y-85066190D02*
X166006238Y-85161428D01*
X166006238Y-85161428D02*
X166101476Y-85256666D01*
X166101476Y-85256666D02*
X166149095Y-85351904D01*
X166863380Y-84304285D02*
X166863380Y-84113809D01*
X166863380Y-84113809D02*
X166815761Y-84018571D01*
X166815761Y-84018571D02*
X166768142Y-83970952D01*
X166768142Y-83970952D02*
X166625285Y-83875714D01*
X166625285Y-83875714D02*
X166434809Y-83828095D01*
X166434809Y-83828095D02*
X166053857Y-83828095D01*
X166053857Y-83828095D02*
X165958619Y-83875714D01*
X165958619Y-83875714D02*
X165911000Y-83923333D01*
X165911000Y-83923333D02*
X165863380Y-84018571D01*
X165863380Y-84018571D02*
X165863380Y-84209047D01*
X165863380Y-84209047D02*
X165911000Y-84304285D01*
X165911000Y-84304285D02*
X165958619Y-84351904D01*
X165958619Y-84351904D02*
X166053857Y-84399523D01*
X166053857Y-84399523D02*
X166291952Y-84399523D01*
X166291952Y-84399523D02*
X166387190Y-84351904D01*
X166387190Y-84351904D02*
X166434809Y-84304285D01*
X166434809Y-84304285D02*
X166482428Y-84209047D01*
X166482428Y-84209047D02*
X166482428Y-84018571D01*
X166482428Y-84018571D02*
X166434809Y-83923333D01*
X166434809Y-83923333D02*
X166387190Y-83875714D01*
X166387190Y-83875714D02*
X166291952Y-83828095D01*
%TO.C,R18*%
X334341142Y-67869380D02*
X334007809Y-67393190D01*
X333769714Y-67869380D02*
X333769714Y-66869380D01*
X333769714Y-66869380D02*
X334150666Y-66869380D01*
X334150666Y-66869380D02*
X334245904Y-66917000D01*
X334245904Y-66917000D02*
X334293523Y-66964619D01*
X334293523Y-66964619D02*
X334341142Y-67059857D01*
X334341142Y-67059857D02*
X334341142Y-67202714D01*
X334341142Y-67202714D02*
X334293523Y-67297952D01*
X334293523Y-67297952D02*
X334245904Y-67345571D01*
X334245904Y-67345571D02*
X334150666Y-67393190D01*
X334150666Y-67393190D02*
X333769714Y-67393190D01*
X335293523Y-67869380D02*
X334722095Y-67869380D01*
X335007809Y-67869380D02*
X335007809Y-66869380D01*
X335007809Y-66869380D02*
X334912571Y-67012238D01*
X334912571Y-67012238D02*
X334817333Y-67107476D01*
X334817333Y-67107476D02*
X334722095Y-67155095D01*
X335864952Y-67297952D02*
X335769714Y-67250333D01*
X335769714Y-67250333D02*
X335722095Y-67202714D01*
X335722095Y-67202714D02*
X335674476Y-67107476D01*
X335674476Y-67107476D02*
X335674476Y-67059857D01*
X335674476Y-67059857D02*
X335722095Y-66964619D01*
X335722095Y-66964619D02*
X335769714Y-66917000D01*
X335769714Y-66917000D02*
X335864952Y-66869380D01*
X335864952Y-66869380D02*
X336055428Y-66869380D01*
X336055428Y-66869380D02*
X336150666Y-66917000D01*
X336150666Y-66917000D02*
X336198285Y-66964619D01*
X336198285Y-66964619D02*
X336245904Y-67059857D01*
X336245904Y-67059857D02*
X336245904Y-67107476D01*
X336245904Y-67107476D02*
X336198285Y-67202714D01*
X336198285Y-67202714D02*
X336150666Y-67250333D01*
X336150666Y-67250333D02*
X336055428Y-67297952D01*
X336055428Y-67297952D02*
X335864952Y-67297952D01*
X335864952Y-67297952D02*
X335769714Y-67345571D01*
X335769714Y-67345571D02*
X335722095Y-67393190D01*
X335722095Y-67393190D02*
X335674476Y-67488428D01*
X335674476Y-67488428D02*
X335674476Y-67678904D01*
X335674476Y-67678904D02*
X335722095Y-67774142D01*
X335722095Y-67774142D02*
X335769714Y-67821761D01*
X335769714Y-67821761D02*
X335864952Y-67869380D01*
X335864952Y-67869380D02*
X336055428Y-67869380D01*
X336055428Y-67869380D02*
X336150666Y-67821761D01*
X336150666Y-67821761D02*
X336198285Y-67774142D01*
X336198285Y-67774142D02*
X336245904Y-67678904D01*
X336245904Y-67678904D02*
X336245904Y-67488428D01*
X336245904Y-67488428D02*
X336198285Y-67393190D01*
X336198285Y-67393190D02*
X336150666Y-67345571D01*
X336150666Y-67345571D02*
X336055428Y-67297952D01*
%TO.C,R17*%
X334341142Y-64919380D02*
X334007809Y-64443190D01*
X333769714Y-64919380D02*
X333769714Y-63919380D01*
X333769714Y-63919380D02*
X334150666Y-63919380D01*
X334150666Y-63919380D02*
X334245904Y-63967000D01*
X334245904Y-63967000D02*
X334293523Y-64014619D01*
X334293523Y-64014619D02*
X334341142Y-64109857D01*
X334341142Y-64109857D02*
X334341142Y-64252714D01*
X334341142Y-64252714D02*
X334293523Y-64347952D01*
X334293523Y-64347952D02*
X334245904Y-64395571D01*
X334245904Y-64395571D02*
X334150666Y-64443190D01*
X334150666Y-64443190D02*
X333769714Y-64443190D01*
X335293523Y-64919380D02*
X334722095Y-64919380D01*
X335007809Y-64919380D02*
X335007809Y-63919380D01*
X335007809Y-63919380D02*
X334912571Y-64062238D01*
X334912571Y-64062238D02*
X334817333Y-64157476D01*
X334817333Y-64157476D02*
X334722095Y-64205095D01*
X335626857Y-63919380D02*
X336293523Y-63919380D01*
X336293523Y-63919380D02*
X335864952Y-64919380D01*
%TO.C,R16*%
X334341142Y-61969380D02*
X334007809Y-61493190D01*
X333769714Y-61969380D02*
X333769714Y-60969380D01*
X333769714Y-60969380D02*
X334150666Y-60969380D01*
X334150666Y-60969380D02*
X334245904Y-61017000D01*
X334245904Y-61017000D02*
X334293523Y-61064619D01*
X334293523Y-61064619D02*
X334341142Y-61159857D01*
X334341142Y-61159857D02*
X334341142Y-61302714D01*
X334341142Y-61302714D02*
X334293523Y-61397952D01*
X334293523Y-61397952D02*
X334245904Y-61445571D01*
X334245904Y-61445571D02*
X334150666Y-61493190D01*
X334150666Y-61493190D02*
X333769714Y-61493190D01*
X335293523Y-61969380D02*
X334722095Y-61969380D01*
X335007809Y-61969380D02*
X335007809Y-60969380D01*
X335007809Y-60969380D02*
X334912571Y-61112238D01*
X334912571Y-61112238D02*
X334817333Y-61207476D01*
X334817333Y-61207476D02*
X334722095Y-61255095D01*
X336150666Y-60969380D02*
X335960190Y-60969380D01*
X335960190Y-60969380D02*
X335864952Y-61017000D01*
X335864952Y-61017000D02*
X335817333Y-61064619D01*
X335817333Y-61064619D02*
X335722095Y-61207476D01*
X335722095Y-61207476D02*
X335674476Y-61397952D01*
X335674476Y-61397952D02*
X335674476Y-61778904D01*
X335674476Y-61778904D02*
X335722095Y-61874142D01*
X335722095Y-61874142D02*
X335769714Y-61921761D01*
X335769714Y-61921761D02*
X335864952Y-61969380D01*
X335864952Y-61969380D02*
X336055428Y-61969380D01*
X336055428Y-61969380D02*
X336150666Y-61921761D01*
X336150666Y-61921761D02*
X336198285Y-61874142D01*
X336198285Y-61874142D02*
X336245904Y-61778904D01*
X336245904Y-61778904D02*
X336245904Y-61540809D01*
X336245904Y-61540809D02*
X336198285Y-61445571D01*
X336198285Y-61445571D02*
X336150666Y-61397952D01*
X336150666Y-61397952D02*
X336055428Y-61350333D01*
X336055428Y-61350333D02*
X335864952Y-61350333D01*
X335864952Y-61350333D02*
X335769714Y-61397952D01*
X335769714Y-61397952D02*
X335722095Y-61445571D01*
X335722095Y-61445571D02*
X335674476Y-61540809D01*
%TO.C,R15*%
X334341142Y-59019380D02*
X334007809Y-58543190D01*
X333769714Y-59019380D02*
X333769714Y-58019380D01*
X333769714Y-58019380D02*
X334150666Y-58019380D01*
X334150666Y-58019380D02*
X334245904Y-58067000D01*
X334245904Y-58067000D02*
X334293523Y-58114619D01*
X334293523Y-58114619D02*
X334341142Y-58209857D01*
X334341142Y-58209857D02*
X334341142Y-58352714D01*
X334341142Y-58352714D02*
X334293523Y-58447952D01*
X334293523Y-58447952D02*
X334245904Y-58495571D01*
X334245904Y-58495571D02*
X334150666Y-58543190D01*
X334150666Y-58543190D02*
X333769714Y-58543190D01*
X335293523Y-59019380D02*
X334722095Y-59019380D01*
X335007809Y-59019380D02*
X335007809Y-58019380D01*
X335007809Y-58019380D02*
X334912571Y-58162238D01*
X334912571Y-58162238D02*
X334817333Y-58257476D01*
X334817333Y-58257476D02*
X334722095Y-58305095D01*
X336198285Y-58019380D02*
X335722095Y-58019380D01*
X335722095Y-58019380D02*
X335674476Y-58495571D01*
X335674476Y-58495571D02*
X335722095Y-58447952D01*
X335722095Y-58447952D02*
X335817333Y-58400333D01*
X335817333Y-58400333D02*
X336055428Y-58400333D01*
X336055428Y-58400333D02*
X336150666Y-58447952D01*
X336150666Y-58447952D02*
X336198285Y-58495571D01*
X336198285Y-58495571D02*
X336245904Y-58590809D01*
X336245904Y-58590809D02*
X336245904Y-58828904D01*
X336245904Y-58828904D02*
X336198285Y-58924142D01*
X336198285Y-58924142D02*
X336150666Y-58971761D01*
X336150666Y-58971761D02*
X336055428Y-59019380D01*
X336055428Y-59019380D02*
X335817333Y-59019380D01*
X335817333Y-59019380D02*
X335722095Y-58971761D01*
X335722095Y-58971761D02*
X335674476Y-58924142D01*
%TO.C,R14*%
X334341142Y-56069380D02*
X334007809Y-55593190D01*
X333769714Y-56069380D02*
X333769714Y-55069380D01*
X333769714Y-55069380D02*
X334150666Y-55069380D01*
X334150666Y-55069380D02*
X334245904Y-55117000D01*
X334245904Y-55117000D02*
X334293523Y-55164619D01*
X334293523Y-55164619D02*
X334341142Y-55259857D01*
X334341142Y-55259857D02*
X334341142Y-55402714D01*
X334341142Y-55402714D02*
X334293523Y-55497952D01*
X334293523Y-55497952D02*
X334245904Y-55545571D01*
X334245904Y-55545571D02*
X334150666Y-55593190D01*
X334150666Y-55593190D02*
X333769714Y-55593190D01*
X335293523Y-56069380D02*
X334722095Y-56069380D01*
X335007809Y-56069380D02*
X335007809Y-55069380D01*
X335007809Y-55069380D02*
X334912571Y-55212238D01*
X334912571Y-55212238D02*
X334817333Y-55307476D01*
X334817333Y-55307476D02*
X334722095Y-55355095D01*
X336150666Y-55402714D02*
X336150666Y-56069380D01*
X335912571Y-55021761D02*
X335674476Y-55736047D01*
X335674476Y-55736047D02*
X336293523Y-55736047D01*
%TO.C,R13*%
X334341142Y-53119380D02*
X334007809Y-52643190D01*
X333769714Y-53119380D02*
X333769714Y-52119380D01*
X333769714Y-52119380D02*
X334150666Y-52119380D01*
X334150666Y-52119380D02*
X334245904Y-52167000D01*
X334245904Y-52167000D02*
X334293523Y-52214619D01*
X334293523Y-52214619D02*
X334341142Y-52309857D01*
X334341142Y-52309857D02*
X334341142Y-52452714D01*
X334341142Y-52452714D02*
X334293523Y-52547952D01*
X334293523Y-52547952D02*
X334245904Y-52595571D01*
X334245904Y-52595571D02*
X334150666Y-52643190D01*
X334150666Y-52643190D02*
X333769714Y-52643190D01*
X335293523Y-53119380D02*
X334722095Y-53119380D01*
X335007809Y-53119380D02*
X335007809Y-52119380D01*
X335007809Y-52119380D02*
X334912571Y-52262238D01*
X334912571Y-52262238D02*
X334817333Y-52357476D01*
X334817333Y-52357476D02*
X334722095Y-52405095D01*
X335626857Y-52119380D02*
X336245904Y-52119380D01*
X336245904Y-52119380D02*
X335912571Y-52500333D01*
X335912571Y-52500333D02*
X336055428Y-52500333D01*
X336055428Y-52500333D02*
X336150666Y-52547952D01*
X336150666Y-52547952D02*
X336198285Y-52595571D01*
X336198285Y-52595571D02*
X336245904Y-52690809D01*
X336245904Y-52690809D02*
X336245904Y-52928904D01*
X336245904Y-52928904D02*
X336198285Y-53024142D01*
X336198285Y-53024142D02*
X336150666Y-53071761D01*
X336150666Y-53071761D02*
X336055428Y-53119380D01*
X336055428Y-53119380D02*
X335769714Y-53119380D01*
X335769714Y-53119380D02*
X335674476Y-53071761D01*
X335674476Y-53071761D02*
X335626857Y-53024142D01*
%TO.C,R12*%
X366431142Y-110729380D02*
X366097809Y-110253190D01*
X365859714Y-110729380D02*
X365859714Y-109729380D01*
X365859714Y-109729380D02*
X366240666Y-109729380D01*
X366240666Y-109729380D02*
X366335904Y-109777000D01*
X366335904Y-109777000D02*
X366383523Y-109824619D01*
X366383523Y-109824619D02*
X366431142Y-109919857D01*
X366431142Y-109919857D02*
X366431142Y-110062714D01*
X366431142Y-110062714D02*
X366383523Y-110157952D01*
X366383523Y-110157952D02*
X366335904Y-110205571D01*
X366335904Y-110205571D02*
X366240666Y-110253190D01*
X366240666Y-110253190D02*
X365859714Y-110253190D01*
X367383523Y-110729380D02*
X366812095Y-110729380D01*
X367097809Y-110729380D02*
X367097809Y-109729380D01*
X367097809Y-109729380D02*
X367002571Y-109872238D01*
X367002571Y-109872238D02*
X366907333Y-109967476D01*
X366907333Y-109967476D02*
X366812095Y-110015095D01*
X367764476Y-109824619D02*
X367812095Y-109777000D01*
X367812095Y-109777000D02*
X367907333Y-109729380D01*
X367907333Y-109729380D02*
X368145428Y-109729380D01*
X368145428Y-109729380D02*
X368240666Y-109777000D01*
X368240666Y-109777000D02*
X368288285Y-109824619D01*
X368288285Y-109824619D02*
X368335904Y-109919857D01*
X368335904Y-109919857D02*
X368335904Y-110015095D01*
X368335904Y-110015095D02*
X368288285Y-110157952D01*
X368288285Y-110157952D02*
X367716857Y-110729380D01*
X367716857Y-110729380D02*
X368335904Y-110729380D01*
%TO.C,R11*%
X366431142Y-107439380D02*
X366097809Y-106963190D01*
X365859714Y-107439380D02*
X365859714Y-106439380D01*
X365859714Y-106439380D02*
X366240666Y-106439380D01*
X366240666Y-106439380D02*
X366335904Y-106487000D01*
X366335904Y-106487000D02*
X366383523Y-106534619D01*
X366383523Y-106534619D02*
X366431142Y-106629857D01*
X366431142Y-106629857D02*
X366431142Y-106772714D01*
X366431142Y-106772714D02*
X366383523Y-106867952D01*
X366383523Y-106867952D02*
X366335904Y-106915571D01*
X366335904Y-106915571D02*
X366240666Y-106963190D01*
X366240666Y-106963190D02*
X365859714Y-106963190D01*
X367383523Y-107439380D02*
X366812095Y-107439380D01*
X367097809Y-107439380D02*
X367097809Y-106439380D01*
X367097809Y-106439380D02*
X367002571Y-106582238D01*
X367002571Y-106582238D02*
X366907333Y-106677476D01*
X366907333Y-106677476D02*
X366812095Y-106725095D01*
X368335904Y-107439380D02*
X367764476Y-107439380D01*
X368050190Y-107439380D02*
X368050190Y-106439380D01*
X368050190Y-106439380D02*
X367954952Y-106582238D01*
X367954952Y-106582238D02*
X367859714Y-106677476D01*
X367859714Y-106677476D02*
X367764476Y-106725095D01*
%TO.C,R10*%
X366431142Y-104149380D02*
X366097809Y-103673190D01*
X365859714Y-104149380D02*
X365859714Y-103149380D01*
X365859714Y-103149380D02*
X366240666Y-103149380D01*
X366240666Y-103149380D02*
X366335904Y-103197000D01*
X366335904Y-103197000D02*
X366383523Y-103244619D01*
X366383523Y-103244619D02*
X366431142Y-103339857D01*
X366431142Y-103339857D02*
X366431142Y-103482714D01*
X366431142Y-103482714D02*
X366383523Y-103577952D01*
X366383523Y-103577952D02*
X366335904Y-103625571D01*
X366335904Y-103625571D02*
X366240666Y-103673190D01*
X366240666Y-103673190D02*
X365859714Y-103673190D01*
X367383523Y-104149380D02*
X366812095Y-104149380D01*
X367097809Y-104149380D02*
X367097809Y-103149380D01*
X367097809Y-103149380D02*
X367002571Y-103292238D01*
X367002571Y-103292238D02*
X366907333Y-103387476D01*
X366907333Y-103387476D02*
X366812095Y-103435095D01*
X368002571Y-103149380D02*
X368097809Y-103149380D01*
X368097809Y-103149380D02*
X368193047Y-103197000D01*
X368193047Y-103197000D02*
X368240666Y-103244619D01*
X368240666Y-103244619D02*
X368288285Y-103339857D01*
X368288285Y-103339857D02*
X368335904Y-103530333D01*
X368335904Y-103530333D02*
X368335904Y-103768428D01*
X368335904Y-103768428D02*
X368288285Y-103958904D01*
X368288285Y-103958904D02*
X368240666Y-104054142D01*
X368240666Y-104054142D02*
X368193047Y-104101761D01*
X368193047Y-104101761D02*
X368097809Y-104149380D01*
X368097809Y-104149380D02*
X368002571Y-104149380D01*
X368002571Y-104149380D02*
X367907333Y-104101761D01*
X367907333Y-104101761D02*
X367859714Y-104054142D01*
X367859714Y-104054142D02*
X367812095Y-103958904D01*
X367812095Y-103958904D02*
X367764476Y-103768428D01*
X367764476Y-103768428D02*
X367764476Y-103530333D01*
X367764476Y-103530333D02*
X367812095Y-103339857D01*
X367812095Y-103339857D02*
X367859714Y-103244619D01*
X367859714Y-103244619D02*
X367907333Y-103197000D01*
X367907333Y-103197000D02*
X368002571Y-103149380D01*
%TO.C,R9*%
X330407333Y-76719380D02*
X330074000Y-76243190D01*
X329835905Y-76719380D02*
X329835905Y-75719380D01*
X329835905Y-75719380D02*
X330216857Y-75719380D01*
X330216857Y-75719380D02*
X330312095Y-75767000D01*
X330312095Y-75767000D02*
X330359714Y-75814619D01*
X330359714Y-75814619D02*
X330407333Y-75909857D01*
X330407333Y-75909857D02*
X330407333Y-76052714D01*
X330407333Y-76052714D02*
X330359714Y-76147952D01*
X330359714Y-76147952D02*
X330312095Y-76195571D01*
X330312095Y-76195571D02*
X330216857Y-76243190D01*
X330216857Y-76243190D02*
X329835905Y-76243190D01*
X330883524Y-76719380D02*
X331074000Y-76719380D01*
X331074000Y-76719380D02*
X331169238Y-76671761D01*
X331169238Y-76671761D02*
X331216857Y-76624142D01*
X331216857Y-76624142D02*
X331312095Y-76481285D01*
X331312095Y-76481285D02*
X331359714Y-76290809D01*
X331359714Y-76290809D02*
X331359714Y-75909857D01*
X331359714Y-75909857D02*
X331312095Y-75814619D01*
X331312095Y-75814619D02*
X331264476Y-75767000D01*
X331264476Y-75767000D02*
X331169238Y-75719380D01*
X331169238Y-75719380D02*
X330978762Y-75719380D01*
X330978762Y-75719380D02*
X330883524Y-75767000D01*
X330883524Y-75767000D02*
X330835905Y-75814619D01*
X330835905Y-75814619D02*
X330788286Y-75909857D01*
X330788286Y-75909857D02*
X330788286Y-76147952D01*
X330788286Y-76147952D02*
X330835905Y-76243190D01*
X330835905Y-76243190D02*
X330883524Y-76290809D01*
X330883524Y-76290809D02*
X330978762Y-76338428D01*
X330978762Y-76338428D02*
X331169238Y-76338428D01*
X331169238Y-76338428D02*
X331264476Y-76290809D01*
X331264476Y-76290809D02*
X331312095Y-76243190D01*
X331312095Y-76243190D02*
X331359714Y-76147952D01*
%TO.C,R8*%
X330407333Y-73769380D02*
X330074000Y-73293190D01*
X329835905Y-73769380D02*
X329835905Y-72769380D01*
X329835905Y-72769380D02*
X330216857Y-72769380D01*
X330216857Y-72769380D02*
X330312095Y-72817000D01*
X330312095Y-72817000D02*
X330359714Y-72864619D01*
X330359714Y-72864619D02*
X330407333Y-72959857D01*
X330407333Y-72959857D02*
X330407333Y-73102714D01*
X330407333Y-73102714D02*
X330359714Y-73197952D01*
X330359714Y-73197952D02*
X330312095Y-73245571D01*
X330312095Y-73245571D02*
X330216857Y-73293190D01*
X330216857Y-73293190D02*
X329835905Y-73293190D01*
X330978762Y-73197952D02*
X330883524Y-73150333D01*
X330883524Y-73150333D02*
X330835905Y-73102714D01*
X330835905Y-73102714D02*
X330788286Y-73007476D01*
X330788286Y-73007476D02*
X330788286Y-72959857D01*
X330788286Y-72959857D02*
X330835905Y-72864619D01*
X330835905Y-72864619D02*
X330883524Y-72817000D01*
X330883524Y-72817000D02*
X330978762Y-72769380D01*
X330978762Y-72769380D02*
X331169238Y-72769380D01*
X331169238Y-72769380D02*
X331264476Y-72817000D01*
X331264476Y-72817000D02*
X331312095Y-72864619D01*
X331312095Y-72864619D02*
X331359714Y-72959857D01*
X331359714Y-72959857D02*
X331359714Y-73007476D01*
X331359714Y-73007476D02*
X331312095Y-73102714D01*
X331312095Y-73102714D02*
X331264476Y-73150333D01*
X331264476Y-73150333D02*
X331169238Y-73197952D01*
X331169238Y-73197952D02*
X330978762Y-73197952D01*
X330978762Y-73197952D02*
X330883524Y-73245571D01*
X330883524Y-73245571D02*
X330835905Y-73293190D01*
X330835905Y-73293190D02*
X330788286Y-73388428D01*
X330788286Y-73388428D02*
X330788286Y-73578904D01*
X330788286Y-73578904D02*
X330835905Y-73674142D01*
X330835905Y-73674142D02*
X330883524Y-73721761D01*
X330883524Y-73721761D02*
X330978762Y-73769380D01*
X330978762Y-73769380D02*
X331169238Y-73769380D01*
X331169238Y-73769380D02*
X331264476Y-73721761D01*
X331264476Y-73721761D02*
X331312095Y-73674142D01*
X331312095Y-73674142D02*
X331359714Y-73578904D01*
X331359714Y-73578904D02*
X331359714Y-73388428D01*
X331359714Y-73388428D02*
X331312095Y-73293190D01*
X331312095Y-73293190D02*
X331264476Y-73245571D01*
X331264476Y-73245571D02*
X331169238Y-73197952D01*
%TO.C,R7*%
X330407333Y-70819380D02*
X330074000Y-70343190D01*
X329835905Y-70819380D02*
X329835905Y-69819380D01*
X329835905Y-69819380D02*
X330216857Y-69819380D01*
X330216857Y-69819380D02*
X330312095Y-69867000D01*
X330312095Y-69867000D02*
X330359714Y-69914619D01*
X330359714Y-69914619D02*
X330407333Y-70009857D01*
X330407333Y-70009857D02*
X330407333Y-70152714D01*
X330407333Y-70152714D02*
X330359714Y-70247952D01*
X330359714Y-70247952D02*
X330312095Y-70295571D01*
X330312095Y-70295571D02*
X330216857Y-70343190D01*
X330216857Y-70343190D02*
X329835905Y-70343190D01*
X330740667Y-69819380D02*
X331407333Y-69819380D01*
X331407333Y-69819380D02*
X330978762Y-70819380D01*
%TO.C,R6*%
X330407333Y-67869380D02*
X330074000Y-67393190D01*
X329835905Y-67869380D02*
X329835905Y-66869380D01*
X329835905Y-66869380D02*
X330216857Y-66869380D01*
X330216857Y-66869380D02*
X330312095Y-66917000D01*
X330312095Y-66917000D02*
X330359714Y-66964619D01*
X330359714Y-66964619D02*
X330407333Y-67059857D01*
X330407333Y-67059857D02*
X330407333Y-67202714D01*
X330407333Y-67202714D02*
X330359714Y-67297952D01*
X330359714Y-67297952D02*
X330312095Y-67345571D01*
X330312095Y-67345571D02*
X330216857Y-67393190D01*
X330216857Y-67393190D02*
X329835905Y-67393190D01*
X331264476Y-66869380D02*
X331074000Y-66869380D01*
X331074000Y-66869380D02*
X330978762Y-66917000D01*
X330978762Y-66917000D02*
X330931143Y-66964619D01*
X330931143Y-66964619D02*
X330835905Y-67107476D01*
X330835905Y-67107476D02*
X330788286Y-67297952D01*
X330788286Y-67297952D02*
X330788286Y-67678904D01*
X330788286Y-67678904D02*
X330835905Y-67774142D01*
X330835905Y-67774142D02*
X330883524Y-67821761D01*
X330883524Y-67821761D02*
X330978762Y-67869380D01*
X330978762Y-67869380D02*
X331169238Y-67869380D01*
X331169238Y-67869380D02*
X331264476Y-67821761D01*
X331264476Y-67821761D02*
X331312095Y-67774142D01*
X331312095Y-67774142D02*
X331359714Y-67678904D01*
X331359714Y-67678904D02*
X331359714Y-67440809D01*
X331359714Y-67440809D02*
X331312095Y-67345571D01*
X331312095Y-67345571D02*
X331264476Y-67297952D01*
X331264476Y-67297952D02*
X331169238Y-67250333D01*
X331169238Y-67250333D02*
X330978762Y-67250333D01*
X330978762Y-67250333D02*
X330883524Y-67297952D01*
X330883524Y-67297952D02*
X330835905Y-67345571D01*
X330835905Y-67345571D02*
X330788286Y-67440809D01*
%TO.C,R5*%
X330407333Y-64919380D02*
X330074000Y-64443190D01*
X329835905Y-64919380D02*
X329835905Y-63919380D01*
X329835905Y-63919380D02*
X330216857Y-63919380D01*
X330216857Y-63919380D02*
X330312095Y-63967000D01*
X330312095Y-63967000D02*
X330359714Y-64014619D01*
X330359714Y-64014619D02*
X330407333Y-64109857D01*
X330407333Y-64109857D02*
X330407333Y-64252714D01*
X330407333Y-64252714D02*
X330359714Y-64347952D01*
X330359714Y-64347952D02*
X330312095Y-64395571D01*
X330312095Y-64395571D02*
X330216857Y-64443190D01*
X330216857Y-64443190D02*
X329835905Y-64443190D01*
X331312095Y-63919380D02*
X330835905Y-63919380D01*
X330835905Y-63919380D02*
X330788286Y-64395571D01*
X330788286Y-64395571D02*
X330835905Y-64347952D01*
X330835905Y-64347952D02*
X330931143Y-64300333D01*
X330931143Y-64300333D02*
X331169238Y-64300333D01*
X331169238Y-64300333D02*
X331264476Y-64347952D01*
X331264476Y-64347952D02*
X331312095Y-64395571D01*
X331312095Y-64395571D02*
X331359714Y-64490809D01*
X331359714Y-64490809D02*
X331359714Y-64728904D01*
X331359714Y-64728904D02*
X331312095Y-64824142D01*
X331312095Y-64824142D02*
X331264476Y-64871761D01*
X331264476Y-64871761D02*
X331169238Y-64919380D01*
X331169238Y-64919380D02*
X330931143Y-64919380D01*
X330931143Y-64919380D02*
X330835905Y-64871761D01*
X330835905Y-64871761D02*
X330788286Y-64824142D01*
%TO.C,R4*%
X330407333Y-61969380D02*
X330074000Y-61493190D01*
X329835905Y-61969380D02*
X329835905Y-60969380D01*
X329835905Y-60969380D02*
X330216857Y-60969380D01*
X330216857Y-60969380D02*
X330312095Y-61017000D01*
X330312095Y-61017000D02*
X330359714Y-61064619D01*
X330359714Y-61064619D02*
X330407333Y-61159857D01*
X330407333Y-61159857D02*
X330407333Y-61302714D01*
X330407333Y-61302714D02*
X330359714Y-61397952D01*
X330359714Y-61397952D02*
X330312095Y-61445571D01*
X330312095Y-61445571D02*
X330216857Y-61493190D01*
X330216857Y-61493190D02*
X329835905Y-61493190D01*
X331264476Y-61302714D02*
X331264476Y-61969380D01*
X331026381Y-60921761D02*
X330788286Y-61636047D01*
X330788286Y-61636047D02*
X331407333Y-61636047D01*
%TO.C,R3*%
X330407333Y-59019380D02*
X330074000Y-58543190D01*
X329835905Y-59019380D02*
X329835905Y-58019380D01*
X329835905Y-58019380D02*
X330216857Y-58019380D01*
X330216857Y-58019380D02*
X330312095Y-58067000D01*
X330312095Y-58067000D02*
X330359714Y-58114619D01*
X330359714Y-58114619D02*
X330407333Y-58209857D01*
X330407333Y-58209857D02*
X330407333Y-58352714D01*
X330407333Y-58352714D02*
X330359714Y-58447952D01*
X330359714Y-58447952D02*
X330312095Y-58495571D01*
X330312095Y-58495571D02*
X330216857Y-58543190D01*
X330216857Y-58543190D02*
X329835905Y-58543190D01*
X330740667Y-58019380D02*
X331359714Y-58019380D01*
X331359714Y-58019380D02*
X331026381Y-58400333D01*
X331026381Y-58400333D02*
X331169238Y-58400333D01*
X331169238Y-58400333D02*
X331264476Y-58447952D01*
X331264476Y-58447952D02*
X331312095Y-58495571D01*
X331312095Y-58495571D02*
X331359714Y-58590809D01*
X331359714Y-58590809D02*
X331359714Y-58828904D01*
X331359714Y-58828904D02*
X331312095Y-58924142D01*
X331312095Y-58924142D02*
X331264476Y-58971761D01*
X331264476Y-58971761D02*
X331169238Y-59019380D01*
X331169238Y-59019380D02*
X330883524Y-59019380D01*
X330883524Y-59019380D02*
X330788286Y-58971761D01*
X330788286Y-58971761D02*
X330740667Y-58924142D01*
%TO.C,R2*%
X330407333Y-56069380D02*
X330074000Y-55593190D01*
X329835905Y-56069380D02*
X329835905Y-55069380D01*
X329835905Y-55069380D02*
X330216857Y-55069380D01*
X330216857Y-55069380D02*
X330312095Y-55117000D01*
X330312095Y-55117000D02*
X330359714Y-55164619D01*
X330359714Y-55164619D02*
X330407333Y-55259857D01*
X330407333Y-55259857D02*
X330407333Y-55402714D01*
X330407333Y-55402714D02*
X330359714Y-55497952D01*
X330359714Y-55497952D02*
X330312095Y-55545571D01*
X330312095Y-55545571D02*
X330216857Y-55593190D01*
X330216857Y-55593190D02*
X329835905Y-55593190D01*
X330788286Y-55164619D02*
X330835905Y-55117000D01*
X330835905Y-55117000D02*
X330931143Y-55069380D01*
X330931143Y-55069380D02*
X331169238Y-55069380D01*
X331169238Y-55069380D02*
X331264476Y-55117000D01*
X331264476Y-55117000D02*
X331312095Y-55164619D01*
X331312095Y-55164619D02*
X331359714Y-55259857D01*
X331359714Y-55259857D02*
X331359714Y-55355095D01*
X331359714Y-55355095D02*
X331312095Y-55497952D01*
X331312095Y-55497952D02*
X330740667Y-56069380D01*
X330740667Y-56069380D02*
X331359714Y-56069380D01*
%TO.C,R1*%
X330407333Y-53119380D02*
X330074000Y-52643190D01*
X329835905Y-53119380D02*
X329835905Y-52119380D01*
X329835905Y-52119380D02*
X330216857Y-52119380D01*
X330216857Y-52119380D02*
X330312095Y-52167000D01*
X330312095Y-52167000D02*
X330359714Y-52214619D01*
X330359714Y-52214619D02*
X330407333Y-52309857D01*
X330407333Y-52309857D02*
X330407333Y-52452714D01*
X330407333Y-52452714D02*
X330359714Y-52547952D01*
X330359714Y-52547952D02*
X330312095Y-52595571D01*
X330312095Y-52595571D02*
X330216857Y-52643190D01*
X330216857Y-52643190D02*
X329835905Y-52643190D01*
X331359714Y-53119380D02*
X330788286Y-53119380D01*
X331074000Y-53119380D02*
X331074000Y-52119380D01*
X331074000Y-52119380D02*
X330978762Y-52262238D01*
X330978762Y-52262238D02*
X330883524Y-52357476D01*
X330883524Y-52357476D02*
X330788286Y-52405095D01*
%TO.C,D6*%
X356190905Y-118449380D02*
X356190905Y-117449380D01*
X356190905Y-117449380D02*
X356429000Y-117449380D01*
X356429000Y-117449380D02*
X356571857Y-117497000D01*
X356571857Y-117497000D02*
X356667095Y-117592238D01*
X356667095Y-117592238D02*
X356714714Y-117687476D01*
X356714714Y-117687476D02*
X356762333Y-117877952D01*
X356762333Y-117877952D02*
X356762333Y-118020809D01*
X356762333Y-118020809D02*
X356714714Y-118211285D01*
X356714714Y-118211285D02*
X356667095Y-118306523D01*
X356667095Y-118306523D02*
X356571857Y-118401761D01*
X356571857Y-118401761D02*
X356429000Y-118449380D01*
X356429000Y-118449380D02*
X356190905Y-118449380D01*
X357619476Y-117449380D02*
X357429000Y-117449380D01*
X357429000Y-117449380D02*
X357333762Y-117497000D01*
X357333762Y-117497000D02*
X357286143Y-117544619D01*
X357286143Y-117544619D02*
X357190905Y-117687476D01*
X357190905Y-117687476D02*
X357143286Y-117877952D01*
X357143286Y-117877952D02*
X357143286Y-118258904D01*
X357143286Y-118258904D02*
X357190905Y-118354142D01*
X357190905Y-118354142D02*
X357238524Y-118401761D01*
X357238524Y-118401761D02*
X357333762Y-118449380D01*
X357333762Y-118449380D02*
X357524238Y-118449380D01*
X357524238Y-118449380D02*
X357619476Y-118401761D01*
X357619476Y-118401761D02*
X357667095Y-118354142D01*
X357667095Y-118354142D02*
X357714714Y-118258904D01*
X357714714Y-118258904D02*
X357714714Y-118020809D01*
X357714714Y-118020809D02*
X357667095Y-117925571D01*
X357667095Y-117925571D02*
X357619476Y-117877952D01*
X357619476Y-117877952D02*
X357524238Y-117830333D01*
X357524238Y-117830333D02*
X357333762Y-117830333D01*
X357333762Y-117830333D02*
X357238524Y-117877952D01*
X357238524Y-117877952D02*
X357190905Y-117925571D01*
X357190905Y-117925571D02*
X357143286Y-118020809D01*
%TO.C,D5*%
X356190905Y-115599380D02*
X356190905Y-114599380D01*
X356190905Y-114599380D02*
X356429000Y-114599380D01*
X356429000Y-114599380D02*
X356571857Y-114647000D01*
X356571857Y-114647000D02*
X356667095Y-114742238D01*
X356667095Y-114742238D02*
X356714714Y-114837476D01*
X356714714Y-114837476D02*
X356762333Y-115027952D01*
X356762333Y-115027952D02*
X356762333Y-115170809D01*
X356762333Y-115170809D02*
X356714714Y-115361285D01*
X356714714Y-115361285D02*
X356667095Y-115456523D01*
X356667095Y-115456523D02*
X356571857Y-115551761D01*
X356571857Y-115551761D02*
X356429000Y-115599380D01*
X356429000Y-115599380D02*
X356190905Y-115599380D01*
X357667095Y-114599380D02*
X357190905Y-114599380D01*
X357190905Y-114599380D02*
X357143286Y-115075571D01*
X357143286Y-115075571D02*
X357190905Y-115027952D01*
X357190905Y-115027952D02*
X357286143Y-114980333D01*
X357286143Y-114980333D02*
X357524238Y-114980333D01*
X357524238Y-114980333D02*
X357619476Y-115027952D01*
X357619476Y-115027952D02*
X357667095Y-115075571D01*
X357667095Y-115075571D02*
X357714714Y-115170809D01*
X357714714Y-115170809D02*
X357714714Y-115408904D01*
X357714714Y-115408904D02*
X357667095Y-115504142D01*
X357667095Y-115504142D02*
X357619476Y-115551761D01*
X357619476Y-115551761D02*
X357524238Y-115599380D01*
X357524238Y-115599380D02*
X357286143Y-115599380D01*
X357286143Y-115599380D02*
X357190905Y-115551761D01*
X357190905Y-115551761D02*
X357143286Y-115504142D01*
%TO.C,D4*%
X356190905Y-112749380D02*
X356190905Y-111749380D01*
X356190905Y-111749380D02*
X356429000Y-111749380D01*
X356429000Y-111749380D02*
X356571857Y-111797000D01*
X356571857Y-111797000D02*
X356667095Y-111892238D01*
X356667095Y-111892238D02*
X356714714Y-111987476D01*
X356714714Y-111987476D02*
X356762333Y-112177952D01*
X356762333Y-112177952D02*
X356762333Y-112320809D01*
X356762333Y-112320809D02*
X356714714Y-112511285D01*
X356714714Y-112511285D02*
X356667095Y-112606523D01*
X356667095Y-112606523D02*
X356571857Y-112701761D01*
X356571857Y-112701761D02*
X356429000Y-112749380D01*
X356429000Y-112749380D02*
X356190905Y-112749380D01*
X357619476Y-112082714D02*
X357619476Y-112749380D01*
X357381381Y-111701761D02*
X357143286Y-112416047D01*
X357143286Y-112416047D02*
X357762333Y-112416047D01*
%TO.C,D3*%
X356190905Y-109899380D02*
X356190905Y-108899380D01*
X356190905Y-108899380D02*
X356429000Y-108899380D01*
X356429000Y-108899380D02*
X356571857Y-108947000D01*
X356571857Y-108947000D02*
X356667095Y-109042238D01*
X356667095Y-109042238D02*
X356714714Y-109137476D01*
X356714714Y-109137476D02*
X356762333Y-109327952D01*
X356762333Y-109327952D02*
X356762333Y-109470809D01*
X356762333Y-109470809D02*
X356714714Y-109661285D01*
X356714714Y-109661285D02*
X356667095Y-109756523D01*
X356667095Y-109756523D02*
X356571857Y-109851761D01*
X356571857Y-109851761D02*
X356429000Y-109899380D01*
X356429000Y-109899380D02*
X356190905Y-109899380D01*
X357095667Y-108899380D02*
X357714714Y-108899380D01*
X357714714Y-108899380D02*
X357381381Y-109280333D01*
X357381381Y-109280333D02*
X357524238Y-109280333D01*
X357524238Y-109280333D02*
X357619476Y-109327952D01*
X357619476Y-109327952D02*
X357667095Y-109375571D01*
X357667095Y-109375571D02*
X357714714Y-109470809D01*
X357714714Y-109470809D02*
X357714714Y-109708904D01*
X357714714Y-109708904D02*
X357667095Y-109804142D01*
X357667095Y-109804142D02*
X357619476Y-109851761D01*
X357619476Y-109851761D02*
X357524238Y-109899380D01*
X357524238Y-109899380D02*
X357238524Y-109899380D01*
X357238524Y-109899380D02*
X357143286Y-109851761D01*
X357143286Y-109851761D02*
X357095667Y-109804142D01*
%TO.C,D2*%
X356190905Y-107049380D02*
X356190905Y-106049380D01*
X356190905Y-106049380D02*
X356429000Y-106049380D01*
X356429000Y-106049380D02*
X356571857Y-106097000D01*
X356571857Y-106097000D02*
X356667095Y-106192238D01*
X356667095Y-106192238D02*
X356714714Y-106287476D01*
X356714714Y-106287476D02*
X356762333Y-106477952D01*
X356762333Y-106477952D02*
X356762333Y-106620809D01*
X356762333Y-106620809D02*
X356714714Y-106811285D01*
X356714714Y-106811285D02*
X356667095Y-106906523D01*
X356667095Y-106906523D02*
X356571857Y-107001761D01*
X356571857Y-107001761D02*
X356429000Y-107049380D01*
X356429000Y-107049380D02*
X356190905Y-107049380D01*
X357143286Y-106144619D02*
X357190905Y-106097000D01*
X357190905Y-106097000D02*
X357286143Y-106049380D01*
X357286143Y-106049380D02*
X357524238Y-106049380D01*
X357524238Y-106049380D02*
X357619476Y-106097000D01*
X357619476Y-106097000D02*
X357667095Y-106144619D01*
X357667095Y-106144619D02*
X357714714Y-106239857D01*
X357714714Y-106239857D02*
X357714714Y-106335095D01*
X357714714Y-106335095D02*
X357667095Y-106477952D01*
X357667095Y-106477952D02*
X357095667Y-107049380D01*
X357095667Y-107049380D02*
X357714714Y-107049380D01*
%TO.C,D1*%
X356190905Y-104199380D02*
X356190905Y-103199380D01*
X356190905Y-103199380D02*
X356429000Y-103199380D01*
X356429000Y-103199380D02*
X356571857Y-103247000D01*
X356571857Y-103247000D02*
X356667095Y-103342238D01*
X356667095Y-103342238D02*
X356714714Y-103437476D01*
X356714714Y-103437476D02*
X356762333Y-103627952D01*
X356762333Y-103627952D02*
X356762333Y-103770809D01*
X356762333Y-103770809D02*
X356714714Y-103961285D01*
X356714714Y-103961285D02*
X356667095Y-104056523D01*
X356667095Y-104056523D02*
X356571857Y-104151761D01*
X356571857Y-104151761D02*
X356429000Y-104199380D01*
X356429000Y-104199380D02*
X356190905Y-104199380D01*
X357714714Y-104199380D02*
X357143286Y-104199380D01*
X357429000Y-104199380D02*
X357429000Y-103199380D01*
X357429000Y-103199380D02*
X357333762Y-103342238D01*
X357333762Y-103342238D02*
X357238524Y-103437476D01*
X357238524Y-103437476D02*
X357143286Y-103485095D01*
%TO.C,C30*%
X356491142Y-71084142D02*
X356443523Y-71131761D01*
X356443523Y-71131761D02*
X356300666Y-71179380D01*
X356300666Y-71179380D02*
X356205428Y-71179380D01*
X356205428Y-71179380D02*
X356062571Y-71131761D01*
X356062571Y-71131761D02*
X355967333Y-71036523D01*
X355967333Y-71036523D02*
X355919714Y-70941285D01*
X355919714Y-70941285D02*
X355872095Y-70750809D01*
X355872095Y-70750809D02*
X355872095Y-70607952D01*
X355872095Y-70607952D02*
X355919714Y-70417476D01*
X355919714Y-70417476D02*
X355967333Y-70322238D01*
X355967333Y-70322238D02*
X356062571Y-70227000D01*
X356062571Y-70227000D02*
X356205428Y-70179380D01*
X356205428Y-70179380D02*
X356300666Y-70179380D01*
X356300666Y-70179380D02*
X356443523Y-70227000D01*
X356443523Y-70227000D02*
X356491142Y-70274619D01*
X356824476Y-70179380D02*
X357443523Y-70179380D01*
X357443523Y-70179380D02*
X357110190Y-70560333D01*
X357110190Y-70560333D02*
X357253047Y-70560333D01*
X357253047Y-70560333D02*
X357348285Y-70607952D01*
X357348285Y-70607952D02*
X357395904Y-70655571D01*
X357395904Y-70655571D02*
X357443523Y-70750809D01*
X357443523Y-70750809D02*
X357443523Y-70988904D01*
X357443523Y-70988904D02*
X357395904Y-71084142D01*
X357395904Y-71084142D02*
X357348285Y-71131761D01*
X357348285Y-71131761D02*
X357253047Y-71179380D01*
X357253047Y-71179380D02*
X356967333Y-71179380D01*
X356967333Y-71179380D02*
X356872095Y-71131761D01*
X356872095Y-71131761D02*
X356824476Y-71084142D01*
X358062571Y-70179380D02*
X358157809Y-70179380D01*
X358157809Y-70179380D02*
X358253047Y-70227000D01*
X358253047Y-70227000D02*
X358300666Y-70274619D01*
X358300666Y-70274619D02*
X358348285Y-70369857D01*
X358348285Y-70369857D02*
X358395904Y-70560333D01*
X358395904Y-70560333D02*
X358395904Y-70798428D01*
X358395904Y-70798428D02*
X358348285Y-70988904D01*
X358348285Y-70988904D02*
X358300666Y-71084142D01*
X358300666Y-71084142D02*
X358253047Y-71131761D01*
X358253047Y-71131761D02*
X358157809Y-71179380D01*
X358157809Y-71179380D02*
X358062571Y-71179380D01*
X358062571Y-71179380D02*
X357967333Y-71131761D01*
X357967333Y-71131761D02*
X357919714Y-71084142D01*
X357919714Y-71084142D02*
X357872095Y-70988904D01*
X357872095Y-70988904D02*
X357824476Y-70798428D01*
X357824476Y-70798428D02*
X357824476Y-70560333D01*
X357824476Y-70560333D02*
X357872095Y-70369857D01*
X357872095Y-70369857D02*
X357919714Y-70274619D01*
X357919714Y-70274619D02*
X357967333Y-70227000D01*
X357967333Y-70227000D02*
X358062571Y-70179380D01*
%TO.C,C29*%
X356491142Y-68074142D02*
X356443523Y-68121761D01*
X356443523Y-68121761D02*
X356300666Y-68169380D01*
X356300666Y-68169380D02*
X356205428Y-68169380D01*
X356205428Y-68169380D02*
X356062571Y-68121761D01*
X356062571Y-68121761D02*
X355967333Y-68026523D01*
X355967333Y-68026523D02*
X355919714Y-67931285D01*
X355919714Y-67931285D02*
X355872095Y-67740809D01*
X355872095Y-67740809D02*
X355872095Y-67597952D01*
X355872095Y-67597952D02*
X355919714Y-67407476D01*
X355919714Y-67407476D02*
X355967333Y-67312238D01*
X355967333Y-67312238D02*
X356062571Y-67217000D01*
X356062571Y-67217000D02*
X356205428Y-67169380D01*
X356205428Y-67169380D02*
X356300666Y-67169380D01*
X356300666Y-67169380D02*
X356443523Y-67217000D01*
X356443523Y-67217000D02*
X356491142Y-67264619D01*
X356872095Y-67264619D02*
X356919714Y-67217000D01*
X356919714Y-67217000D02*
X357014952Y-67169380D01*
X357014952Y-67169380D02*
X357253047Y-67169380D01*
X357253047Y-67169380D02*
X357348285Y-67217000D01*
X357348285Y-67217000D02*
X357395904Y-67264619D01*
X357395904Y-67264619D02*
X357443523Y-67359857D01*
X357443523Y-67359857D02*
X357443523Y-67455095D01*
X357443523Y-67455095D02*
X357395904Y-67597952D01*
X357395904Y-67597952D02*
X356824476Y-68169380D01*
X356824476Y-68169380D02*
X357443523Y-68169380D01*
X357919714Y-68169380D02*
X358110190Y-68169380D01*
X358110190Y-68169380D02*
X358205428Y-68121761D01*
X358205428Y-68121761D02*
X358253047Y-68074142D01*
X358253047Y-68074142D02*
X358348285Y-67931285D01*
X358348285Y-67931285D02*
X358395904Y-67740809D01*
X358395904Y-67740809D02*
X358395904Y-67359857D01*
X358395904Y-67359857D02*
X358348285Y-67264619D01*
X358348285Y-67264619D02*
X358300666Y-67217000D01*
X358300666Y-67217000D02*
X358205428Y-67169380D01*
X358205428Y-67169380D02*
X358014952Y-67169380D01*
X358014952Y-67169380D02*
X357919714Y-67217000D01*
X357919714Y-67217000D02*
X357872095Y-67264619D01*
X357872095Y-67264619D02*
X357824476Y-67359857D01*
X357824476Y-67359857D02*
X357824476Y-67597952D01*
X357824476Y-67597952D02*
X357872095Y-67693190D01*
X357872095Y-67693190D02*
X357919714Y-67740809D01*
X357919714Y-67740809D02*
X358014952Y-67788428D01*
X358014952Y-67788428D02*
X358205428Y-67788428D01*
X358205428Y-67788428D02*
X358300666Y-67740809D01*
X358300666Y-67740809D02*
X358348285Y-67693190D01*
X358348285Y-67693190D02*
X358395904Y-67597952D01*
%TO.C,C28*%
X356491142Y-65064142D02*
X356443523Y-65111761D01*
X356443523Y-65111761D02*
X356300666Y-65159380D01*
X356300666Y-65159380D02*
X356205428Y-65159380D01*
X356205428Y-65159380D02*
X356062571Y-65111761D01*
X356062571Y-65111761D02*
X355967333Y-65016523D01*
X355967333Y-65016523D02*
X355919714Y-64921285D01*
X355919714Y-64921285D02*
X355872095Y-64730809D01*
X355872095Y-64730809D02*
X355872095Y-64587952D01*
X355872095Y-64587952D02*
X355919714Y-64397476D01*
X355919714Y-64397476D02*
X355967333Y-64302238D01*
X355967333Y-64302238D02*
X356062571Y-64207000D01*
X356062571Y-64207000D02*
X356205428Y-64159380D01*
X356205428Y-64159380D02*
X356300666Y-64159380D01*
X356300666Y-64159380D02*
X356443523Y-64207000D01*
X356443523Y-64207000D02*
X356491142Y-64254619D01*
X356872095Y-64254619D02*
X356919714Y-64207000D01*
X356919714Y-64207000D02*
X357014952Y-64159380D01*
X357014952Y-64159380D02*
X357253047Y-64159380D01*
X357253047Y-64159380D02*
X357348285Y-64207000D01*
X357348285Y-64207000D02*
X357395904Y-64254619D01*
X357395904Y-64254619D02*
X357443523Y-64349857D01*
X357443523Y-64349857D02*
X357443523Y-64445095D01*
X357443523Y-64445095D02*
X357395904Y-64587952D01*
X357395904Y-64587952D02*
X356824476Y-65159380D01*
X356824476Y-65159380D02*
X357443523Y-65159380D01*
X358014952Y-64587952D02*
X357919714Y-64540333D01*
X357919714Y-64540333D02*
X357872095Y-64492714D01*
X357872095Y-64492714D02*
X357824476Y-64397476D01*
X357824476Y-64397476D02*
X357824476Y-64349857D01*
X357824476Y-64349857D02*
X357872095Y-64254619D01*
X357872095Y-64254619D02*
X357919714Y-64207000D01*
X357919714Y-64207000D02*
X358014952Y-64159380D01*
X358014952Y-64159380D02*
X358205428Y-64159380D01*
X358205428Y-64159380D02*
X358300666Y-64207000D01*
X358300666Y-64207000D02*
X358348285Y-64254619D01*
X358348285Y-64254619D02*
X358395904Y-64349857D01*
X358395904Y-64349857D02*
X358395904Y-64397476D01*
X358395904Y-64397476D02*
X358348285Y-64492714D01*
X358348285Y-64492714D02*
X358300666Y-64540333D01*
X358300666Y-64540333D02*
X358205428Y-64587952D01*
X358205428Y-64587952D02*
X358014952Y-64587952D01*
X358014952Y-64587952D02*
X357919714Y-64635571D01*
X357919714Y-64635571D02*
X357872095Y-64683190D01*
X357872095Y-64683190D02*
X357824476Y-64778428D01*
X357824476Y-64778428D02*
X357824476Y-64968904D01*
X357824476Y-64968904D02*
X357872095Y-65064142D01*
X357872095Y-65064142D02*
X357919714Y-65111761D01*
X357919714Y-65111761D02*
X358014952Y-65159380D01*
X358014952Y-65159380D02*
X358205428Y-65159380D01*
X358205428Y-65159380D02*
X358300666Y-65111761D01*
X358300666Y-65111761D02*
X358348285Y-65064142D01*
X358348285Y-65064142D02*
X358395904Y-64968904D01*
X358395904Y-64968904D02*
X358395904Y-64778428D01*
X358395904Y-64778428D02*
X358348285Y-64683190D01*
X358348285Y-64683190D02*
X358300666Y-64635571D01*
X358300666Y-64635571D02*
X358205428Y-64587952D01*
%TO.C,C27*%
X356491142Y-62054142D02*
X356443523Y-62101761D01*
X356443523Y-62101761D02*
X356300666Y-62149380D01*
X356300666Y-62149380D02*
X356205428Y-62149380D01*
X356205428Y-62149380D02*
X356062571Y-62101761D01*
X356062571Y-62101761D02*
X355967333Y-62006523D01*
X355967333Y-62006523D02*
X355919714Y-61911285D01*
X355919714Y-61911285D02*
X355872095Y-61720809D01*
X355872095Y-61720809D02*
X355872095Y-61577952D01*
X355872095Y-61577952D02*
X355919714Y-61387476D01*
X355919714Y-61387476D02*
X355967333Y-61292238D01*
X355967333Y-61292238D02*
X356062571Y-61197000D01*
X356062571Y-61197000D02*
X356205428Y-61149380D01*
X356205428Y-61149380D02*
X356300666Y-61149380D01*
X356300666Y-61149380D02*
X356443523Y-61197000D01*
X356443523Y-61197000D02*
X356491142Y-61244619D01*
X356872095Y-61244619D02*
X356919714Y-61197000D01*
X356919714Y-61197000D02*
X357014952Y-61149380D01*
X357014952Y-61149380D02*
X357253047Y-61149380D01*
X357253047Y-61149380D02*
X357348285Y-61197000D01*
X357348285Y-61197000D02*
X357395904Y-61244619D01*
X357395904Y-61244619D02*
X357443523Y-61339857D01*
X357443523Y-61339857D02*
X357443523Y-61435095D01*
X357443523Y-61435095D02*
X357395904Y-61577952D01*
X357395904Y-61577952D02*
X356824476Y-62149380D01*
X356824476Y-62149380D02*
X357443523Y-62149380D01*
X357776857Y-61149380D02*
X358443523Y-61149380D01*
X358443523Y-61149380D02*
X358014952Y-62149380D01*
%TO.C,C26*%
X356491142Y-59044142D02*
X356443523Y-59091761D01*
X356443523Y-59091761D02*
X356300666Y-59139380D01*
X356300666Y-59139380D02*
X356205428Y-59139380D01*
X356205428Y-59139380D02*
X356062571Y-59091761D01*
X356062571Y-59091761D02*
X355967333Y-58996523D01*
X355967333Y-58996523D02*
X355919714Y-58901285D01*
X355919714Y-58901285D02*
X355872095Y-58710809D01*
X355872095Y-58710809D02*
X355872095Y-58567952D01*
X355872095Y-58567952D02*
X355919714Y-58377476D01*
X355919714Y-58377476D02*
X355967333Y-58282238D01*
X355967333Y-58282238D02*
X356062571Y-58187000D01*
X356062571Y-58187000D02*
X356205428Y-58139380D01*
X356205428Y-58139380D02*
X356300666Y-58139380D01*
X356300666Y-58139380D02*
X356443523Y-58187000D01*
X356443523Y-58187000D02*
X356491142Y-58234619D01*
X356872095Y-58234619D02*
X356919714Y-58187000D01*
X356919714Y-58187000D02*
X357014952Y-58139380D01*
X357014952Y-58139380D02*
X357253047Y-58139380D01*
X357253047Y-58139380D02*
X357348285Y-58187000D01*
X357348285Y-58187000D02*
X357395904Y-58234619D01*
X357395904Y-58234619D02*
X357443523Y-58329857D01*
X357443523Y-58329857D02*
X357443523Y-58425095D01*
X357443523Y-58425095D02*
X357395904Y-58567952D01*
X357395904Y-58567952D02*
X356824476Y-59139380D01*
X356824476Y-59139380D02*
X357443523Y-59139380D01*
X358300666Y-58139380D02*
X358110190Y-58139380D01*
X358110190Y-58139380D02*
X358014952Y-58187000D01*
X358014952Y-58187000D02*
X357967333Y-58234619D01*
X357967333Y-58234619D02*
X357872095Y-58377476D01*
X357872095Y-58377476D02*
X357824476Y-58567952D01*
X357824476Y-58567952D02*
X357824476Y-58948904D01*
X357824476Y-58948904D02*
X357872095Y-59044142D01*
X357872095Y-59044142D02*
X357919714Y-59091761D01*
X357919714Y-59091761D02*
X358014952Y-59139380D01*
X358014952Y-59139380D02*
X358205428Y-59139380D01*
X358205428Y-59139380D02*
X358300666Y-59091761D01*
X358300666Y-59091761D02*
X358348285Y-59044142D01*
X358348285Y-59044142D02*
X358395904Y-58948904D01*
X358395904Y-58948904D02*
X358395904Y-58710809D01*
X358395904Y-58710809D02*
X358348285Y-58615571D01*
X358348285Y-58615571D02*
X358300666Y-58567952D01*
X358300666Y-58567952D02*
X358205428Y-58520333D01*
X358205428Y-58520333D02*
X358014952Y-58520333D01*
X358014952Y-58520333D02*
X357919714Y-58567952D01*
X357919714Y-58567952D02*
X357872095Y-58615571D01*
X357872095Y-58615571D02*
X357824476Y-58710809D01*
%TO.C,C25*%
X356491142Y-56034142D02*
X356443523Y-56081761D01*
X356443523Y-56081761D02*
X356300666Y-56129380D01*
X356300666Y-56129380D02*
X356205428Y-56129380D01*
X356205428Y-56129380D02*
X356062571Y-56081761D01*
X356062571Y-56081761D02*
X355967333Y-55986523D01*
X355967333Y-55986523D02*
X355919714Y-55891285D01*
X355919714Y-55891285D02*
X355872095Y-55700809D01*
X355872095Y-55700809D02*
X355872095Y-55557952D01*
X355872095Y-55557952D02*
X355919714Y-55367476D01*
X355919714Y-55367476D02*
X355967333Y-55272238D01*
X355967333Y-55272238D02*
X356062571Y-55177000D01*
X356062571Y-55177000D02*
X356205428Y-55129380D01*
X356205428Y-55129380D02*
X356300666Y-55129380D01*
X356300666Y-55129380D02*
X356443523Y-55177000D01*
X356443523Y-55177000D02*
X356491142Y-55224619D01*
X356872095Y-55224619D02*
X356919714Y-55177000D01*
X356919714Y-55177000D02*
X357014952Y-55129380D01*
X357014952Y-55129380D02*
X357253047Y-55129380D01*
X357253047Y-55129380D02*
X357348285Y-55177000D01*
X357348285Y-55177000D02*
X357395904Y-55224619D01*
X357395904Y-55224619D02*
X357443523Y-55319857D01*
X357443523Y-55319857D02*
X357443523Y-55415095D01*
X357443523Y-55415095D02*
X357395904Y-55557952D01*
X357395904Y-55557952D02*
X356824476Y-56129380D01*
X356824476Y-56129380D02*
X357443523Y-56129380D01*
X358348285Y-55129380D02*
X357872095Y-55129380D01*
X357872095Y-55129380D02*
X357824476Y-55605571D01*
X357824476Y-55605571D02*
X357872095Y-55557952D01*
X357872095Y-55557952D02*
X357967333Y-55510333D01*
X357967333Y-55510333D02*
X358205428Y-55510333D01*
X358205428Y-55510333D02*
X358300666Y-55557952D01*
X358300666Y-55557952D02*
X358348285Y-55605571D01*
X358348285Y-55605571D02*
X358395904Y-55700809D01*
X358395904Y-55700809D02*
X358395904Y-55938904D01*
X358395904Y-55938904D02*
X358348285Y-56034142D01*
X358348285Y-56034142D02*
X358300666Y-56081761D01*
X358300666Y-56081761D02*
X358205428Y-56129380D01*
X358205428Y-56129380D02*
X357967333Y-56129380D01*
X357967333Y-56129380D02*
X357872095Y-56081761D01*
X357872095Y-56081761D02*
X357824476Y-56034142D01*
%TO.C,C24*%
X356491142Y-53024142D02*
X356443523Y-53071761D01*
X356443523Y-53071761D02*
X356300666Y-53119380D01*
X356300666Y-53119380D02*
X356205428Y-53119380D01*
X356205428Y-53119380D02*
X356062571Y-53071761D01*
X356062571Y-53071761D02*
X355967333Y-52976523D01*
X355967333Y-52976523D02*
X355919714Y-52881285D01*
X355919714Y-52881285D02*
X355872095Y-52690809D01*
X355872095Y-52690809D02*
X355872095Y-52547952D01*
X355872095Y-52547952D02*
X355919714Y-52357476D01*
X355919714Y-52357476D02*
X355967333Y-52262238D01*
X355967333Y-52262238D02*
X356062571Y-52167000D01*
X356062571Y-52167000D02*
X356205428Y-52119380D01*
X356205428Y-52119380D02*
X356300666Y-52119380D01*
X356300666Y-52119380D02*
X356443523Y-52167000D01*
X356443523Y-52167000D02*
X356491142Y-52214619D01*
X356872095Y-52214619D02*
X356919714Y-52167000D01*
X356919714Y-52167000D02*
X357014952Y-52119380D01*
X357014952Y-52119380D02*
X357253047Y-52119380D01*
X357253047Y-52119380D02*
X357348285Y-52167000D01*
X357348285Y-52167000D02*
X357395904Y-52214619D01*
X357395904Y-52214619D02*
X357443523Y-52309857D01*
X357443523Y-52309857D02*
X357443523Y-52405095D01*
X357443523Y-52405095D02*
X357395904Y-52547952D01*
X357395904Y-52547952D02*
X356824476Y-53119380D01*
X356824476Y-53119380D02*
X357443523Y-53119380D01*
X358300666Y-52452714D02*
X358300666Y-53119380D01*
X358062571Y-52071761D02*
X357824476Y-52786047D01*
X357824476Y-52786047D02*
X358443523Y-52786047D01*
%TO.C,C23*%
X352041142Y-71084142D02*
X351993523Y-71131761D01*
X351993523Y-71131761D02*
X351850666Y-71179380D01*
X351850666Y-71179380D02*
X351755428Y-71179380D01*
X351755428Y-71179380D02*
X351612571Y-71131761D01*
X351612571Y-71131761D02*
X351517333Y-71036523D01*
X351517333Y-71036523D02*
X351469714Y-70941285D01*
X351469714Y-70941285D02*
X351422095Y-70750809D01*
X351422095Y-70750809D02*
X351422095Y-70607952D01*
X351422095Y-70607952D02*
X351469714Y-70417476D01*
X351469714Y-70417476D02*
X351517333Y-70322238D01*
X351517333Y-70322238D02*
X351612571Y-70227000D01*
X351612571Y-70227000D02*
X351755428Y-70179380D01*
X351755428Y-70179380D02*
X351850666Y-70179380D01*
X351850666Y-70179380D02*
X351993523Y-70227000D01*
X351993523Y-70227000D02*
X352041142Y-70274619D01*
X352422095Y-70274619D02*
X352469714Y-70227000D01*
X352469714Y-70227000D02*
X352564952Y-70179380D01*
X352564952Y-70179380D02*
X352803047Y-70179380D01*
X352803047Y-70179380D02*
X352898285Y-70227000D01*
X352898285Y-70227000D02*
X352945904Y-70274619D01*
X352945904Y-70274619D02*
X352993523Y-70369857D01*
X352993523Y-70369857D02*
X352993523Y-70465095D01*
X352993523Y-70465095D02*
X352945904Y-70607952D01*
X352945904Y-70607952D02*
X352374476Y-71179380D01*
X352374476Y-71179380D02*
X352993523Y-71179380D01*
X353326857Y-70179380D02*
X353945904Y-70179380D01*
X353945904Y-70179380D02*
X353612571Y-70560333D01*
X353612571Y-70560333D02*
X353755428Y-70560333D01*
X353755428Y-70560333D02*
X353850666Y-70607952D01*
X353850666Y-70607952D02*
X353898285Y-70655571D01*
X353898285Y-70655571D02*
X353945904Y-70750809D01*
X353945904Y-70750809D02*
X353945904Y-70988904D01*
X353945904Y-70988904D02*
X353898285Y-71084142D01*
X353898285Y-71084142D02*
X353850666Y-71131761D01*
X353850666Y-71131761D02*
X353755428Y-71179380D01*
X353755428Y-71179380D02*
X353469714Y-71179380D01*
X353469714Y-71179380D02*
X353374476Y-71131761D01*
X353374476Y-71131761D02*
X353326857Y-71084142D01*
%TO.C,C22*%
X352041142Y-68074142D02*
X351993523Y-68121761D01*
X351993523Y-68121761D02*
X351850666Y-68169380D01*
X351850666Y-68169380D02*
X351755428Y-68169380D01*
X351755428Y-68169380D02*
X351612571Y-68121761D01*
X351612571Y-68121761D02*
X351517333Y-68026523D01*
X351517333Y-68026523D02*
X351469714Y-67931285D01*
X351469714Y-67931285D02*
X351422095Y-67740809D01*
X351422095Y-67740809D02*
X351422095Y-67597952D01*
X351422095Y-67597952D02*
X351469714Y-67407476D01*
X351469714Y-67407476D02*
X351517333Y-67312238D01*
X351517333Y-67312238D02*
X351612571Y-67217000D01*
X351612571Y-67217000D02*
X351755428Y-67169380D01*
X351755428Y-67169380D02*
X351850666Y-67169380D01*
X351850666Y-67169380D02*
X351993523Y-67217000D01*
X351993523Y-67217000D02*
X352041142Y-67264619D01*
X352422095Y-67264619D02*
X352469714Y-67217000D01*
X352469714Y-67217000D02*
X352564952Y-67169380D01*
X352564952Y-67169380D02*
X352803047Y-67169380D01*
X352803047Y-67169380D02*
X352898285Y-67217000D01*
X352898285Y-67217000D02*
X352945904Y-67264619D01*
X352945904Y-67264619D02*
X352993523Y-67359857D01*
X352993523Y-67359857D02*
X352993523Y-67455095D01*
X352993523Y-67455095D02*
X352945904Y-67597952D01*
X352945904Y-67597952D02*
X352374476Y-68169380D01*
X352374476Y-68169380D02*
X352993523Y-68169380D01*
X353374476Y-67264619D02*
X353422095Y-67217000D01*
X353422095Y-67217000D02*
X353517333Y-67169380D01*
X353517333Y-67169380D02*
X353755428Y-67169380D01*
X353755428Y-67169380D02*
X353850666Y-67217000D01*
X353850666Y-67217000D02*
X353898285Y-67264619D01*
X353898285Y-67264619D02*
X353945904Y-67359857D01*
X353945904Y-67359857D02*
X353945904Y-67455095D01*
X353945904Y-67455095D02*
X353898285Y-67597952D01*
X353898285Y-67597952D02*
X353326857Y-68169380D01*
X353326857Y-68169380D02*
X353945904Y-68169380D01*
%TO.C,C21*%
X352041142Y-65064142D02*
X351993523Y-65111761D01*
X351993523Y-65111761D02*
X351850666Y-65159380D01*
X351850666Y-65159380D02*
X351755428Y-65159380D01*
X351755428Y-65159380D02*
X351612571Y-65111761D01*
X351612571Y-65111761D02*
X351517333Y-65016523D01*
X351517333Y-65016523D02*
X351469714Y-64921285D01*
X351469714Y-64921285D02*
X351422095Y-64730809D01*
X351422095Y-64730809D02*
X351422095Y-64587952D01*
X351422095Y-64587952D02*
X351469714Y-64397476D01*
X351469714Y-64397476D02*
X351517333Y-64302238D01*
X351517333Y-64302238D02*
X351612571Y-64207000D01*
X351612571Y-64207000D02*
X351755428Y-64159380D01*
X351755428Y-64159380D02*
X351850666Y-64159380D01*
X351850666Y-64159380D02*
X351993523Y-64207000D01*
X351993523Y-64207000D02*
X352041142Y-64254619D01*
X352422095Y-64254619D02*
X352469714Y-64207000D01*
X352469714Y-64207000D02*
X352564952Y-64159380D01*
X352564952Y-64159380D02*
X352803047Y-64159380D01*
X352803047Y-64159380D02*
X352898285Y-64207000D01*
X352898285Y-64207000D02*
X352945904Y-64254619D01*
X352945904Y-64254619D02*
X352993523Y-64349857D01*
X352993523Y-64349857D02*
X352993523Y-64445095D01*
X352993523Y-64445095D02*
X352945904Y-64587952D01*
X352945904Y-64587952D02*
X352374476Y-65159380D01*
X352374476Y-65159380D02*
X352993523Y-65159380D01*
X353945904Y-65159380D02*
X353374476Y-65159380D01*
X353660190Y-65159380D02*
X353660190Y-64159380D01*
X353660190Y-64159380D02*
X353564952Y-64302238D01*
X353564952Y-64302238D02*
X353469714Y-64397476D01*
X353469714Y-64397476D02*
X353374476Y-64445095D01*
%TO.C,C20*%
X352041142Y-62054142D02*
X351993523Y-62101761D01*
X351993523Y-62101761D02*
X351850666Y-62149380D01*
X351850666Y-62149380D02*
X351755428Y-62149380D01*
X351755428Y-62149380D02*
X351612571Y-62101761D01*
X351612571Y-62101761D02*
X351517333Y-62006523D01*
X351517333Y-62006523D02*
X351469714Y-61911285D01*
X351469714Y-61911285D02*
X351422095Y-61720809D01*
X351422095Y-61720809D02*
X351422095Y-61577952D01*
X351422095Y-61577952D02*
X351469714Y-61387476D01*
X351469714Y-61387476D02*
X351517333Y-61292238D01*
X351517333Y-61292238D02*
X351612571Y-61197000D01*
X351612571Y-61197000D02*
X351755428Y-61149380D01*
X351755428Y-61149380D02*
X351850666Y-61149380D01*
X351850666Y-61149380D02*
X351993523Y-61197000D01*
X351993523Y-61197000D02*
X352041142Y-61244619D01*
X352422095Y-61244619D02*
X352469714Y-61197000D01*
X352469714Y-61197000D02*
X352564952Y-61149380D01*
X352564952Y-61149380D02*
X352803047Y-61149380D01*
X352803047Y-61149380D02*
X352898285Y-61197000D01*
X352898285Y-61197000D02*
X352945904Y-61244619D01*
X352945904Y-61244619D02*
X352993523Y-61339857D01*
X352993523Y-61339857D02*
X352993523Y-61435095D01*
X352993523Y-61435095D02*
X352945904Y-61577952D01*
X352945904Y-61577952D02*
X352374476Y-62149380D01*
X352374476Y-62149380D02*
X352993523Y-62149380D01*
X353612571Y-61149380D02*
X353707809Y-61149380D01*
X353707809Y-61149380D02*
X353803047Y-61197000D01*
X353803047Y-61197000D02*
X353850666Y-61244619D01*
X353850666Y-61244619D02*
X353898285Y-61339857D01*
X353898285Y-61339857D02*
X353945904Y-61530333D01*
X353945904Y-61530333D02*
X353945904Y-61768428D01*
X353945904Y-61768428D02*
X353898285Y-61958904D01*
X353898285Y-61958904D02*
X353850666Y-62054142D01*
X353850666Y-62054142D02*
X353803047Y-62101761D01*
X353803047Y-62101761D02*
X353707809Y-62149380D01*
X353707809Y-62149380D02*
X353612571Y-62149380D01*
X353612571Y-62149380D02*
X353517333Y-62101761D01*
X353517333Y-62101761D02*
X353469714Y-62054142D01*
X353469714Y-62054142D02*
X353422095Y-61958904D01*
X353422095Y-61958904D02*
X353374476Y-61768428D01*
X353374476Y-61768428D02*
X353374476Y-61530333D01*
X353374476Y-61530333D02*
X353422095Y-61339857D01*
X353422095Y-61339857D02*
X353469714Y-61244619D01*
X353469714Y-61244619D02*
X353517333Y-61197000D01*
X353517333Y-61197000D02*
X353612571Y-61149380D01*
%TO.C,C19*%
X352041142Y-59044142D02*
X351993523Y-59091761D01*
X351993523Y-59091761D02*
X351850666Y-59139380D01*
X351850666Y-59139380D02*
X351755428Y-59139380D01*
X351755428Y-59139380D02*
X351612571Y-59091761D01*
X351612571Y-59091761D02*
X351517333Y-58996523D01*
X351517333Y-58996523D02*
X351469714Y-58901285D01*
X351469714Y-58901285D02*
X351422095Y-58710809D01*
X351422095Y-58710809D02*
X351422095Y-58567952D01*
X351422095Y-58567952D02*
X351469714Y-58377476D01*
X351469714Y-58377476D02*
X351517333Y-58282238D01*
X351517333Y-58282238D02*
X351612571Y-58187000D01*
X351612571Y-58187000D02*
X351755428Y-58139380D01*
X351755428Y-58139380D02*
X351850666Y-58139380D01*
X351850666Y-58139380D02*
X351993523Y-58187000D01*
X351993523Y-58187000D02*
X352041142Y-58234619D01*
X352993523Y-59139380D02*
X352422095Y-59139380D01*
X352707809Y-59139380D02*
X352707809Y-58139380D01*
X352707809Y-58139380D02*
X352612571Y-58282238D01*
X352612571Y-58282238D02*
X352517333Y-58377476D01*
X352517333Y-58377476D02*
X352422095Y-58425095D01*
X353469714Y-59139380D02*
X353660190Y-59139380D01*
X353660190Y-59139380D02*
X353755428Y-59091761D01*
X353755428Y-59091761D02*
X353803047Y-59044142D01*
X353803047Y-59044142D02*
X353898285Y-58901285D01*
X353898285Y-58901285D02*
X353945904Y-58710809D01*
X353945904Y-58710809D02*
X353945904Y-58329857D01*
X353945904Y-58329857D02*
X353898285Y-58234619D01*
X353898285Y-58234619D02*
X353850666Y-58187000D01*
X353850666Y-58187000D02*
X353755428Y-58139380D01*
X353755428Y-58139380D02*
X353564952Y-58139380D01*
X353564952Y-58139380D02*
X353469714Y-58187000D01*
X353469714Y-58187000D02*
X353422095Y-58234619D01*
X353422095Y-58234619D02*
X353374476Y-58329857D01*
X353374476Y-58329857D02*
X353374476Y-58567952D01*
X353374476Y-58567952D02*
X353422095Y-58663190D01*
X353422095Y-58663190D02*
X353469714Y-58710809D01*
X353469714Y-58710809D02*
X353564952Y-58758428D01*
X353564952Y-58758428D02*
X353755428Y-58758428D01*
X353755428Y-58758428D02*
X353850666Y-58710809D01*
X353850666Y-58710809D02*
X353898285Y-58663190D01*
X353898285Y-58663190D02*
X353945904Y-58567952D01*
%TO.C,C18*%
X352041142Y-56034142D02*
X351993523Y-56081761D01*
X351993523Y-56081761D02*
X351850666Y-56129380D01*
X351850666Y-56129380D02*
X351755428Y-56129380D01*
X351755428Y-56129380D02*
X351612571Y-56081761D01*
X351612571Y-56081761D02*
X351517333Y-55986523D01*
X351517333Y-55986523D02*
X351469714Y-55891285D01*
X351469714Y-55891285D02*
X351422095Y-55700809D01*
X351422095Y-55700809D02*
X351422095Y-55557952D01*
X351422095Y-55557952D02*
X351469714Y-55367476D01*
X351469714Y-55367476D02*
X351517333Y-55272238D01*
X351517333Y-55272238D02*
X351612571Y-55177000D01*
X351612571Y-55177000D02*
X351755428Y-55129380D01*
X351755428Y-55129380D02*
X351850666Y-55129380D01*
X351850666Y-55129380D02*
X351993523Y-55177000D01*
X351993523Y-55177000D02*
X352041142Y-55224619D01*
X352993523Y-56129380D02*
X352422095Y-56129380D01*
X352707809Y-56129380D02*
X352707809Y-55129380D01*
X352707809Y-55129380D02*
X352612571Y-55272238D01*
X352612571Y-55272238D02*
X352517333Y-55367476D01*
X352517333Y-55367476D02*
X352422095Y-55415095D01*
X353564952Y-55557952D02*
X353469714Y-55510333D01*
X353469714Y-55510333D02*
X353422095Y-55462714D01*
X353422095Y-55462714D02*
X353374476Y-55367476D01*
X353374476Y-55367476D02*
X353374476Y-55319857D01*
X353374476Y-55319857D02*
X353422095Y-55224619D01*
X353422095Y-55224619D02*
X353469714Y-55177000D01*
X353469714Y-55177000D02*
X353564952Y-55129380D01*
X353564952Y-55129380D02*
X353755428Y-55129380D01*
X353755428Y-55129380D02*
X353850666Y-55177000D01*
X353850666Y-55177000D02*
X353898285Y-55224619D01*
X353898285Y-55224619D02*
X353945904Y-55319857D01*
X353945904Y-55319857D02*
X353945904Y-55367476D01*
X353945904Y-55367476D02*
X353898285Y-55462714D01*
X353898285Y-55462714D02*
X353850666Y-55510333D01*
X353850666Y-55510333D02*
X353755428Y-55557952D01*
X353755428Y-55557952D02*
X353564952Y-55557952D01*
X353564952Y-55557952D02*
X353469714Y-55605571D01*
X353469714Y-55605571D02*
X353422095Y-55653190D01*
X353422095Y-55653190D02*
X353374476Y-55748428D01*
X353374476Y-55748428D02*
X353374476Y-55938904D01*
X353374476Y-55938904D02*
X353422095Y-56034142D01*
X353422095Y-56034142D02*
X353469714Y-56081761D01*
X353469714Y-56081761D02*
X353564952Y-56129380D01*
X353564952Y-56129380D02*
X353755428Y-56129380D01*
X353755428Y-56129380D02*
X353850666Y-56081761D01*
X353850666Y-56081761D02*
X353898285Y-56034142D01*
X353898285Y-56034142D02*
X353945904Y-55938904D01*
X353945904Y-55938904D02*
X353945904Y-55748428D01*
X353945904Y-55748428D02*
X353898285Y-55653190D01*
X353898285Y-55653190D02*
X353850666Y-55605571D01*
X353850666Y-55605571D02*
X353755428Y-55557952D01*
%TO.C,C17*%
X352041142Y-53024142D02*
X351993523Y-53071761D01*
X351993523Y-53071761D02*
X351850666Y-53119380D01*
X351850666Y-53119380D02*
X351755428Y-53119380D01*
X351755428Y-53119380D02*
X351612571Y-53071761D01*
X351612571Y-53071761D02*
X351517333Y-52976523D01*
X351517333Y-52976523D02*
X351469714Y-52881285D01*
X351469714Y-52881285D02*
X351422095Y-52690809D01*
X351422095Y-52690809D02*
X351422095Y-52547952D01*
X351422095Y-52547952D02*
X351469714Y-52357476D01*
X351469714Y-52357476D02*
X351517333Y-52262238D01*
X351517333Y-52262238D02*
X351612571Y-52167000D01*
X351612571Y-52167000D02*
X351755428Y-52119380D01*
X351755428Y-52119380D02*
X351850666Y-52119380D01*
X351850666Y-52119380D02*
X351993523Y-52167000D01*
X351993523Y-52167000D02*
X352041142Y-52214619D01*
X352993523Y-53119380D02*
X352422095Y-53119380D01*
X352707809Y-53119380D02*
X352707809Y-52119380D01*
X352707809Y-52119380D02*
X352612571Y-52262238D01*
X352612571Y-52262238D02*
X352517333Y-52357476D01*
X352517333Y-52357476D02*
X352422095Y-52405095D01*
X353326857Y-52119380D02*
X353993523Y-52119380D01*
X353993523Y-52119380D02*
X353564952Y-53119380D01*
%TO.C,C16*%
X347591142Y-71084142D02*
X347543523Y-71131761D01*
X347543523Y-71131761D02*
X347400666Y-71179380D01*
X347400666Y-71179380D02*
X347305428Y-71179380D01*
X347305428Y-71179380D02*
X347162571Y-71131761D01*
X347162571Y-71131761D02*
X347067333Y-71036523D01*
X347067333Y-71036523D02*
X347019714Y-70941285D01*
X347019714Y-70941285D02*
X346972095Y-70750809D01*
X346972095Y-70750809D02*
X346972095Y-70607952D01*
X346972095Y-70607952D02*
X347019714Y-70417476D01*
X347019714Y-70417476D02*
X347067333Y-70322238D01*
X347067333Y-70322238D02*
X347162571Y-70227000D01*
X347162571Y-70227000D02*
X347305428Y-70179380D01*
X347305428Y-70179380D02*
X347400666Y-70179380D01*
X347400666Y-70179380D02*
X347543523Y-70227000D01*
X347543523Y-70227000D02*
X347591142Y-70274619D01*
X348543523Y-71179380D02*
X347972095Y-71179380D01*
X348257809Y-71179380D02*
X348257809Y-70179380D01*
X348257809Y-70179380D02*
X348162571Y-70322238D01*
X348162571Y-70322238D02*
X348067333Y-70417476D01*
X348067333Y-70417476D02*
X347972095Y-70465095D01*
X349400666Y-70179380D02*
X349210190Y-70179380D01*
X349210190Y-70179380D02*
X349114952Y-70227000D01*
X349114952Y-70227000D02*
X349067333Y-70274619D01*
X349067333Y-70274619D02*
X348972095Y-70417476D01*
X348972095Y-70417476D02*
X348924476Y-70607952D01*
X348924476Y-70607952D02*
X348924476Y-70988904D01*
X348924476Y-70988904D02*
X348972095Y-71084142D01*
X348972095Y-71084142D02*
X349019714Y-71131761D01*
X349019714Y-71131761D02*
X349114952Y-71179380D01*
X349114952Y-71179380D02*
X349305428Y-71179380D01*
X349305428Y-71179380D02*
X349400666Y-71131761D01*
X349400666Y-71131761D02*
X349448285Y-71084142D01*
X349448285Y-71084142D02*
X349495904Y-70988904D01*
X349495904Y-70988904D02*
X349495904Y-70750809D01*
X349495904Y-70750809D02*
X349448285Y-70655571D01*
X349448285Y-70655571D02*
X349400666Y-70607952D01*
X349400666Y-70607952D02*
X349305428Y-70560333D01*
X349305428Y-70560333D02*
X349114952Y-70560333D01*
X349114952Y-70560333D02*
X349019714Y-70607952D01*
X349019714Y-70607952D02*
X348972095Y-70655571D01*
X348972095Y-70655571D02*
X348924476Y-70750809D01*
%TO.C,C15*%
X368321142Y-99654142D02*
X368273523Y-99701761D01*
X368273523Y-99701761D02*
X368130666Y-99749380D01*
X368130666Y-99749380D02*
X368035428Y-99749380D01*
X368035428Y-99749380D02*
X367892571Y-99701761D01*
X367892571Y-99701761D02*
X367797333Y-99606523D01*
X367797333Y-99606523D02*
X367749714Y-99511285D01*
X367749714Y-99511285D02*
X367702095Y-99320809D01*
X367702095Y-99320809D02*
X367702095Y-99177952D01*
X367702095Y-99177952D02*
X367749714Y-98987476D01*
X367749714Y-98987476D02*
X367797333Y-98892238D01*
X367797333Y-98892238D02*
X367892571Y-98797000D01*
X367892571Y-98797000D02*
X368035428Y-98749380D01*
X368035428Y-98749380D02*
X368130666Y-98749380D01*
X368130666Y-98749380D02*
X368273523Y-98797000D01*
X368273523Y-98797000D02*
X368321142Y-98844619D01*
X369273523Y-99749380D02*
X368702095Y-99749380D01*
X368987809Y-99749380D02*
X368987809Y-98749380D01*
X368987809Y-98749380D02*
X368892571Y-98892238D01*
X368892571Y-98892238D02*
X368797333Y-98987476D01*
X368797333Y-98987476D02*
X368702095Y-99035095D01*
X370178285Y-98749380D02*
X369702095Y-98749380D01*
X369702095Y-98749380D02*
X369654476Y-99225571D01*
X369654476Y-99225571D02*
X369702095Y-99177952D01*
X369702095Y-99177952D02*
X369797333Y-99130333D01*
X369797333Y-99130333D02*
X370035428Y-99130333D01*
X370035428Y-99130333D02*
X370130666Y-99177952D01*
X370130666Y-99177952D02*
X370178285Y-99225571D01*
X370178285Y-99225571D02*
X370225904Y-99320809D01*
X370225904Y-99320809D02*
X370225904Y-99558904D01*
X370225904Y-99558904D02*
X370178285Y-99654142D01*
X370178285Y-99654142D02*
X370130666Y-99701761D01*
X370130666Y-99701761D02*
X370035428Y-99749380D01*
X370035428Y-99749380D02*
X369797333Y-99749380D01*
X369797333Y-99749380D02*
X369702095Y-99701761D01*
X369702095Y-99701761D02*
X369654476Y-99654142D01*
%TO.C,C14*%
X368321142Y-97144142D02*
X368273523Y-97191761D01*
X368273523Y-97191761D02*
X368130666Y-97239380D01*
X368130666Y-97239380D02*
X368035428Y-97239380D01*
X368035428Y-97239380D02*
X367892571Y-97191761D01*
X367892571Y-97191761D02*
X367797333Y-97096523D01*
X367797333Y-97096523D02*
X367749714Y-97001285D01*
X367749714Y-97001285D02*
X367702095Y-96810809D01*
X367702095Y-96810809D02*
X367702095Y-96667952D01*
X367702095Y-96667952D02*
X367749714Y-96477476D01*
X367749714Y-96477476D02*
X367797333Y-96382238D01*
X367797333Y-96382238D02*
X367892571Y-96287000D01*
X367892571Y-96287000D02*
X368035428Y-96239380D01*
X368035428Y-96239380D02*
X368130666Y-96239380D01*
X368130666Y-96239380D02*
X368273523Y-96287000D01*
X368273523Y-96287000D02*
X368321142Y-96334619D01*
X369273523Y-97239380D02*
X368702095Y-97239380D01*
X368987809Y-97239380D02*
X368987809Y-96239380D01*
X368987809Y-96239380D02*
X368892571Y-96382238D01*
X368892571Y-96382238D02*
X368797333Y-96477476D01*
X368797333Y-96477476D02*
X368702095Y-96525095D01*
X370130666Y-96572714D02*
X370130666Y-97239380D01*
X369892571Y-96191761D02*
X369654476Y-96906047D01*
X369654476Y-96906047D02*
X370273523Y-96906047D01*
%TO.C,C13*%
X368321142Y-94634142D02*
X368273523Y-94681761D01*
X368273523Y-94681761D02*
X368130666Y-94729380D01*
X368130666Y-94729380D02*
X368035428Y-94729380D01*
X368035428Y-94729380D02*
X367892571Y-94681761D01*
X367892571Y-94681761D02*
X367797333Y-94586523D01*
X367797333Y-94586523D02*
X367749714Y-94491285D01*
X367749714Y-94491285D02*
X367702095Y-94300809D01*
X367702095Y-94300809D02*
X367702095Y-94157952D01*
X367702095Y-94157952D02*
X367749714Y-93967476D01*
X367749714Y-93967476D02*
X367797333Y-93872238D01*
X367797333Y-93872238D02*
X367892571Y-93777000D01*
X367892571Y-93777000D02*
X368035428Y-93729380D01*
X368035428Y-93729380D02*
X368130666Y-93729380D01*
X368130666Y-93729380D02*
X368273523Y-93777000D01*
X368273523Y-93777000D02*
X368321142Y-93824619D01*
X369273523Y-94729380D02*
X368702095Y-94729380D01*
X368987809Y-94729380D02*
X368987809Y-93729380D01*
X368987809Y-93729380D02*
X368892571Y-93872238D01*
X368892571Y-93872238D02*
X368797333Y-93967476D01*
X368797333Y-93967476D02*
X368702095Y-94015095D01*
X369606857Y-93729380D02*
X370225904Y-93729380D01*
X370225904Y-93729380D02*
X369892571Y-94110333D01*
X369892571Y-94110333D02*
X370035428Y-94110333D01*
X370035428Y-94110333D02*
X370130666Y-94157952D01*
X370130666Y-94157952D02*
X370178285Y-94205571D01*
X370178285Y-94205571D02*
X370225904Y-94300809D01*
X370225904Y-94300809D02*
X370225904Y-94538904D01*
X370225904Y-94538904D02*
X370178285Y-94634142D01*
X370178285Y-94634142D02*
X370130666Y-94681761D01*
X370130666Y-94681761D02*
X370035428Y-94729380D01*
X370035428Y-94729380D02*
X369749714Y-94729380D01*
X369749714Y-94729380D02*
X369654476Y-94681761D01*
X369654476Y-94681761D02*
X369606857Y-94634142D01*
%TO.C,C12*%
X347591142Y-68074142D02*
X347543523Y-68121761D01*
X347543523Y-68121761D02*
X347400666Y-68169380D01*
X347400666Y-68169380D02*
X347305428Y-68169380D01*
X347305428Y-68169380D02*
X347162571Y-68121761D01*
X347162571Y-68121761D02*
X347067333Y-68026523D01*
X347067333Y-68026523D02*
X347019714Y-67931285D01*
X347019714Y-67931285D02*
X346972095Y-67740809D01*
X346972095Y-67740809D02*
X346972095Y-67597952D01*
X346972095Y-67597952D02*
X347019714Y-67407476D01*
X347019714Y-67407476D02*
X347067333Y-67312238D01*
X347067333Y-67312238D02*
X347162571Y-67217000D01*
X347162571Y-67217000D02*
X347305428Y-67169380D01*
X347305428Y-67169380D02*
X347400666Y-67169380D01*
X347400666Y-67169380D02*
X347543523Y-67217000D01*
X347543523Y-67217000D02*
X347591142Y-67264619D01*
X348543523Y-68169380D02*
X347972095Y-68169380D01*
X348257809Y-68169380D02*
X348257809Y-67169380D01*
X348257809Y-67169380D02*
X348162571Y-67312238D01*
X348162571Y-67312238D02*
X348067333Y-67407476D01*
X348067333Y-67407476D02*
X347972095Y-67455095D01*
X348924476Y-67264619D02*
X348972095Y-67217000D01*
X348972095Y-67217000D02*
X349067333Y-67169380D01*
X349067333Y-67169380D02*
X349305428Y-67169380D01*
X349305428Y-67169380D02*
X349400666Y-67217000D01*
X349400666Y-67217000D02*
X349448285Y-67264619D01*
X349448285Y-67264619D02*
X349495904Y-67359857D01*
X349495904Y-67359857D02*
X349495904Y-67455095D01*
X349495904Y-67455095D02*
X349448285Y-67597952D01*
X349448285Y-67597952D02*
X348876857Y-68169380D01*
X348876857Y-68169380D02*
X349495904Y-68169380D01*
%TO.C,C11*%
X347591142Y-65064142D02*
X347543523Y-65111761D01*
X347543523Y-65111761D02*
X347400666Y-65159380D01*
X347400666Y-65159380D02*
X347305428Y-65159380D01*
X347305428Y-65159380D02*
X347162571Y-65111761D01*
X347162571Y-65111761D02*
X347067333Y-65016523D01*
X347067333Y-65016523D02*
X347019714Y-64921285D01*
X347019714Y-64921285D02*
X346972095Y-64730809D01*
X346972095Y-64730809D02*
X346972095Y-64587952D01*
X346972095Y-64587952D02*
X347019714Y-64397476D01*
X347019714Y-64397476D02*
X347067333Y-64302238D01*
X347067333Y-64302238D02*
X347162571Y-64207000D01*
X347162571Y-64207000D02*
X347305428Y-64159380D01*
X347305428Y-64159380D02*
X347400666Y-64159380D01*
X347400666Y-64159380D02*
X347543523Y-64207000D01*
X347543523Y-64207000D02*
X347591142Y-64254619D01*
X348543523Y-65159380D02*
X347972095Y-65159380D01*
X348257809Y-65159380D02*
X348257809Y-64159380D01*
X348257809Y-64159380D02*
X348162571Y-64302238D01*
X348162571Y-64302238D02*
X348067333Y-64397476D01*
X348067333Y-64397476D02*
X347972095Y-64445095D01*
X349495904Y-65159380D02*
X348924476Y-65159380D01*
X349210190Y-65159380D02*
X349210190Y-64159380D01*
X349210190Y-64159380D02*
X349114952Y-64302238D01*
X349114952Y-64302238D02*
X349019714Y-64397476D01*
X349019714Y-64397476D02*
X348924476Y-64445095D01*
%TO.C,C10*%
X347591142Y-62054142D02*
X347543523Y-62101761D01*
X347543523Y-62101761D02*
X347400666Y-62149380D01*
X347400666Y-62149380D02*
X347305428Y-62149380D01*
X347305428Y-62149380D02*
X347162571Y-62101761D01*
X347162571Y-62101761D02*
X347067333Y-62006523D01*
X347067333Y-62006523D02*
X347019714Y-61911285D01*
X347019714Y-61911285D02*
X346972095Y-61720809D01*
X346972095Y-61720809D02*
X346972095Y-61577952D01*
X346972095Y-61577952D02*
X347019714Y-61387476D01*
X347019714Y-61387476D02*
X347067333Y-61292238D01*
X347067333Y-61292238D02*
X347162571Y-61197000D01*
X347162571Y-61197000D02*
X347305428Y-61149380D01*
X347305428Y-61149380D02*
X347400666Y-61149380D01*
X347400666Y-61149380D02*
X347543523Y-61197000D01*
X347543523Y-61197000D02*
X347591142Y-61244619D01*
X348543523Y-62149380D02*
X347972095Y-62149380D01*
X348257809Y-62149380D02*
X348257809Y-61149380D01*
X348257809Y-61149380D02*
X348162571Y-61292238D01*
X348162571Y-61292238D02*
X348067333Y-61387476D01*
X348067333Y-61387476D02*
X347972095Y-61435095D01*
X349162571Y-61149380D02*
X349257809Y-61149380D01*
X349257809Y-61149380D02*
X349353047Y-61197000D01*
X349353047Y-61197000D02*
X349400666Y-61244619D01*
X349400666Y-61244619D02*
X349448285Y-61339857D01*
X349448285Y-61339857D02*
X349495904Y-61530333D01*
X349495904Y-61530333D02*
X349495904Y-61768428D01*
X349495904Y-61768428D02*
X349448285Y-61958904D01*
X349448285Y-61958904D02*
X349400666Y-62054142D01*
X349400666Y-62054142D02*
X349353047Y-62101761D01*
X349353047Y-62101761D02*
X349257809Y-62149380D01*
X349257809Y-62149380D02*
X349162571Y-62149380D01*
X349162571Y-62149380D02*
X349067333Y-62101761D01*
X349067333Y-62101761D02*
X349019714Y-62054142D01*
X349019714Y-62054142D02*
X348972095Y-61958904D01*
X348972095Y-61958904D02*
X348924476Y-61768428D01*
X348924476Y-61768428D02*
X348924476Y-61530333D01*
X348924476Y-61530333D02*
X348972095Y-61339857D01*
X348972095Y-61339857D02*
X349019714Y-61244619D01*
X349019714Y-61244619D02*
X349067333Y-61197000D01*
X349067333Y-61197000D02*
X349162571Y-61149380D01*
%TO.C,C9*%
X368797333Y-92124142D02*
X368749714Y-92171761D01*
X368749714Y-92171761D02*
X368606857Y-92219380D01*
X368606857Y-92219380D02*
X368511619Y-92219380D01*
X368511619Y-92219380D02*
X368368762Y-92171761D01*
X368368762Y-92171761D02*
X368273524Y-92076523D01*
X368273524Y-92076523D02*
X368225905Y-91981285D01*
X368225905Y-91981285D02*
X368178286Y-91790809D01*
X368178286Y-91790809D02*
X368178286Y-91647952D01*
X368178286Y-91647952D02*
X368225905Y-91457476D01*
X368225905Y-91457476D02*
X368273524Y-91362238D01*
X368273524Y-91362238D02*
X368368762Y-91267000D01*
X368368762Y-91267000D02*
X368511619Y-91219380D01*
X368511619Y-91219380D02*
X368606857Y-91219380D01*
X368606857Y-91219380D02*
X368749714Y-91267000D01*
X368749714Y-91267000D02*
X368797333Y-91314619D01*
X369273524Y-92219380D02*
X369464000Y-92219380D01*
X369464000Y-92219380D02*
X369559238Y-92171761D01*
X369559238Y-92171761D02*
X369606857Y-92124142D01*
X369606857Y-92124142D02*
X369702095Y-91981285D01*
X369702095Y-91981285D02*
X369749714Y-91790809D01*
X369749714Y-91790809D02*
X369749714Y-91409857D01*
X369749714Y-91409857D02*
X369702095Y-91314619D01*
X369702095Y-91314619D02*
X369654476Y-91267000D01*
X369654476Y-91267000D02*
X369559238Y-91219380D01*
X369559238Y-91219380D02*
X369368762Y-91219380D01*
X369368762Y-91219380D02*
X369273524Y-91267000D01*
X369273524Y-91267000D02*
X369225905Y-91314619D01*
X369225905Y-91314619D02*
X369178286Y-91409857D01*
X369178286Y-91409857D02*
X369178286Y-91647952D01*
X369178286Y-91647952D02*
X369225905Y-91743190D01*
X369225905Y-91743190D02*
X369273524Y-91790809D01*
X369273524Y-91790809D02*
X369368762Y-91838428D01*
X369368762Y-91838428D02*
X369559238Y-91838428D01*
X369559238Y-91838428D02*
X369654476Y-91790809D01*
X369654476Y-91790809D02*
X369702095Y-91743190D01*
X369702095Y-91743190D02*
X369749714Y-91647952D01*
%TO.C,C8*%
X368797333Y-89614142D02*
X368749714Y-89661761D01*
X368749714Y-89661761D02*
X368606857Y-89709380D01*
X368606857Y-89709380D02*
X368511619Y-89709380D01*
X368511619Y-89709380D02*
X368368762Y-89661761D01*
X368368762Y-89661761D02*
X368273524Y-89566523D01*
X368273524Y-89566523D02*
X368225905Y-89471285D01*
X368225905Y-89471285D02*
X368178286Y-89280809D01*
X368178286Y-89280809D02*
X368178286Y-89137952D01*
X368178286Y-89137952D02*
X368225905Y-88947476D01*
X368225905Y-88947476D02*
X368273524Y-88852238D01*
X368273524Y-88852238D02*
X368368762Y-88757000D01*
X368368762Y-88757000D02*
X368511619Y-88709380D01*
X368511619Y-88709380D02*
X368606857Y-88709380D01*
X368606857Y-88709380D02*
X368749714Y-88757000D01*
X368749714Y-88757000D02*
X368797333Y-88804619D01*
X369368762Y-89137952D02*
X369273524Y-89090333D01*
X369273524Y-89090333D02*
X369225905Y-89042714D01*
X369225905Y-89042714D02*
X369178286Y-88947476D01*
X369178286Y-88947476D02*
X369178286Y-88899857D01*
X369178286Y-88899857D02*
X369225905Y-88804619D01*
X369225905Y-88804619D02*
X369273524Y-88757000D01*
X369273524Y-88757000D02*
X369368762Y-88709380D01*
X369368762Y-88709380D02*
X369559238Y-88709380D01*
X369559238Y-88709380D02*
X369654476Y-88757000D01*
X369654476Y-88757000D02*
X369702095Y-88804619D01*
X369702095Y-88804619D02*
X369749714Y-88899857D01*
X369749714Y-88899857D02*
X369749714Y-88947476D01*
X369749714Y-88947476D02*
X369702095Y-89042714D01*
X369702095Y-89042714D02*
X369654476Y-89090333D01*
X369654476Y-89090333D02*
X369559238Y-89137952D01*
X369559238Y-89137952D02*
X369368762Y-89137952D01*
X369368762Y-89137952D02*
X369273524Y-89185571D01*
X369273524Y-89185571D02*
X369225905Y-89233190D01*
X369225905Y-89233190D02*
X369178286Y-89328428D01*
X369178286Y-89328428D02*
X369178286Y-89518904D01*
X369178286Y-89518904D02*
X369225905Y-89614142D01*
X369225905Y-89614142D02*
X369273524Y-89661761D01*
X369273524Y-89661761D02*
X369368762Y-89709380D01*
X369368762Y-89709380D02*
X369559238Y-89709380D01*
X369559238Y-89709380D02*
X369654476Y-89661761D01*
X369654476Y-89661761D02*
X369702095Y-89614142D01*
X369702095Y-89614142D02*
X369749714Y-89518904D01*
X369749714Y-89518904D02*
X369749714Y-89328428D01*
X369749714Y-89328428D02*
X369702095Y-89233190D01*
X369702095Y-89233190D02*
X369654476Y-89185571D01*
X369654476Y-89185571D02*
X369559238Y-89137952D01*
%TO.C,C7*%
X368797333Y-87104142D02*
X368749714Y-87151761D01*
X368749714Y-87151761D02*
X368606857Y-87199380D01*
X368606857Y-87199380D02*
X368511619Y-87199380D01*
X368511619Y-87199380D02*
X368368762Y-87151761D01*
X368368762Y-87151761D02*
X368273524Y-87056523D01*
X368273524Y-87056523D02*
X368225905Y-86961285D01*
X368225905Y-86961285D02*
X368178286Y-86770809D01*
X368178286Y-86770809D02*
X368178286Y-86627952D01*
X368178286Y-86627952D02*
X368225905Y-86437476D01*
X368225905Y-86437476D02*
X368273524Y-86342238D01*
X368273524Y-86342238D02*
X368368762Y-86247000D01*
X368368762Y-86247000D02*
X368511619Y-86199380D01*
X368511619Y-86199380D02*
X368606857Y-86199380D01*
X368606857Y-86199380D02*
X368749714Y-86247000D01*
X368749714Y-86247000D02*
X368797333Y-86294619D01*
X369130667Y-86199380D02*
X369797333Y-86199380D01*
X369797333Y-86199380D02*
X369368762Y-87199380D01*
%TO.C,C6*%
X348067333Y-59044142D02*
X348019714Y-59091761D01*
X348019714Y-59091761D02*
X347876857Y-59139380D01*
X347876857Y-59139380D02*
X347781619Y-59139380D01*
X347781619Y-59139380D02*
X347638762Y-59091761D01*
X347638762Y-59091761D02*
X347543524Y-58996523D01*
X347543524Y-58996523D02*
X347495905Y-58901285D01*
X347495905Y-58901285D02*
X347448286Y-58710809D01*
X347448286Y-58710809D02*
X347448286Y-58567952D01*
X347448286Y-58567952D02*
X347495905Y-58377476D01*
X347495905Y-58377476D02*
X347543524Y-58282238D01*
X347543524Y-58282238D02*
X347638762Y-58187000D01*
X347638762Y-58187000D02*
X347781619Y-58139380D01*
X347781619Y-58139380D02*
X347876857Y-58139380D01*
X347876857Y-58139380D02*
X348019714Y-58187000D01*
X348019714Y-58187000D02*
X348067333Y-58234619D01*
X348924476Y-58139380D02*
X348734000Y-58139380D01*
X348734000Y-58139380D02*
X348638762Y-58187000D01*
X348638762Y-58187000D02*
X348591143Y-58234619D01*
X348591143Y-58234619D02*
X348495905Y-58377476D01*
X348495905Y-58377476D02*
X348448286Y-58567952D01*
X348448286Y-58567952D02*
X348448286Y-58948904D01*
X348448286Y-58948904D02*
X348495905Y-59044142D01*
X348495905Y-59044142D02*
X348543524Y-59091761D01*
X348543524Y-59091761D02*
X348638762Y-59139380D01*
X348638762Y-59139380D02*
X348829238Y-59139380D01*
X348829238Y-59139380D02*
X348924476Y-59091761D01*
X348924476Y-59091761D02*
X348972095Y-59044142D01*
X348972095Y-59044142D02*
X349019714Y-58948904D01*
X349019714Y-58948904D02*
X349019714Y-58710809D01*
X349019714Y-58710809D02*
X348972095Y-58615571D01*
X348972095Y-58615571D02*
X348924476Y-58567952D01*
X348924476Y-58567952D02*
X348829238Y-58520333D01*
X348829238Y-58520333D02*
X348638762Y-58520333D01*
X348638762Y-58520333D02*
X348543524Y-58567952D01*
X348543524Y-58567952D02*
X348495905Y-58615571D01*
X348495905Y-58615571D02*
X348448286Y-58710809D01*
%TO.C,C5*%
X348067333Y-56034142D02*
X348019714Y-56081761D01*
X348019714Y-56081761D02*
X347876857Y-56129380D01*
X347876857Y-56129380D02*
X347781619Y-56129380D01*
X347781619Y-56129380D02*
X347638762Y-56081761D01*
X347638762Y-56081761D02*
X347543524Y-55986523D01*
X347543524Y-55986523D02*
X347495905Y-55891285D01*
X347495905Y-55891285D02*
X347448286Y-55700809D01*
X347448286Y-55700809D02*
X347448286Y-55557952D01*
X347448286Y-55557952D02*
X347495905Y-55367476D01*
X347495905Y-55367476D02*
X347543524Y-55272238D01*
X347543524Y-55272238D02*
X347638762Y-55177000D01*
X347638762Y-55177000D02*
X347781619Y-55129380D01*
X347781619Y-55129380D02*
X347876857Y-55129380D01*
X347876857Y-55129380D02*
X348019714Y-55177000D01*
X348019714Y-55177000D02*
X348067333Y-55224619D01*
X348972095Y-55129380D02*
X348495905Y-55129380D01*
X348495905Y-55129380D02*
X348448286Y-55605571D01*
X348448286Y-55605571D02*
X348495905Y-55557952D01*
X348495905Y-55557952D02*
X348591143Y-55510333D01*
X348591143Y-55510333D02*
X348829238Y-55510333D01*
X348829238Y-55510333D02*
X348924476Y-55557952D01*
X348924476Y-55557952D02*
X348972095Y-55605571D01*
X348972095Y-55605571D02*
X349019714Y-55700809D01*
X349019714Y-55700809D02*
X349019714Y-55938904D01*
X349019714Y-55938904D02*
X348972095Y-56034142D01*
X348972095Y-56034142D02*
X348924476Y-56081761D01*
X348924476Y-56081761D02*
X348829238Y-56129380D01*
X348829238Y-56129380D02*
X348591143Y-56129380D01*
X348591143Y-56129380D02*
X348495905Y-56081761D01*
X348495905Y-56081761D02*
X348448286Y-56034142D01*
%TO.C,C4*%
X348067333Y-53024142D02*
X348019714Y-53071761D01*
X348019714Y-53071761D02*
X347876857Y-53119380D01*
X347876857Y-53119380D02*
X347781619Y-53119380D01*
X347781619Y-53119380D02*
X347638762Y-53071761D01*
X347638762Y-53071761D02*
X347543524Y-52976523D01*
X347543524Y-52976523D02*
X347495905Y-52881285D01*
X347495905Y-52881285D02*
X347448286Y-52690809D01*
X347448286Y-52690809D02*
X347448286Y-52547952D01*
X347448286Y-52547952D02*
X347495905Y-52357476D01*
X347495905Y-52357476D02*
X347543524Y-52262238D01*
X347543524Y-52262238D02*
X347638762Y-52167000D01*
X347638762Y-52167000D02*
X347781619Y-52119380D01*
X347781619Y-52119380D02*
X347876857Y-52119380D01*
X347876857Y-52119380D02*
X348019714Y-52167000D01*
X348019714Y-52167000D02*
X348067333Y-52214619D01*
X348924476Y-52452714D02*
X348924476Y-53119380D01*
X348686381Y-52071761D02*
X348448286Y-52786047D01*
X348448286Y-52786047D02*
X349067333Y-52786047D01*
%TO.C,C3*%
X368797333Y-84594142D02*
X368749714Y-84641761D01*
X368749714Y-84641761D02*
X368606857Y-84689380D01*
X368606857Y-84689380D02*
X368511619Y-84689380D01*
X368511619Y-84689380D02*
X368368762Y-84641761D01*
X368368762Y-84641761D02*
X368273524Y-84546523D01*
X368273524Y-84546523D02*
X368225905Y-84451285D01*
X368225905Y-84451285D02*
X368178286Y-84260809D01*
X368178286Y-84260809D02*
X368178286Y-84117952D01*
X368178286Y-84117952D02*
X368225905Y-83927476D01*
X368225905Y-83927476D02*
X368273524Y-83832238D01*
X368273524Y-83832238D02*
X368368762Y-83737000D01*
X368368762Y-83737000D02*
X368511619Y-83689380D01*
X368511619Y-83689380D02*
X368606857Y-83689380D01*
X368606857Y-83689380D02*
X368749714Y-83737000D01*
X368749714Y-83737000D02*
X368797333Y-83784619D01*
X369130667Y-83689380D02*
X369749714Y-83689380D01*
X369749714Y-83689380D02*
X369416381Y-84070333D01*
X369416381Y-84070333D02*
X369559238Y-84070333D01*
X369559238Y-84070333D02*
X369654476Y-84117952D01*
X369654476Y-84117952D02*
X369702095Y-84165571D01*
X369702095Y-84165571D02*
X369749714Y-84260809D01*
X369749714Y-84260809D02*
X369749714Y-84498904D01*
X369749714Y-84498904D02*
X369702095Y-84594142D01*
X369702095Y-84594142D02*
X369654476Y-84641761D01*
X369654476Y-84641761D02*
X369559238Y-84689380D01*
X369559238Y-84689380D02*
X369273524Y-84689380D01*
X369273524Y-84689380D02*
X369178286Y-84641761D01*
X369178286Y-84641761D02*
X369130667Y-84594142D01*
%TO.C,C2*%
X368797333Y-82084142D02*
X368749714Y-82131761D01*
X368749714Y-82131761D02*
X368606857Y-82179380D01*
X368606857Y-82179380D02*
X368511619Y-82179380D01*
X368511619Y-82179380D02*
X368368762Y-82131761D01*
X368368762Y-82131761D02*
X368273524Y-82036523D01*
X368273524Y-82036523D02*
X368225905Y-81941285D01*
X368225905Y-81941285D02*
X368178286Y-81750809D01*
X368178286Y-81750809D02*
X368178286Y-81607952D01*
X368178286Y-81607952D02*
X368225905Y-81417476D01*
X368225905Y-81417476D02*
X368273524Y-81322238D01*
X368273524Y-81322238D02*
X368368762Y-81227000D01*
X368368762Y-81227000D02*
X368511619Y-81179380D01*
X368511619Y-81179380D02*
X368606857Y-81179380D01*
X368606857Y-81179380D02*
X368749714Y-81227000D01*
X368749714Y-81227000D02*
X368797333Y-81274619D01*
X369178286Y-81274619D02*
X369225905Y-81227000D01*
X369225905Y-81227000D02*
X369321143Y-81179380D01*
X369321143Y-81179380D02*
X369559238Y-81179380D01*
X369559238Y-81179380D02*
X369654476Y-81227000D01*
X369654476Y-81227000D02*
X369702095Y-81274619D01*
X369702095Y-81274619D02*
X369749714Y-81369857D01*
X369749714Y-81369857D02*
X369749714Y-81465095D01*
X369749714Y-81465095D02*
X369702095Y-81607952D01*
X369702095Y-81607952D02*
X369130667Y-82179380D01*
X369130667Y-82179380D02*
X369749714Y-82179380D01*
%TO.C,C1*%
X368797333Y-79574142D02*
X368749714Y-79621761D01*
X368749714Y-79621761D02*
X368606857Y-79669380D01*
X368606857Y-79669380D02*
X368511619Y-79669380D01*
X368511619Y-79669380D02*
X368368762Y-79621761D01*
X368368762Y-79621761D02*
X368273524Y-79526523D01*
X368273524Y-79526523D02*
X368225905Y-79431285D01*
X368225905Y-79431285D02*
X368178286Y-79240809D01*
X368178286Y-79240809D02*
X368178286Y-79097952D01*
X368178286Y-79097952D02*
X368225905Y-78907476D01*
X368225905Y-78907476D02*
X368273524Y-78812238D01*
X368273524Y-78812238D02*
X368368762Y-78717000D01*
X368368762Y-78717000D02*
X368511619Y-78669380D01*
X368511619Y-78669380D02*
X368606857Y-78669380D01*
X368606857Y-78669380D02*
X368749714Y-78717000D01*
X368749714Y-78717000D02*
X368797333Y-78764619D01*
X369749714Y-79669380D02*
X369178286Y-79669380D01*
X369464000Y-79669380D02*
X369464000Y-78669380D01*
X369464000Y-78669380D02*
X369368762Y-78812238D01*
X369368762Y-78812238D02*
X369273524Y-78907476D01*
X369273524Y-78907476D02*
X369178286Y-78955095D01*
D11*
%TO.C,U6*%
X361694000Y-116642000D02*
X360894000Y-116642000D01*
X361694000Y-113522000D02*
X359894000Y-113522000D01*
X361694000Y-113522000D02*
X362494000Y-113522000D01*
X361694000Y-116642000D02*
X362494000Y-116642000D01*
%TO.C,U5*%
X361694000Y-112192000D02*
X360894000Y-112192000D01*
X361694000Y-109072000D02*
X359894000Y-109072000D01*
X361694000Y-109072000D02*
X362494000Y-109072000D01*
X361694000Y-112192000D02*
X362494000Y-112192000D01*
%TO.C,U4*%
X361694000Y-107742000D02*
X360894000Y-107742000D01*
X361694000Y-104622000D02*
X359894000Y-104622000D01*
X361694000Y-104622000D02*
X362494000Y-104622000D01*
X361694000Y-107742000D02*
X362494000Y-107742000D01*
%TO.C,U3*%
X146100000Y-122100000D02*
X146100000Y-121845000D01*
X142240000Y-122100000D02*
X146100000Y-122100000D01*
X138380000Y-122100000D02*
X138380000Y-121845000D01*
X138380000Y-111835000D02*
X136565000Y-111835000D01*
X142240000Y-122100000D02*
X138380000Y-122100000D01*
X146100000Y-111580000D02*
X146100000Y-111835000D01*
X138380000Y-111580000D02*
X138380000Y-111835000D01*
X142240000Y-111580000D02*
X146100000Y-111580000D01*
X142240000Y-111580000D02*
X138380000Y-111580000D01*
%TO.C,U2*%
X142240000Y-96340000D02*
X138380000Y-96340000D01*
X142240000Y-96340000D02*
X146100000Y-96340000D01*
X138380000Y-96340000D02*
X138380000Y-96595000D01*
X146100000Y-96340000D02*
X146100000Y-96595000D01*
X142240000Y-106860000D02*
X138380000Y-106860000D01*
X138380000Y-96595000D02*
X136565000Y-96595000D01*
X138380000Y-106860000D02*
X138380000Y-106605000D01*
X142240000Y-106860000D02*
X146100000Y-106860000D01*
X146100000Y-106860000D02*
X146100000Y-106605000D01*
%TO.C,U1*%
X142240000Y-81100000D02*
X138380000Y-81100000D01*
X142240000Y-81100000D02*
X146100000Y-81100000D01*
X138380000Y-81100000D02*
X138380000Y-81355000D01*
X146100000Y-81100000D02*
X146100000Y-81355000D01*
X142240000Y-91620000D02*
X138380000Y-91620000D01*
X138380000Y-81355000D02*
X136565000Y-81355000D01*
X138380000Y-91620000D02*
X138380000Y-91365000D01*
X142240000Y-91620000D02*
X146100000Y-91620000D01*
X146100000Y-91620000D02*
X146100000Y-91365000D01*
%TO.C,R33*%
X343576936Y-59567000D02*
X344031064Y-59567000D01*
X343576936Y-61037000D02*
X344031064Y-61037000D01*
%TO.C,R32*%
X343576936Y-56617000D02*
X344031064Y-56617000D01*
X343576936Y-58087000D02*
X344031064Y-58087000D01*
%TO.C,R31*%
X343576936Y-53667000D02*
X344031064Y-53667000D01*
X343576936Y-55137000D02*
X344031064Y-55137000D01*
%TO.C,R30*%
X339166936Y-77267000D02*
X339621064Y-77267000D01*
X339166936Y-78737000D02*
X339621064Y-78737000D01*
%TO.C,R29*%
X339166936Y-74317000D02*
X339621064Y-74317000D01*
X339166936Y-75787000D02*
X339621064Y-75787000D01*
%TO.C,R28*%
X339166936Y-71367000D02*
X339621064Y-71367000D01*
X339166936Y-72837000D02*
X339621064Y-72837000D01*
%TO.C,R27*%
X339166936Y-68417000D02*
X339621064Y-68417000D01*
X339166936Y-69887000D02*
X339621064Y-69887000D01*
%TO.C,R26*%
X339166936Y-65467000D02*
X339621064Y-65467000D01*
X339166936Y-66937000D02*
X339621064Y-66937000D01*
%TO.C,R25*%
X339166936Y-62517000D02*
X339621064Y-62517000D01*
X339166936Y-63987000D02*
X339621064Y-63987000D01*
%TO.C,R24*%
X339166936Y-59567000D02*
X339621064Y-59567000D01*
X339166936Y-61037000D02*
X339621064Y-61037000D01*
%TO.C,R23*%
X339166936Y-56617000D02*
X339621064Y-56617000D01*
X339166936Y-58087000D02*
X339621064Y-58087000D01*
%TO.C,R22*%
X339166936Y-53667000D02*
X339621064Y-53667000D01*
X339166936Y-55137000D02*
X339621064Y-55137000D01*
%TO.C,R21*%
X334756936Y-77267000D02*
X335211064Y-77267000D01*
X334756936Y-78737000D02*
X335211064Y-78737000D01*
%TO.C,R20*%
X168629000Y-119152936D02*
X168629000Y-119607064D01*
X167159000Y-119152936D02*
X167159000Y-119607064D01*
%TO.C,R19*%
X165581000Y-84862936D02*
X165581000Y-85317064D01*
X164111000Y-84862936D02*
X164111000Y-85317064D01*
%TO.C,R18*%
X334756936Y-68417000D02*
X335211064Y-68417000D01*
X334756936Y-69887000D02*
X335211064Y-69887000D01*
%TO.C,R17*%
X334756936Y-65467000D02*
X335211064Y-65467000D01*
X334756936Y-66937000D02*
X335211064Y-66937000D01*
%TO.C,R16*%
X334756936Y-62517000D02*
X335211064Y-62517000D01*
X334756936Y-63987000D02*
X335211064Y-63987000D01*
%TO.C,R15*%
X334756936Y-59567000D02*
X335211064Y-59567000D01*
X334756936Y-61037000D02*
X335211064Y-61037000D01*
%TO.C,R14*%
X334756936Y-56617000D02*
X335211064Y-56617000D01*
X334756936Y-58087000D02*
X335211064Y-58087000D01*
%TO.C,R13*%
X334756936Y-53667000D02*
X335211064Y-53667000D01*
X334756936Y-55137000D02*
X335211064Y-55137000D01*
%TO.C,R12*%
X366346936Y-113092000D02*
X367801064Y-113092000D01*
X366346936Y-111272000D02*
X367801064Y-111272000D01*
%TO.C,R11*%
X366346936Y-109802000D02*
X367801064Y-109802000D01*
X366346936Y-107982000D02*
X367801064Y-107982000D01*
%TO.C,R10*%
X366346936Y-106512000D02*
X367801064Y-106512000D01*
X366346936Y-104692000D02*
X367801064Y-104692000D01*
%TO.C,R9*%
X330346936Y-77267000D02*
X330801064Y-77267000D01*
X330346936Y-78737000D02*
X330801064Y-78737000D01*
%TO.C,R8*%
X330346936Y-74317000D02*
X330801064Y-74317000D01*
X330346936Y-75787000D02*
X330801064Y-75787000D01*
%TO.C,R7*%
X330346936Y-71367000D02*
X330801064Y-71367000D01*
X330346936Y-72837000D02*
X330801064Y-72837000D01*
%TO.C,R6*%
X330346936Y-68417000D02*
X330801064Y-68417000D01*
X330346936Y-69887000D02*
X330801064Y-69887000D01*
%TO.C,R5*%
X330346936Y-65467000D02*
X330801064Y-65467000D01*
X330346936Y-66937000D02*
X330801064Y-66937000D01*
%TO.C,R4*%
X330346936Y-62517000D02*
X330801064Y-62517000D01*
X330346936Y-63987000D02*
X330801064Y-63987000D01*
%TO.C,R3*%
X330346936Y-59567000D02*
X330801064Y-59567000D01*
X330346936Y-61037000D02*
X330801064Y-61037000D01*
%TO.C,R2*%
X330346936Y-56617000D02*
X330801064Y-56617000D01*
X330346936Y-58087000D02*
X330801064Y-58087000D01*
%TO.C,R1*%
X330346936Y-53667000D02*
X330801064Y-53667000D01*
X330346936Y-55137000D02*
X330801064Y-55137000D01*
%TO.C,D6*%
X354789000Y-118822000D02*
X354789000Y-120442000D01*
X354789000Y-118822000D02*
X358029000Y-118822000D01*
X354789000Y-120442000D02*
X358029000Y-120442000D01*
%TO.C,D5*%
X354789000Y-115972000D02*
X354789000Y-117592000D01*
X354789000Y-115972000D02*
X358029000Y-115972000D01*
X354789000Y-117592000D02*
X358029000Y-117592000D01*
%TO.C,D4*%
X354789000Y-113122000D02*
X354789000Y-114742000D01*
X354789000Y-113122000D02*
X358029000Y-113122000D01*
X354789000Y-114742000D02*
X358029000Y-114742000D01*
%TO.C,D3*%
X354789000Y-110272000D02*
X354789000Y-111892000D01*
X354789000Y-110272000D02*
X358029000Y-110272000D01*
X354789000Y-111892000D02*
X358029000Y-111892000D01*
%TO.C,D2*%
X354789000Y-107422000D02*
X354789000Y-109042000D01*
X354789000Y-107422000D02*
X358029000Y-107422000D01*
X354789000Y-109042000D02*
X358029000Y-109042000D01*
%TO.C,D1*%
X354789000Y-104572000D02*
X354789000Y-106192000D01*
X354789000Y-104572000D02*
X358029000Y-104572000D01*
X354789000Y-106192000D02*
X358029000Y-106192000D01*
%TO.C,C30*%
X356872748Y-73227000D02*
X357395252Y-73227000D01*
X356872748Y-71757000D02*
X357395252Y-71757000D01*
%TO.C,C29*%
X356872748Y-70217000D02*
X357395252Y-70217000D01*
X356872748Y-68747000D02*
X357395252Y-68747000D01*
%TO.C,C28*%
X356872748Y-67207000D02*
X357395252Y-67207000D01*
X356872748Y-65737000D02*
X357395252Y-65737000D01*
%TO.C,C27*%
X356872748Y-64197000D02*
X357395252Y-64197000D01*
X356872748Y-62727000D02*
X357395252Y-62727000D01*
%TO.C,C26*%
X356872748Y-61187000D02*
X357395252Y-61187000D01*
X356872748Y-59717000D02*
X357395252Y-59717000D01*
%TO.C,C25*%
X356872748Y-58177000D02*
X357395252Y-58177000D01*
X356872748Y-56707000D02*
X357395252Y-56707000D01*
%TO.C,C24*%
X356872748Y-55167000D02*
X357395252Y-55167000D01*
X356872748Y-53697000D02*
X357395252Y-53697000D01*
%TO.C,C23*%
X352422748Y-73227000D02*
X352945252Y-73227000D01*
X352422748Y-71757000D02*
X352945252Y-71757000D01*
%TO.C,C22*%
X352422748Y-70217000D02*
X352945252Y-70217000D01*
X352422748Y-68747000D02*
X352945252Y-68747000D01*
%TO.C,C21*%
X352422748Y-67207000D02*
X352945252Y-67207000D01*
X352422748Y-65737000D02*
X352945252Y-65737000D01*
%TO.C,C20*%
X352422748Y-64197000D02*
X352945252Y-64197000D01*
X352422748Y-62727000D02*
X352945252Y-62727000D01*
%TO.C,C19*%
X352422748Y-61187000D02*
X352945252Y-61187000D01*
X352422748Y-59717000D02*
X352945252Y-59717000D01*
%TO.C,C18*%
X352422748Y-58177000D02*
X352945252Y-58177000D01*
X352422748Y-56707000D02*
X352945252Y-56707000D01*
%TO.C,C17*%
X352422748Y-55167000D02*
X352945252Y-55167000D01*
X352422748Y-53697000D02*
X352945252Y-53697000D01*
%TO.C,C16*%
X347972748Y-73227000D02*
X348495252Y-73227000D01*
X347972748Y-71757000D02*
X348495252Y-71757000D01*
%TO.C,C15*%
X368823420Y-101322000D02*
X369104580Y-101322000D01*
X368823420Y-100302000D02*
X369104580Y-100302000D01*
%TO.C,C14*%
X368823420Y-98812000D02*
X369104580Y-98812000D01*
X368823420Y-97792000D02*
X369104580Y-97792000D01*
%TO.C,C13*%
X368823420Y-96302000D02*
X369104580Y-96302000D01*
X368823420Y-95282000D02*
X369104580Y-95282000D01*
%TO.C,C12*%
X347972748Y-70217000D02*
X348495252Y-70217000D01*
X347972748Y-68747000D02*
X348495252Y-68747000D01*
%TO.C,C11*%
X347972748Y-67207000D02*
X348495252Y-67207000D01*
X347972748Y-65737000D02*
X348495252Y-65737000D01*
%TO.C,C10*%
X347972748Y-64197000D02*
X348495252Y-64197000D01*
X347972748Y-62727000D02*
X348495252Y-62727000D01*
%TO.C,C9*%
X368823420Y-93792000D02*
X369104580Y-93792000D01*
X368823420Y-92772000D02*
X369104580Y-92772000D01*
%TO.C,C8*%
X368823420Y-91282000D02*
X369104580Y-91282000D01*
X368823420Y-90262000D02*
X369104580Y-90262000D01*
%TO.C,C7*%
X368823420Y-88772000D02*
X369104580Y-88772000D01*
X368823420Y-87752000D02*
X369104580Y-87752000D01*
%TO.C,C6*%
X347972748Y-61187000D02*
X348495252Y-61187000D01*
X347972748Y-59717000D02*
X348495252Y-59717000D01*
%TO.C,C5*%
X347972748Y-58177000D02*
X348495252Y-58177000D01*
X347972748Y-56707000D02*
X348495252Y-56707000D01*
%TO.C,C4*%
X347972748Y-55167000D02*
X348495252Y-55167000D01*
X347972748Y-53697000D02*
X348495252Y-53697000D01*
%TO.C,C3*%
X368823420Y-86262000D02*
X369104580Y-86262000D01*
X368823420Y-85242000D02*
X369104580Y-85242000D01*
%TO.C,C2*%
X368823420Y-83752000D02*
X369104580Y-83752000D01*
X368823420Y-82732000D02*
X369104580Y-82732000D01*
%TO.C,C1*%
X368823420Y-81242000D02*
X369104580Y-81242000D01*
X368823420Y-80222000D02*
X369104580Y-80222000D01*
%TD*%
M02*
