%TF.GenerationSoftware,KiCad,Pcbnew,(7.0.0-0)*%
%TF.CreationDate,2023-06-28T09:11:26-07:00*%
%TF.ProjectId,Power Stage,506f7765-7220-4537-9461-67652e6b6963,rev?*%
%TF.SameCoordinates,Original*%
%TF.FileFunction,Copper,L1,Top*%
%TF.FilePolarity,Positive*%
%FSLAX46Y46*%
G04 Gerber Fmt 4.6, Leading zero omitted, Abs format (unit mm)*
G04 Created by KiCad (PCBNEW (7.0.0-0)) date 2023-06-28 09:11:26*
%MOMM*%
%LPD*%
G01*
G04 APERTURE LIST*
G04 Aperture macros list*
%AMRoundRect*
0 Rectangle with rounded corners*
0 $1 Rounding radius*
0 $2 $3 $4 $5 $6 $7 $8 $9 X,Y pos of 4 corners*
0 Add a 4 corners polygon primitive as box body*
4,1,4,$2,$3,$4,$5,$6,$7,$8,$9,$2,$3,0*
0 Add four circle primitives for the rounded corners*
1,1,$1+$1,$2,$3*
1,1,$1+$1,$4,$5*
1,1,$1+$1,$6,$7*
1,1,$1+$1,$8,$9*
0 Add four rect primitives between the rounded corners*
20,1,$1+$1,$2,$3,$4,$5,0*
20,1,$1+$1,$4,$5,$6,$7,0*
20,1,$1+$1,$6,$7,$8,$9,0*
20,1,$1+$1,$8,$9,$2,$3,0*%
%AMFreePoly0*
4,1,13,2.850000,-5.050000,1.450000,-5.050000,1.450000,-4.350000,-1.450000,-4.350000,-1.450000,-4.850000,-5.150000,-4.850000,-5.150000,4.850000,-1.450000,4.850000,-1.450000,4.350000,1.450000,4.350000,1.450000,5.050000,2.850000,5.050000,2.850000,-5.050000,2.850000,-5.050000,$1*%
G04 Aperture macros list end*
%TA.AperFunction,ComponentPad*%
%ADD10C,0.600000*%
%TD*%
%TA.AperFunction,SMDPad,CuDef*%
%ADD11FreePoly0,90.000000*%
%TD*%
%TA.AperFunction,SMDPad,CuDef*%
%ADD12RoundRect,0.150000X-0.512500X-0.150000X0.512500X-0.150000X0.512500X0.150000X-0.512500X0.150000X0*%
%TD*%
%TA.AperFunction,SMDPad,CuDef*%
%ADD13RoundRect,0.150000X-0.875000X-0.150000X0.875000X-0.150000X0.875000X0.150000X-0.875000X0.150000X0*%
%TD*%
%TA.AperFunction,SMDPad,CuDef*%
%ADD14RoundRect,0.250000X-0.262500X-0.450000X0.262500X-0.450000X0.262500X0.450000X-0.262500X0.450000X0*%
%TD*%
%TA.AperFunction,SMDPad,CuDef*%
%ADD15RoundRect,0.250000X-0.450000X0.262500X-0.450000X-0.262500X0.450000X-0.262500X0.450000X0.262500X0*%
%TD*%
%TA.AperFunction,SMDPad,CuDef*%
%ADD16RoundRect,0.250000X-0.312500X-0.625000X0.312500X-0.625000X0.312500X0.625000X-0.312500X0.625000X0*%
%TD*%
%TA.AperFunction,SMDPad,CuDef*%
%ADD17R,2.000000X1.100000*%
%TD*%
%TA.AperFunction,SMDPad,CuDef*%
%ADD18R,0.800000X0.800000*%
%TD*%
%TA.AperFunction,SMDPad,CuDef*%
%ADD19RoundRect,0.250000X-0.250000X-0.475000X0.250000X-0.475000X0.250000X0.475000X-0.250000X0.475000X0*%
%TD*%
%TA.AperFunction,SMDPad,CuDef*%
%ADD20RoundRect,0.225000X-0.225000X-0.250000X0.225000X-0.250000X0.225000X0.250000X-0.225000X0.250000X0*%
%TD*%
%TA.AperFunction,ViaPad*%
%ADD21C,0.762000*%
%TD*%
G04 APERTURE END LIST*
D10*
%TO.P,Q6,3,D*%
%TO.N,Net-(Q5-S)*%
X229800000Y-106960000D03*
X225000000Y-108160000D03*
X226200000Y-108160000D03*
X229800000Y-109360000D03*
X228600000Y-111760000D03*
X226200000Y-111760000D03*
X231000000Y-108160000D03*
X225000000Y-110560000D03*
X227400000Y-110560000D03*
X228600000Y-106960000D03*
X226200000Y-109360000D03*
X232200000Y-108160000D03*
X231000000Y-112960000D03*
X226200000Y-106960000D03*
X229800000Y-112960000D03*
X226200000Y-112960000D03*
X231000000Y-110560000D03*
X229800000Y-110560000D03*
X231000000Y-106960000D03*
X231000000Y-109360000D03*
X232200000Y-110560000D03*
X229800000Y-108160000D03*
X228600000Y-112960000D03*
X227400000Y-106960000D03*
X225000000Y-112960000D03*
X229800000Y-111760000D03*
D11*
X228600000Y-108490000D03*
D10*
X225000000Y-109360000D03*
X231000000Y-111760000D03*
X232200000Y-106960000D03*
X226200000Y-110560000D03*
X227400000Y-109360000D03*
X225000000Y-106960000D03*
X227400000Y-112960000D03*
X228600000Y-108160000D03*
X227400000Y-108160000D03*
X232200000Y-111760000D03*
X227400000Y-111760000D03*
X228600000Y-110560000D03*
X232200000Y-112960000D03*
X228600000Y-109360000D03*
X225000000Y-111760000D03*
X232200000Y-109360000D03*
%TD*%
%TO.P,Q5,3,D*%
%TO.N,VS*%
X229800000Y-85668000D03*
X225000000Y-86868000D03*
X226200000Y-86868000D03*
X229800000Y-88068000D03*
X228600000Y-90468000D03*
X226200000Y-90468000D03*
X231000000Y-86868000D03*
X225000000Y-89268000D03*
X227400000Y-89268000D03*
X228600000Y-85668000D03*
X226200000Y-88068000D03*
X232200000Y-86868000D03*
X231000000Y-91668000D03*
X226200000Y-85668000D03*
X229800000Y-91668000D03*
X226200000Y-91668000D03*
X231000000Y-89268000D03*
X229800000Y-89268000D03*
X231000000Y-85668000D03*
X231000000Y-88068000D03*
X232200000Y-89268000D03*
X229800000Y-86868000D03*
X228600000Y-91668000D03*
X227400000Y-85668000D03*
X225000000Y-91668000D03*
X229800000Y-90468000D03*
D11*
X228600000Y-87198000D03*
D10*
X225000000Y-88068000D03*
X231000000Y-90468000D03*
X232200000Y-85668000D03*
X226200000Y-89268000D03*
X227400000Y-88068000D03*
X225000000Y-85668000D03*
X227400000Y-91668000D03*
X228600000Y-86868000D03*
X227400000Y-86868000D03*
X232200000Y-90468000D03*
X227400000Y-90468000D03*
X228600000Y-89268000D03*
X232200000Y-91668000D03*
X228600000Y-88068000D03*
X225000000Y-90468000D03*
X232200000Y-88068000D03*
%TD*%
%TO.P,Q4,3,D*%
%TO.N,Net-(Q3-S)*%
X204400000Y-106960000D03*
X199600000Y-108160000D03*
X200800000Y-108160000D03*
X204400000Y-109360000D03*
X203200000Y-111760000D03*
X200800000Y-111760000D03*
X205600000Y-108160000D03*
X199600000Y-110560000D03*
X202000000Y-110560000D03*
X203200000Y-106960000D03*
X200800000Y-109360000D03*
X206800000Y-108160000D03*
X205600000Y-112960000D03*
X200800000Y-106960000D03*
X204400000Y-112960000D03*
X200800000Y-112960000D03*
X205600000Y-110560000D03*
X204400000Y-110560000D03*
X205600000Y-106960000D03*
X205600000Y-109360000D03*
X206800000Y-110560000D03*
X204400000Y-108160000D03*
X203200000Y-112960000D03*
X202000000Y-106960000D03*
X199600000Y-112960000D03*
X204400000Y-111760000D03*
D11*
X203200000Y-108490000D03*
D10*
X199600000Y-109360000D03*
X205600000Y-111760000D03*
X206800000Y-106960000D03*
X200800000Y-110560000D03*
X202000000Y-109360000D03*
X199600000Y-106960000D03*
X202000000Y-112960000D03*
X203200000Y-108160000D03*
X202000000Y-108160000D03*
X206800000Y-111760000D03*
X202000000Y-111760000D03*
X203200000Y-110560000D03*
X206800000Y-112960000D03*
X203200000Y-109360000D03*
X199600000Y-111760000D03*
X206800000Y-109360000D03*
%TD*%
%TO.P,Q3,3,D*%
%TO.N,VS*%
X204400000Y-85668000D03*
X199600000Y-86868000D03*
X200800000Y-86868000D03*
X204400000Y-88068000D03*
X203200000Y-90468000D03*
X200800000Y-90468000D03*
X205600000Y-86868000D03*
X199600000Y-89268000D03*
X202000000Y-89268000D03*
X203200000Y-85668000D03*
X200800000Y-88068000D03*
X206800000Y-86868000D03*
X205600000Y-91668000D03*
X200800000Y-85668000D03*
X204400000Y-91668000D03*
X200800000Y-91668000D03*
X205600000Y-89268000D03*
X204400000Y-89268000D03*
X205600000Y-85668000D03*
X205600000Y-88068000D03*
X206800000Y-89268000D03*
X204400000Y-86868000D03*
X203200000Y-91668000D03*
X202000000Y-85668000D03*
X199600000Y-91668000D03*
X204400000Y-90468000D03*
D11*
X203200000Y-87198000D03*
D10*
X199600000Y-88068000D03*
X205600000Y-90468000D03*
X206800000Y-85668000D03*
X200800000Y-89268000D03*
X202000000Y-88068000D03*
X199600000Y-85668000D03*
X202000000Y-91668000D03*
X203200000Y-86868000D03*
X202000000Y-86868000D03*
X206800000Y-90468000D03*
X202000000Y-90468000D03*
X203200000Y-89268000D03*
X206800000Y-91668000D03*
X203200000Y-88068000D03*
X199600000Y-90468000D03*
X206800000Y-88068000D03*
%TD*%
%TO.P,Q2,3,D*%
%TO.N,Net-(Q1-S)*%
X179000000Y-106960000D03*
X174200000Y-108160000D03*
X175400000Y-108160000D03*
X179000000Y-109360000D03*
X177800000Y-111760000D03*
X175400000Y-111760000D03*
X180200000Y-108160000D03*
X174200000Y-110560000D03*
X176600000Y-110560000D03*
X177800000Y-106960000D03*
X175400000Y-109360000D03*
X181400000Y-108160000D03*
X180200000Y-112960000D03*
X175400000Y-106960000D03*
X179000000Y-112960000D03*
X175400000Y-112960000D03*
X180200000Y-110560000D03*
X179000000Y-110560000D03*
X180200000Y-106960000D03*
X180200000Y-109360000D03*
X181400000Y-110560000D03*
X179000000Y-108160000D03*
X177800000Y-112960000D03*
X176600000Y-106960000D03*
X174200000Y-112960000D03*
X179000000Y-111760000D03*
D11*
X177800000Y-108490000D03*
D10*
X174200000Y-109360000D03*
X180200000Y-111760000D03*
X181400000Y-106960000D03*
X175400000Y-110560000D03*
X176600000Y-109360000D03*
X174200000Y-106960000D03*
X176600000Y-112960000D03*
X177800000Y-108160000D03*
X176600000Y-108160000D03*
X181400000Y-111760000D03*
X176600000Y-111760000D03*
X177800000Y-110560000D03*
X181400000Y-112960000D03*
X177800000Y-109360000D03*
X174200000Y-111760000D03*
X181400000Y-109360000D03*
%TD*%
%TO.P,Q1,3,D*%
%TO.N,VS*%
X179000000Y-85668000D03*
X174200000Y-86868000D03*
X175400000Y-86868000D03*
X179000000Y-88068000D03*
X177800000Y-90468000D03*
X175400000Y-90468000D03*
X180200000Y-86868000D03*
X174200000Y-89268000D03*
X176600000Y-89268000D03*
X177800000Y-85668000D03*
X175400000Y-88068000D03*
X181400000Y-86868000D03*
X180200000Y-91668000D03*
X175400000Y-85668000D03*
X179000000Y-91668000D03*
X175400000Y-91668000D03*
X180200000Y-89268000D03*
X179000000Y-89268000D03*
X180200000Y-85668000D03*
X180200000Y-88068000D03*
X181400000Y-89268000D03*
X179000000Y-86868000D03*
X177800000Y-91668000D03*
X176600000Y-85668000D03*
X174200000Y-91668000D03*
X179000000Y-90468000D03*
D11*
X177800000Y-87198000D03*
D10*
X174200000Y-88068000D03*
X180200000Y-90468000D03*
X181400000Y-85668000D03*
X175400000Y-89268000D03*
X176600000Y-88068000D03*
X174200000Y-85668000D03*
X176600000Y-91668000D03*
X177800000Y-86868000D03*
X176600000Y-86868000D03*
X181400000Y-90468000D03*
X176600000Y-90468000D03*
X177800000Y-89268000D03*
X181400000Y-91668000D03*
X177800000Y-88068000D03*
X174200000Y-90468000D03*
X181400000Y-88068000D03*
%TD*%
D12*
%TO.P,U6,1*%
%TO.N,unconnected-(U6-Pad1)*%
X360556500Y-114132000D03*
%TO.P,U6,2*%
%TO.N,unconnected-(U6-Pad2)*%
X360556500Y-115082000D03*
%TO.P,U6,3,K*%
%TO.N,Net-(U6-K)*%
X360556500Y-116032000D03*
%TO.P,U6,4,REF*%
%TO.N,Net-(U6-REF)*%
X362831500Y-116032000D03*
%TO.P,U6,5,A*%
%TO.N,Net-(Q5-S)*%
X362831500Y-114132000D03*
%TD*%
%TO.P,U5,1*%
%TO.N,unconnected-(U5-Pad1)*%
X360556500Y-109682000D03*
%TO.P,U5,2*%
%TO.N,unconnected-(U5-Pad2)*%
X360556500Y-110632000D03*
%TO.P,U5,3,K*%
%TO.N,Net-(U5-K)*%
X360556500Y-111582000D03*
%TO.P,U5,4,REF*%
%TO.N,Net-(U5-REF)*%
X362831500Y-111582000D03*
%TO.P,U5,5,A*%
%TO.N,Net-(Q3-S)*%
X362831500Y-109682000D03*
%TD*%
%TO.P,U4,1*%
%TO.N,unconnected-(U4-Pad1)*%
X360556500Y-105232000D03*
%TO.P,U4,2*%
%TO.N,unconnected-(U4-Pad2)*%
X360556500Y-106182000D03*
%TO.P,U4,3,K*%
%TO.N,Net-(U4-K)*%
X360556500Y-107132000D03*
%TO.P,U4,4,REF*%
%TO.N,Net-(U4-REF)*%
X362831500Y-107132000D03*
%TO.P,U4,5,A*%
%TO.N,Net-(Q1-S)*%
X362831500Y-105232000D03*
%TD*%
D13*
%TO.P,U3,1,INA*%
%TO.N,Net-(U3-INA)*%
X137590000Y-112395000D03*
%TO.P,U3,2,INB*%
%TO.N,Net-(U3-INB)*%
X137590000Y-113665000D03*
%TO.P,U3,3,VCCI*%
%TO.N,VDD*%
X137590000Y-114935000D03*
%TO.P,U3,4,GND*%
%TO.N,GND*%
X137590000Y-116205000D03*
%TO.P,U3,5,DIS*%
%TO.N,Net-(U3-DIS)*%
X137590000Y-117475000D03*
%TO.P,U3,6,DT*%
%TO.N,VDD*%
X137590000Y-118745000D03*
%TO.P,U3,7,NC*%
%TO.N,unconnected-(U3-NC-Pad7)*%
X137590000Y-120015000D03*
%TO.P,U3,8,VCCI*%
%TO.N,VDD*%
X137590000Y-121285000D03*
%TO.P,U3,9,VSSB*%
%TO.N,GND*%
X146890000Y-121285000D03*
%TO.P,U3,10,OUTB*%
%TO.N,Net-(U3-OUTB)*%
X146890000Y-120015000D03*
%TO.P,U3,11,VDDB*%
%TO.N,Net-(D3-A)*%
X146890000Y-118745000D03*
%TO.P,U3,12,NC*%
%TO.N,unconnected-(U3-NC-Pad12)*%
X146890000Y-117475000D03*
%TO.P,U3,13,NC*%
%TO.N,unconnected-(U3-NC-Pad13)*%
X146890000Y-116205000D03*
%TO.P,U3,14,VSSA*%
%TO.N,Net-(Q5-S)*%
X146890000Y-114935000D03*
%TO.P,U3,15,OUTA*%
%TO.N,Net-(U3-OUTA)*%
X146890000Y-113665000D03*
%TO.P,U3,16,VDDA*%
%TO.N,Net-(D3-K)*%
X146890000Y-112395000D03*
%TD*%
%TO.P,U2,16,VDDA*%
%TO.N,Net-(D2-K)*%
X146890000Y-97155000D03*
%TO.P,U2,15,OUTA*%
%TO.N,Net-(U2-OUTA)*%
X146890000Y-98425000D03*
%TO.P,U2,14,VSSA*%
%TO.N,Net-(Q3-S)*%
X146890000Y-99695000D03*
%TO.P,U2,13,NC*%
%TO.N,unconnected-(U2-NC-Pad13)*%
X146890000Y-100965000D03*
%TO.P,U2,12,NC*%
%TO.N,unconnected-(U2-NC-Pad12)*%
X146890000Y-102235000D03*
%TO.P,U2,11,VDDB*%
%TO.N,Net-(D2-A)*%
X146890000Y-103505000D03*
%TO.P,U2,10,OUTB*%
%TO.N,Net-(U2-OUTB)*%
X146890000Y-104775000D03*
%TO.P,U2,9,VSSB*%
%TO.N,GND*%
X146890000Y-106045000D03*
%TO.P,U2,8,VCCI*%
%TO.N,VDD*%
X137590000Y-106045000D03*
%TO.P,U2,7,NC*%
%TO.N,unconnected-(U2-NC-Pad7)*%
X137590000Y-104775000D03*
%TO.P,U2,6,DT*%
%TO.N,VDD*%
X137590000Y-103505000D03*
%TO.P,U2,5,DIS*%
%TO.N,Net-(U2-DIS)*%
X137590000Y-102235000D03*
%TO.P,U2,4,GND*%
%TO.N,GND*%
X137590000Y-100965000D03*
%TO.P,U2,3,VCCI*%
%TO.N,VDD*%
X137590000Y-99695000D03*
%TO.P,U2,2,INB*%
%TO.N,Net-(U2-INB)*%
X137590000Y-98425000D03*
%TO.P,U2,1,INA*%
%TO.N,Net-(U2-INA)*%
X137590000Y-97155000D03*
%TD*%
%TO.P,U1,16,VDDA*%
%TO.N,Net-(D1-K)*%
X146890000Y-81915000D03*
%TO.P,U1,15,OUTA*%
%TO.N,Net-(U1-OUTA)*%
X146890000Y-83185000D03*
%TO.P,U1,14,VSSA*%
%TO.N,Net-(Q1-S)*%
X146890000Y-84455000D03*
%TO.P,U1,13,NC*%
%TO.N,unconnected-(U1-NC-Pad13)*%
X146890000Y-85725000D03*
%TO.P,U1,12,NC*%
%TO.N,unconnected-(U1-NC-Pad12)*%
X146890000Y-86995000D03*
%TO.P,U1,11,VDDB*%
%TO.N,Net-(D1-A)*%
X146890000Y-88265000D03*
%TO.P,U1,10,OUTB*%
%TO.N,Net-(U1-OUTB)*%
X146890000Y-89535000D03*
%TO.P,U1,9,VSSB*%
%TO.N,GND*%
X146890000Y-90805000D03*
%TO.P,U1,8,VCCI*%
%TO.N,VDD*%
X137590000Y-90805000D03*
%TO.P,U1,7,NC*%
%TO.N,unconnected-(U1-NC-Pad7)*%
X137590000Y-89535000D03*
%TO.P,U1,6,DT*%
%TO.N,VDD*%
X137590000Y-88265000D03*
%TO.P,U1,5,DIS*%
%TO.N,Net-(U1-DIS)*%
X137590000Y-86995000D03*
%TO.P,U1,4,GND*%
%TO.N,GND*%
X137590000Y-85725000D03*
%TO.P,U1,3,VCCI*%
%TO.N,VDD*%
X137590000Y-84455000D03*
%TO.P,U1,2,INB*%
%TO.N,Net-(U1-INB)*%
X137590000Y-83185000D03*
%TO.P,U1,1,INA*%
%TO.N,Net-(U1-INA)*%
X137590000Y-81915000D03*
%TD*%
D14*
%TO.P,R33,1*%
%TO.N,Net-(U6-REF)*%
X342891500Y-60302000D03*
%TO.P,R33,2*%
%TO.N,Net-(Q5-S)*%
X344716500Y-60302000D03*
%TD*%
%TO.P,R32,1*%
%TO.N,Net-(U6-K)*%
X342891500Y-57352000D03*
%TO.P,R32,2*%
%TO.N,Net-(U6-REF)*%
X344716500Y-57352000D03*
%TD*%
%TO.P,R31,1*%
%TO.N,Net-(U5-REF)*%
X342891500Y-54402000D03*
%TO.P,R31,2*%
%TO.N,Net-(Q3-S)*%
X344716500Y-54402000D03*
%TD*%
%TO.P,R30,1*%
%TO.N,Net-(U5-K)*%
X338481500Y-78002000D03*
%TO.P,R30,2*%
%TO.N,Net-(U5-REF)*%
X340306500Y-78002000D03*
%TD*%
%TO.P,R29,1*%
%TO.N,Net-(U4-REF)*%
X338481500Y-75052000D03*
%TO.P,R29,2*%
%TO.N,Net-(Q1-S)*%
X340306500Y-75052000D03*
%TD*%
%TO.P,R28,1*%
%TO.N,Net-(U4-K)*%
X338481500Y-72102000D03*
%TO.P,R28,2*%
%TO.N,Net-(U4-REF)*%
X340306500Y-72102000D03*
%TD*%
%TO.P,R27,1*%
%TO.N,Net-(D6-K)*%
X338481500Y-69152000D03*
%TO.P,R27,2*%
%TO.N,Net-(U6-K)*%
X340306500Y-69152000D03*
%TD*%
%TO.P,R26,1*%
%TO.N,Net-(D5-K)*%
X338481500Y-66202000D03*
%TO.P,R26,2*%
%TO.N,Net-(U5-K)*%
X340306500Y-66202000D03*
%TD*%
%TO.P,R25,1*%
%TO.N,Net-(D4-K)*%
X338481500Y-63252000D03*
%TO.P,R25,2*%
%TO.N,Net-(U4-K)*%
X340306500Y-63252000D03*
%TD*%
%TO.P,R24,1*%
%TO.N,Net-(Q6-G)*%
X338481500Y-60302000D03*
%TO.P,R24,2*%
%TO.N,GND*%
X340306500Y-60302000D03*
%TD*%
%TO.P,R23,1*%
%TO.N,Net-(Q5-G)*%
X338481500Y-57352000D03*
%TO.P,R23,2*%
%TO.N,Net-(Q5-S)*%
X340306500Y-57352000D03*
%TD*%
%TO.P,R22,1*%
%TO.N,Net-(Q4-G)*%
X338481500Y-54402000D03*
%TO.P,R22,2*%
%TO.N,GND*%
X340306500Y-54402000D03*
%TD*%
%TO.P,R21,1*%
%TO.N,Net-(Q3-G)*%
X334071500Y-78002000D03*
%TO.P,R21,2*%
%TO.N,Net-(Q3-S)*%
X335896500Y-78002000D03*
%TD*%
D15*
%TO.P,R20,1*%
%TO.N,Net-(Q2-G)*%
X167894000Y-118467500D03*
%TO.P,R20,2*%
%TO.N,GND*%
X167894000Y-120292500D03*
%TD*%
%TO.P,R19,1*%
%TO.N,Net-(Q1-G)*%
X164846000Y-84177500D03*
%TO.P,R19,2*%
%TO.N,Net-(Q1-S)*%
X164846000Y-86002500D03*
%TD*%
D14*
%TO.P,R18,1*%
%TO.N,Net-(U3-OUTB)*%
X334071500Y-69152000D03*
%TO.P,R18,2*%
%TO.N,Net-(Q6-G)*%
X335896500Y-69152000D03*
%TD*%
%TO.P,R17,1*%
%TO.N,Net-(U3-OUTA)*%
X334071500Y-66202000D03*
%TO.P,R17,2*%
%TO.N,Net-(Q5-G)*%
X335896500Y-66202000D03*
%TD*%
%TO.P,R16,1*%
%TO.N,Net-(U2-OUTB)*%
X334071500Y-63252000D03*
%TO.P,R16,2*%
%TO.N,Net-(Q4-G)*%
X335896500Y-63252000D03*
%TD*%
%TO.P,R15,1*%
%TO.N,Net-(U2-OUTA)*%
X334071500Y-60302000D03*
%TO.P,R15,2*%
%TO.N,Net-(Q3-G)*%
X335896500Y-60302000D03*
%TD*%
%TO.P,R14,1*%
%TO.N,Net-(U1-OUTB)*%
X334071500Y-57352000D03*
%TO.P,R14,2*%
%TO.N,Net-(Q2-G)*%
X335896500Y-57352000D03*
%TD*%
%TO.P,R13,1*%
%TO.N,Net-(U1-OUTA)*%
X334071500Y-54402000D03*
%TO.P,R13,2*%
%TO.N,Net-(Q1-G)*%
X335896500Y-54402000D03*
%TD*%
D16*
%TO.P,R12,1*%
%TO.N,Net-(D3-A)*%
X365611500Y-112182000D03*
%TO.P,R12,2*%
%TO.N,Vdrive*%
X368536500Y-112182000D03*
%TD*%
%TO.P,R11,1*%
%TO.N,Net-(D2-A)*%
X365611500Y-108892000D03*
%TO.P,R11,2*%
%TO.N,Vdrive*%
X368536500Y-108892000D03*
%TD*%
%TO.P,R10,1*%
%TO.N,Net-(D1-A)*%
X365611500Y-105602000D03*
%TO.P,R10,2*%
%TO.N,Vdrive*%
X368536500Y-105602000D03*
%TD*%
D14*
%TO.P,R9,1*%
%TO.N,/~{ENABLE}*%
X329661500Y-78002000D03*
%TO.P,R9,2*%
%TO.N,Net-(U3-DIS)*%
X331486500Y-78002000D03*
%TD*%
%TO.P,R8,1*%
%TO.N,/WL*%
X329661500Y-75052000D03*
%TO.P,R8,2*%
%TO.N,Net-(U3-INB)*%
X331486500Y-75052000D03*
%TD*%
%TO.P,R7,1*%
%TO.N,/WH*%
X329661500Y-72102000D03*
%TO.P,R7,2*%
%TO.N,Net-(U3-INA)*%
X331486500Y-72102000D03*
%TD*%
%TO.P,R6,1*%
%TO.N,/~{ENABLE}*%
X329661500Y-69152000D03*
%TO.P,R6,2*%
%TO.N,Net-(U2-DIS)*%
X331486500Y-69152000D03*
%TD*%
%TO.P,R5,1*%
%TO.N,/VL*%
X329661500Y-66202000D03*
%TO.P,R5,2*%
%TO.N,Net-(U2-INB)*%
X331486500Y-66202000D03*
%TD*%
%TO.P,R4,1*%
%TO.N,/VH*%
X329661500Y-63252000D03*
%TO.P,R4,2*%
%TO.N,Net-(U2-INA)*%
X331486500Y-63252000D03*
%TD*%
%TO.P,R3,1*%
%TO.N,/~{ENABLE}*%
X329661500Y-60302000D03*
%TO.P,R3,2*%
%TO.N,Net-(U1-DIS)*%
X331486500Y-60302000D03*
%TD*%
%TO.P,R2,1*%
%TO.N,/UL*%
X329661500Y-57352000D03*
%TO.P,R2,2*%
%TO.N,Net-(U1-INB)*%
X331486500Y-57352000D03*
%TD*%
%TO.P,R1,1*%
%TO.N,/UH*%
X329661500Y-54402000D03*
%TO.P,R1,2*%
%TO.N,Net-(U1-INA)*%
X331486500Y-54402000D03*
%TD*%
D17*
%TO.P,D6,1,K*%
%TO.N,Net-(D6-K)*%
X356048999Y-119631999D03*
D18*
%TO.P,D6,2,A*%
%TO.N,Net-(D3-A)*%
X357948999Y-119631999D03*
%TD*%
D17*
%TO.P,D5,1,K*%
%TO.N,Net-(D5-K)*%
X356048999Y-116781999D03*
D18*
%TO.P,D5,2,A*%
%TO.N,Net-(D2-A)*%
X357948999Y-116781999D03*
%TD*%
D17*
%TO.P,D4,1,K*%
%TO.N,Net-(D4-K)*%
X356048999Y-113931999D03*
D18*
%TO.P,D4,2,A*%
%TO.N,Net-(D1-A)*%
X357948999Y-113931999D03*
%TD*%
D17*
%TO.P,D3,1,K*%
%TO.N,Net-(D3-K)*%
X356048999Y-111081999D03*
D18*
%TO.P,D3,2,A*%
%TO.N,Net-(D3-A)*%
X357948999Y-111081999D03*
%TD*%
D17*
%TO.P,D2,1,K*%
%TO.N,Net-(D2-K)*%
X356048999Y-108231999D03*
D18*
%TO.P,D2,2,A*%
%TO.N,Net-(D2-A)*%
X357948999Y-108231999D03*
%TD*%
D17*
%TO.P,D1,1,K*%
%TO.N,Net-(D1-K)*%
X356048999Y-105381999D03*
D18*
%TO.P,D1,2,A*%
%TO.N,Net-(D1-A)*%
X357948999Y-105381999D03*
%TD*%
D19*
%TO.P,C30,1*%
%TO.N,Net-(D6-K)*%
X356184000Y-72492000D03*
%TO.P,C30,2*%
%TO.N,Net-(Q5-S)*%
X358084000Y-72492000D03*
%TD*%
%TO.P,C29,1*%
%TO.N,Net-(D5-K)*%
X356184000Y-69482000D03*
%TO.P,C29,2*%
%TO.N,Net-(Q3-S)*%
X358084000Y-69482000D03*
%TD*%
%TO.P,C28,1*%
%TO.N,Net-(D4-K)*%
X356184000Y-66472000D03*
%TO.P,C28,2*%
%TO.N,Net-(Q1-S)*%
X358084000Y-66472000D03*
%TD*%
%TO.P,C27,1*%
%TO.N,Net-(D3-K)*%
X356184000Y-63462000D03*
%TO.P,C27,2*%
%TO.N,Net-(Q5-S)*%
X358084000Y-63462000D03*
%TD*%
%TO.P,C26,1*%
%TO.N,Net-(D2-K)*%
X356184000Y-60452000D03*
%TO.P,C26,2*%
%TO.N,Net-(Q3-S)*%
X358084000Y-60452000D03*
%TD*%
%TO.P,C25,1*%
%TO.N,Net-(D1-K)*%
X356184000Y-57442000D03*
%TO.P,C25,2*%
%TO.N,Net-(Q1-S)*%
X358084000Y-57442000D03*
%TD*%
%TO.P,C24,1*%
%TO.N,Net-(D3-K)*%
X356184000Y-54432000D03*
%TO.P,C24,2*%
%TO.N,Net-(Q5-S)*%
X358084000Y-54432000D03*
%TD*%
%TO.P,C23,1*%
%TO.N,Net-(D2-K)*%
X351734000Y-72492000D03*
%TO.P,C23,2*%
%TO.N,Net-(Q3-S)*%
X353634000Y-72492000D03*
%TD*%
%TO.P,C22,1*%
%TO.N,Net-(D1-K)*%
X351734000Y-69482000D03*
%TO.P,C22,2*%
%TO.N,Net-(Q1-S)*%
X353634000Y-69482000D03*
%TD*%
%TO.P,C21,1*%
%TO.N,Net-(D3-A)*%
X351734000Y-66472000D03*
%TO.P,C21,2*%
%TO.N,GND*%
X353634000Y-66472000D03*
%TD*%
%TO.P,C20,1*%
%TO.N,Net-(D2-A)*%
X351734000Y-63462000D03*
%TO.P,C20,2*%
%TO.N,GND*%
X353634000Y-63462000D03*
%TD*%
%TO.P,C19,1*%
%TO.N,Net-(D1-A)*%
X351734000Y-60452000D03*
%TO.P,C19,2*%
%TO.N,GND*%
X353634000Y-60452000D03*
%TD*%
%TO.P,C18,1*%
%TO.N,Net-(D3-A)*%
X351734000Y-57442000D03*
%TO.P,C18,2*%
%TO.N,GND*%
X353634000Y-57442000D03*
%TD*%
%TO.P,C17,1*%
%TO.N,Net-(D2-A)*%
X351734000Y-54432000D03*
%TO.P,C17,2*%
%TO.N,GND*%
X353634000Y-54432000D03*
%TD*%
%TO.P,C16,1*%
%TO.N,Net-(D1-A)*%
X347284000Y-72492000D03*
%TO.P,C16,2*%
%TO.N,GND*%
X349184000Y-72492000D03*
%TD*%
D20*
%TO.P,C15,1*%
%TO.N,Net-(U3-DIS)*%
X368189000Y-100812000D03*
%TO.P,C15,2*%
%TO.N,GND*%
X369739000Y-100812000D03*
%TD*%
%TO.P,C14,1*%
%TO.N,Net-(U2-DIS)*%
X368189000Y-98302000D03*
%TO.P,C14,2*%
%TO.N,GND*%
X369739000Y-98302000D03*
%TD*%
%TO.P,C13,1*%
%TO.N,Net-(U1-DIS)*%
X368189000Y-95792000D03*
%TO.P,C13,2*%
%TO.N,GND*%
X369739000Y-95792000D03*
%TD*%
D19*
%TO.P,C12,1*%
%TO.N,VDD*%
X347284000Y-69482000D03*
%TO.P,C12,2*%
%TO.N,GND*%
X349184000Y-69482000D03*
%TD*%
%TO.P,C11,1*%
%TO.N,VDD*%
X347284000Y-66472000D03*
%TO.P,C11,2*%
%TO.N,GND*%
X349184000Y-66472000D03*
%TD*%
%TO.P,C10,1*%
%TO.N,VDD*%
X347284000Y-63462000D03*
%TO.P,C10,2*%
%TO.N,GND*%
X349184000Y-63462000D03*
%TD*%
D20*
%TO.P,C9,1*%
%TO.N,Net-(U3-INB)*%
X368189000Y-93282000D03*
%TO.P,C9,2*%
%TO.N,GND*%
X369739000Y-93282000D03*
%TD*%
%TO.P,C8,1*%
%TO.N,Net-(U2-INB)*%
X368189000Y-90772000D03*
%TO.P,C8,2*%
%TO.N,GND*%
X369739000Y-90772000D03*
%TD*%
%TO.P,C7,1*%
%TO.N,Net-(U1-INB)*%
X368189000Y-88262000D03*
%TO.P,C7,2*%
%TO.N,GND*%
X369739000Y-88262000D03*
%TD*%
D19*
%TO.P,C6,1*%
%TO.N,VDD*%
X347284000Y-60452000D03*
%TO.P,C6,2*%
%TO.N,GND*%
X349184000Y-60452000D03*
%TD*%
%TO.P,C5,1*%
%TO.N,VDD*%
X347284000Y-57442000D03*
%TO.P,C5,2*%
%TO.N,GND*%
X349184000Y-57442000D03*
%TD*%
%TO.P,C4,1*%
%TO.N,VDD*%
X347284000Y-54432000D03*
%TO.P,C4,2*%
%TO.N,GND*%
X349184000Y-54432000D03*
%TD*%
D20*
%TO.P,C3,1*%
%TO.N,Net-(U3-INA)*%
X368189000Y-85752000D03*
%TO.P,C3,2*%
%TO.N,GND*%
X369739000Y-85752000D03*
%TD*%
%TO.P,C2,1*%
%TO.N,Net-(U2-INA)*%
X368189000Y-83242000D03*
%TO.P,C2,2*%
%TO.N,GND*%
X369739000Y-83242000D03*
%TD*%
%TO.P,C1,1*%
%TO.N,Net-(U1-INA)*%
X368189000Y-80732000D03*
%TO.P,C1,2*%
%TO.N,GND*%
X369739000Y-80732000D03*
%TD*%
D21*
%TO.N,Net-(Q1-S)*%
X177800000Y-99060000D03*
X180340000Y-101600000D03*
X177800000Y-101600000D03*
X175260000Y-99060000D03*
X180340000Y-99060000D03*
X175260000Y-101600000D03*
%TO.N,Net-(Q3-S)*%
X203200000Y-104140000D03*
X205740000Y-104140000D03*
X205740000Y-101600000D03*
X200660000Y-104140000D03*
X200660000Y-101600000D03*
X203200000Y-101600000D03*
%TO.N,Net-(Q5-S)*%
X226060000Y-101600000D03*
X226060000Y-104140000D03*
X231140000Y-101600000D03*
X231140000Y-104140000D03*
X228600000Y-104140000D03*
X228600000Y-101600000D03*
%TO.N,/W_OUT*%
X238760000Y-99060000D03*
X238760000Y-101600000D03*
%TO.N,/V_OUT*%
X213360000Y-99060000D03*
X213360000Y-101600000D03*
%TO.N,/U_OUT*%
X187960000Y-99060000D03*
X187960000Y-101600000D03*
%TO.N,VS*%
X187960000Y-78486000D03*
X175260000Y-73406000D03*
X228600000Y-75946000D03*
X185420000Y-78486000D03*
X180340000Y-75946000D03*
X187960000Y-73406000D03*
X185420000Y-73406000D03*
X228600000Y-73406000D03*
X231140000Y-73406000D03*
X231140000Y-78486000D03*
X231140000Y-75946000D03*
X228600000Y-78486000D03*
X193040000Y-75946000D03*
X198120000Y-75946000D03*
X190500000Y-75946000D03*
X180340000Y-78486000D03*
X195580000Y-78486000D03*
X193040000Y-73406000D03*
X193040000Y-78486000D03*
X177800000Y-73406000D03*
X177800000Y-78486000D03*
X177800000Y-75946000D03*
X198120000Y-78486000D03*
X180340000Y-73406000D03*
X195580000Y-73406000D03*
X190500000Y-78486000D03*
X223520000Y-73406000D03*
X190500000Y-73406000D03*
X175260000Y-78486000D03*
X220980000Y-78486000D03*
X220980000Y-73406000D03*
X223520000Y-78486000D03*
X220980000Y-75946000D03*
X218440000Y-75946000D03*
X208280000Y-73406000D03*
X205740000Y-73406000D03*
X210820000Y-75946000D03*
X218440000Y-78486000D03*
X215900000Y-73406000D03*
X210820000Y-73406000D03*
X210820000Y-78486000D03*
X208280000Y-75946000D03*
X208280000Y-78486000D03*
X205740000Y-75946000D03*
X213360000Y-73406000D03*
X205740000Y-78486000D03*
X215900000Y-75946000D03*
X215900000Y-78486000D03*
X218440000Y-73406000D03*
X213360000Y-78486000D03*
X213360000Y-75946000D03*
X226060000Y-75946000D03*
X175260000Y-75946000D03*
X187960000Y-75946000D03*
X182880000Y-75946000D03*
X226060000Y-78486000D03*
X223520000Y-75946000D03*
X198120000Y-73406000D03*
X203200000Y-75946000D03*
X203200000Y-78486000D03*
X200660000Y-73406000D03*
X200660000Y-78486000D03*
X200660000Y-75946000D03*
X203200000Y-73406000D03*
X185420000Y-75946000D03*
X182880000Y-78486000D03*
X182880000Y-73406000D03*
X195580000Y-75946000D03*
X226060000Y-73406000D03*
%TO.N,GND*%
X228600000Y-124460000D03*
X231140000Y-124460000D03*
X231140000Y-129540000D03*
X231140000Y-127000000D03*
X228600000Y-129540000D03*
X228600000Y-127000000D03*
X220980000Y-124460000D03*
X226060000Y-127000000D03*
X226060000Y-129540000D03*
X223520000Y-124460000D03*
X223520000Y-129540000D03*
X223520000Y-127000000D03*
X226060000Y-124460000D03*
X220980000Y-129540000D03*
X220980000Y-127000000D03*
X213360000Y-124460000D03*
X218440000Y-127000000D03*
X218440000Y-129540000D03*
X215900000Y-124460000D03*
X215900000Y-129540000D03*
X215900000Y-127000000D03*
X218440000Y-124460000D03*
X213360000Y-129540000D03*
X213360000Y-127000000D03*
X205740000Y-124460000D03*
X210820000Y-127000000D03*
X210820000Y-129540000D03*
X208280000Y-124460000D03*
X208280000Y-129540000D03*
X208280000Y-127000000D03*
X210820000Y-124460000D03*
X205740000Y-129540000D03*
X205740000Y-127000000D03*
X198120000Y-124460000D03*
X203200000Y-127000000D03*
X203200000Y-129540000D03*
X200660000Y-124460000D03*
X200660000Y-129540000D03*
X200660000Y-127000000D03*
X203200000Y-124460000D03*
X198120000Y-129540000D03*
X198120000Y-127000000D03*
X190500000Y-124460000D03*
X195580000Y-127000000D03*
X195580000Y-129540000D03*
X193040000Y-124460000D03*
X193040000Y-129540000D03*
X193040000Y-127000000D03*
X195580000Y-124460000D03*
X190500000Y-129540000D03*
X190500000Y-127000000D03*
X182880000Y-124460000D03*
X187960000Y-127000000D03*
X187960000Y-129540000D03*
X185420000Y-124460000D03*
X185420000Y-129540000D03*
X185420000Y-127000000D03*
X187960000Y-124460000D03*
X182880000Y-129540000D03*
X182880000Y-127000000D03*
X180340000Y-124460000D03*
X180340000Y-129540000D03*
X180340000Y-127000000D03*
X177800000Y-124460000D03*
X177800000Y-129540000D03*
X177800000Y-127000000D03*
X175260000Y-124460000D03*
X175260000Y-127000000D03*
X175260000Y-129540000D03*
%TO.N,/W_OUT*%
X241300000Y-111760000D03*
X238760000Y-109220000D03*
X241300000Y-109220000D03*
X238760000Y-106680000D03*
X243840000Y-101600000D03*
X243840000Y-106680000D03*
X243840000Y-114300000D03*
X243840000Y-99060000D03*
X238760000Y-111760000D03*
X241300000Y-106680000D03*
X238760000Y-114300000D03*
X243840000Y-109220000D03*
X241300000Y-114300000D03*
X243840000Y-111760000D03*
X241300000Y-99060000D03*
X241300000Y-101600000D03*
%TO.N,/V_OUT*%
X215900000Y-99060000D03*
X213360000Y-109220000D03*
X218440000Y-101600000D03*
X215900000Y-101600000D03*
X215900000Y-114300000D03*
X218440000Y-106680000D03*
X213360000Y-106680000D03*
X218440000Y-111760000D03*
X218440000Y-114300000D03*
X218440000Y-99060000D03*
X215900000Y-111760000D03*
X215900000Y-109220000D03*
X215900000Y-106680000D03*
X213360000Y-114300000D03*
X213360000Y-111760000D03*
X218440000Y-109220000D03*
%TO.N,/U_OUT*%
X193040000Y-99060000D03*
X190500000Y-99060000D03*
X193040000Y-101600000D03*
X190500000Y-101600000D03*
X193040000Y-106680000D03*
X190500000Y-106680000D03*
X187960000Y-106680000D03*
X193040000Y-109220000D03*
X190500000Y-109220000D03*
X187960000Y-109220000D03*
X187960000Y-111760000D03*
X190500000Y-111760000D03*
X193040000Y-111760000D03*
X193040000Y-114300000D03*
X190500000Y-114300000D03*
X187960000Y-114300000D03*
%TD*%
%TA.AperFunction,Conductor*%
%TO.N,Net-(Q5-S)*%
G36*
X234126000Y-94504613D02*
G01*
X234171387Y-94550000D01*
X234188000Y-94612000D01*
X234188000Y-113922000D01*
X234171387Y-113984000D01*
X234126000Y-114029387D01*
X234064000Y-114046000D01*
X223136000Y-114046000D01*
X223074000Y-114029387D01*
X223028613Y-113984000D01*
X223012000Y-113922000D01*
X223012000Y-94612000D01*
X223028613Y-94550000D01*
X223074000Y-94504613D01*
X223136000Y-94488000D01*
X234064000Y-94488000D01*
X234126000Y-94504613D01*
G37*
%TD.AperFunction*%
%TD*%
%TA.AperFunction,Conductor*%
%TO.N,Net-(Q3-S)*%
G36*
X208726000Y-94504613D02*
G01*
X208771387Y-94550000D01*
X208788000Y-94612000D01*
X208788000Y-113922000D01*
X208771387Y-113984000D01*
X208726000Y-114029387D01*
X208664000Y-114046000D01*
X197736000Y-114046000D01*
X197674000Y-114029387D01*
X197628613Y-113984000D01*
X197612000Y-113922000D01*
X197612000Y-94612000D01*
X197628613Y-94550000D01*
X197674000Y-94504613D01*
X197736000Y-94488000D01*
X208664000Y-94488000D01*
X208726000Y-94504613D01*
G37*
%TD.AperFunction*%
%TD*%
%TA.AperFunction,Conductor*%
%TO.N,Net-(Q1-S)*%
G36*
X183326000Y-94504613D02*
G01*
X183371387Y-94550000D01*
X183388000Y-94612000D01*
X183388000Y-113922000D01*
X183371387Y-113984000D01*
X183326000Y-114029387D01*
X183264000Y-114046000D01*
X172336000Y-114046000D01*
X172274000Y-114029387D01*
X172228613Y-113984000D01*
X172212000Y-113922000D01*
X172212000Y-94612000D01*
X172228613Y-94550000D01*
X172274000Y-94504613D01*
X172336000Y-94488000D01*
X183264000Y-94488000D01*
X183326000Y-94504613D01*
G37*
%TD.AperFunction*%
%TD*%
%TA.AperFunction,Conductor*%
%TO.N,/U_OUT*%
G36*
X195518000Y-96536613D02*
G01*
X195563387Y-96582000D01*
X195580000Y-96644000D01*
X195580000Y-116716000D01*
X195563387Y-116778000D01*
X195518000Y-116823387D01*
X195456000Y-116840000D01*
X185544000Y-116840000D01*
X185482000Y-116823387D01*
X185436613Y-116778000D01*
X185420000Y-116716000D01*
X185420000Y-96644000D01*
X185436613Y-96582000D01*
X185482000Y-96536613D01*
X185544000Y-96520000D01*
X195456000Y-96520000D01*
X195518000Y-96536613D01*
G37*
%TD.AperFunction*%
%TD*%
%TA.AperFunction,Conductor*%
%TO.N,/V_OUT*%
G36*
X220918000Y-96536613D02*
G01*
X220963387Y-96582000D01*
X220980000Y-96644000D01*
X220980000Y-116716000D01*
X220963387Y-116778000D01*
X220918000Y-116823387D01*
X220856000Y-116840000D01*
X210944000Y-116840000D01*
X210882000Y-116823387D01*
X210836613Y-116778000D01*
X210820000Y-116716000D01*
X210820000Y-96644000D01*
X210836613Y-96582000D01*
X210882000Y-96536613D01*
X210944000Y-96520000D01*
X220856000Y-96520000D01*
X220918000Y-96536613D01*
G37*
%TD.AperFunction*%
%TD*%
%TA.AperFunction,Conductor*%
%TO.N,/W_OUT*%
G36*
X246317500Y-96536613D02*
G01*
X246362887Y-96582000D01*
X246379500Y-96644000D01*
X246379500Y-116716000D01*
X246362887Y-116778000D01*
X246317500Y-116823387D01*
X246255500Y-116840000D01*
X236344000Y-116840000D01*
X236282000Y-116823387D01*
X236236613Y-116778000D01*
X236220000Y-116716000D01*
X236220000Y-96644000D01*
X236236613Y-96582000D01*
X236282000Y-96536613D01*
X236344000Y-96520000D01*
X246255500Y-96520000D01*
X246317500Y-96536613D01*
G37*
%TD.AperFunction*%
%TD*%
%TA.AperFunction,Conductor*%
%TO.N,GND*%
G36*
X183326000Y-115840613D02*
G01*
X183371387Y-115886000D01*
X183388000Y-115948000D01*
X183388000Y-121920000D01*
X183404326Y-121920000D01*
X197595674Y-121920000D01*
X197612000Y-121920000D01*
X197612000Y-115948000D01*
X197628613Y-115886000D01*
X197674000Y-115840613D01*
X197736000Y-115824000D01*
X208664000Y-115824000D01*
X208726000Y-115840613D01*
X208771387Y-115886000D01*
X208788000Y-115948000D01*
X208788000Y-121920000D01*
X208804326Y-121920000D01*
X222995674Y-121920000D01*
X223012000Y-121920000D01*
X223012000Y-115948000D01*
X223028613Y-115886000D01*
X223074000Y-115840613D01*
X223136000Y-115824000D01*
X234064000Y-115824000D01*
X234126000Y-115840613D01*
X234171387Y-115886000D01*
X234188000Y-115948000D01*
X234188000Y-131955500D01*
X234171387Y-132017500D01*
X234126000Y-132062887D01*
X234064000Y-132079500D01*
X172336000Y-132079500D01*
X172274000Y-132062887D01*
X172228613Y-132017500D01*
X172212000Y-131955500D01*
X172212000Y-115948000D01*
X172228613Y-115886000D01*
X172274000Y-115840613D01*
X172336000Y-115824000D01*
X183264000Y-115824000D01*
X183326000Y-115840613D01*
G37*
%TD.AperFunction*%
%TD*%
%TA.AperFunction,Conductor*%
%TO.N,VS*%
G36*
X234126000Y-71137113D02*
G01*
X234171387Y-71182500D01*
X234188000Y-71244500D01*
X234188000Y-92586000D01*
X234171387Y-92648000D01*
X234126000Y-92693387D01*
X234064000Y-92710000D01*
X223136000Y-92710000D01*
X223074000Y-92693387D01*
X223028613Y-92648000D01*
X223012000Y-92586000D01*
X223012000Y-81296326D01*
X223012000Y-81280000D01*
X222995674Y-81280000D01*
X208804326Y-81280000D01*
X208788000Y-81280000D01*
X208788000Y-81296326D01*
X208788000Y-92586000D01*
X208771387Y-92648000D01*
X208726000Y-92693387D01*
X208664000Y-92710000D01*
X197736000Y-92710000D01*
X197674000Y-92693387D01*
X197628613Y-92648000D01*
X197612000Y-92586000D01*
X197612000Y-81296326D01*
X197612000Y-81280000D01*
X197595674Y-81280000D01*
X183404326Y-81280000D01*
X183388000Y-81280000D01*
X183388000Y-81296326D01*
X183388000Y-92586000D01*
X183371387Y-92648000D01*
X183326000Y-92693387D01*
X183264000Y-92710000D01*
X172336000Y-92710000D01*
X172274000Y-92693387D01*
X172228613Y-92648000D01*
X172212000Y-92586000D01*
X172212000Y-71244500D01*
X172228613Y-71182500D01*
X172274000Y-71137113D01*
X172336000Y-71120500D01*
X234064000Y-71120500D01*
X234126000Y-71137113D01*
G37*
%TD.AperFunction*%
%TD*%
M02*
