%TF.GenerationSoftware,KiCad,Pcbnew,(7.0.0-0)*%
%TF.CreationDate,2023-06-28T09:11:27-07:00*%
%TF.ProjectId,Power Stage,506f7765-7220-4537-9461-67652e6b6963,rev?*%
%TF.SameCoordinates,Original*%
%TF.FileFunction,Soldermask,Bot*%
%TF.FilePolarity,Negative*%
%FSLAX46Y46*%
G04 Gerber Fmt 4.6, Leading zero omitted, Abs format (unit mm)*
G04 Created by KiCad (PCBNEW (7.0.0-0)) date 2023-06-28 09:11:27*
%MOMM*%
%LPD*%
G01*
G04 APERTURE LIST*
G04 Aperture macros list*
%AMRoundRect*
0 Rectangle with rounded corners*
0 $1 Rounding radius*
0 $2 $3 $4 $5 $6 $7 $8 $9 X,Y pos of 4 corners*
0 Add a 4 corners polygon primitive as box body*
4,1,4,$2,$3,$4,$5,$6,$7,$8,$9,$2,$3,0*
0 Add four circle primitives for the rounded corners*
1,1,$1+$1,$2,$3*
1,1,$1+$1,$4,$5*
1,1,$1+$1,$6,$7*
1,1,$1+$1,$8,$9*
0 Add four rect primitives between the rounded corners*
20,1,$1+$1,$2,$3,$4,$5,0*
20,1,$1+$1,$4,$5,$6,$7,0*
20,1,$1+$1,$6,$7,$8,$9,0*
20,1,$1+$1,$8,$9,$2,$3,0*%
%AMFreePoly0*
4,1,13,2.850000,-5.050000,1.450000,-5.050000,1.450000,-4.350000,-1.450000,-4.350000,-1.450000,-4.850000,-5.150000,-4.850000,-5.150000,4.850000,-1.450000,4.850000,-1.450000,4.350000,1.450000,4.350000,1.450000,5.050000,2.850000,5.050000,2.850000,-5.050000,2.850000,-5.050000,$1*%
%AMFreePoly1*
4,1,30,0.400000,-4.000000,-0.400000,-4.000000,-2.400000,-4.000000,-2.400000,-3.200000,-0.400000,-3.200000,-0.400000,-2.800000,-2.400000,-2.800000,-2.400000,-2.000000,-0.400000,-2.000000,-0.400000,-1.600000,-2.400000,-1.600000,-2.400000,-0.800000,-0.400000,-0.800000,-0.400000,-0.400000,-2.400000,-0.400000,-2.400000,0.400000,-0.400000,0.400000,-0.400000,0.800000,-2.400000,0.800000,-2.400000,1.600000,
-0.400000,1.600000,-0.400000,2.000000,-2.400000,2.000000,-2.400000,2.800000,-0.400000,2.800000,-0.400000,3.200000,-2.400000,3.200000,-2.400000,4.000000,0.400000,4.000000,0.400000,-4.000000,0.400000,-4.000000,$1*%
G04 Aperture macros list end*
%ADD10FreePoly0,90.000000*%
%ADD11FreePoly1,90.000000*%
%ADD12R,0.800000X2.800000*%
%ADD13RoundRect,0.162500X1.012500X0.162500X-1.012500X0.162500X-1.012500X-0.162500X1.012500X-0.162500X0*%
%ADD14RoundRect,0.250000X0.262500X0.450000X-0.262500X0.450000X-0.262500X-0.450000X0.262500X-0.450000X0*%
%ADD15R,2.700000X6.200000*%
%ADD16RoundRect,0.250000X-0.650000X0.325000X-0.650000X-0.325000X0.650000X-0.325000X0.650000X0.325000X0*%
%ADD17RoundRect,0.250000X-0.475000X0.250000X-0.475000X-0.250000X0.475000X-0.250000X0.475000X0.250000X0*%
G04 APERTURE END LIST*
D10*
%TO.C,Q6*%
X228600000Y-108490000D03*
D11*
X228000000Y-116540000D03*
D12*
X232799999Y-117539999D03*
%TD*%
D10*
%TO.C,Q5*%
X228600000Y-87198000D03*
D11*
X228000000Y-95248000D03*
D12*
X232799999Y-96247999D03*
%TD*%
D10*
%TO.C,Q4*%
X203200000Y-108490000D03*
D11*
X202600000Y-116540000D03*
D12*
X207399999Y-117539999D03*
%TD*%
D10*
%TO.C,Q3*%
X203200000Y-87198000D03*
D11*
X202600000Y-95248000D03*
D12*
X207399999Y-96247999D03*
%TD*%
D10*
%TO.C,Q2*%
X177800000Y-108490000D03*
D11*
X177200000Y-116540000D03*
D12*
X181999999Y-117539999D03*
%TD*%
D10*
%TO.C,Q1*%
X177800000Y-87198000D03*
D11*
X177200000Y-95248000D03*
D12*
X181999999Y-96247999D03*
%TD*%
D13*
%TO.C,U9*%
X146765000Y-113030000D03*
X146765000Y-115570000D03*
X146765000Y-118110000D03*
X146765000Y-120650000D03*
X137715000Y-120650000D03*
X137715000Y-118110000D03*
X137715000Y-115570000D03*
X137715000Y-113030000D03*
%TD*%
%TO.C,U8*%
X137715000Y-97790000D03*
X137715000Y-100330000D03*
X137715000Y-102870000D03*
X137715000Y-105410000D03*
X146765000Y-105410000D03*
X146765000Y-102870000D03*
X146765000Y-100330000D03*
X146765000Y-97790000D03*
%TD*%
%TO.C,U7*%
X146765000Y-82550000D03*
X146765000Y-85090000D03*
X146765000Y-87630000D03*
X146765000Y-90170000D03*
X137715000Y-90170000D03*
X137715000Y-87630000D03*
X137715000Y-85090000D03*
X137715000Y-82550000D03*
%TD*%
D14*
%TO.C,R42*%
X158392500Y-118110000D03*
X156567500Y-118110000D03*
%TD*%
%TO.C,R41*%
X158392500Y-115570000D03*
X156567500Y-115570000D03*
%TD*%
%TO.C,R40*%
X158392500Y-102870000D03*
X156567500Y-102870000D03*
%TD*%
%TO.C,R39*%
X158392500Y-100330000D03*
X156567500Y-100330000D03*
%TD*%
%TO.C,R38*%
X158392500Y-87630000D03*
X156567500Y-87630000D03*
%TD*%
%TO.C,R37*%
X158392500Y-85090000D03*
X156567500Y-85090000D03*
%TD*%
D15*
%TO.C,R36*%
X230037999Y-101599999D03*
%TD*%
%TO.C,R35*%
X204637999Y-101599999D03*
%TD*%
%TO.C,R34*%
X179237999Y-101599999D03*
%TD*%
D16*
%TO.C,C39*%
X133350000Y-115365000D03*
X133350000Y-118315000D03*
%TD*%
%TO.C,C38*%
X133350000Y-100125000D03*
X133350000Y-103075000D03*
%TD*%
%TO.C,C37*%
X133350000Y-84885000D03*
X133350000Y-87835000D03*
%TD*%
%TO.C,C36*%
X151130000Y-115365000D03*
X151130000Y-118315000D03*
%TD*%
%TO.C,C35*%
X151130000Y-100125000D03*
X151130000Y-103075000D03*
%TD*%
%TO.C,C34*%
X151130000Y-84885000D03*
X151130000Y-87835000D03*
%TD*%
D17*
%TO.C,C33*%
X153924000Y-115890000D03*
X153924000Y-117790000D03*
%TD*%
%TO.C,C32*%
X153924000Y-100650000D03*
X153924000Y-102550000D03*
%TD*%
%TO.C,C31*%
X153924000Y-85410000D03*
X153924000Y-87310000D03*
%TD*%
M02*
