%TF.GenerationSoftware,KiCad,Pcbnew,(7.0.0-0)*%
%TF.CreationDate,2023-06-28T09:11:27-07:00*%
%TF.ProjectId,Power Stage,506f7765-7220-4537-9461-67652e6b6963,rev?*%
%TF.SameCoordinates,Original*%
%TF.FileFunction,Legend,Bot*%
%TF.FilePolarity,Positive*%
%FSLAX46Y46*%
G04 Gerber Fmt 4.6, Leading zero omitted, Abs format (unit mm)*
G04 Created by KiCad (PCBNEW (7.0.0-0)) date 2023-06-28 09:11:27*
%MOMM*%
%LPD*%
G01*
G04 APERTURE LIST*
%ADD10C,0.150000*%
%ADD11C,0.120000*%
G04 APERTURE END LIST*
D10*
%TO.C,Q6*%
X235062619Y-112194761D02*
X235015000Y-112099523D01*
X235015000Y-112099523D02*
X234919761Y-112004285D01*
X234919761Y-112004285D02*
X234776904Y-111861428D01*
X234776904Y-111861428D02*
X234729285Y-111766190D01*
X234729285Y-111766190D02*
X234729285Y-111670952D01*
X234967380Y-111718571D02*
X234919761Y-111623333D01*
X234919761Y-111623333D02*
X234824523Y-111528095D01*
X234824523Y-111528095D02*
X234634047Y-111480476D01*
X234634047Y-111480476D02*
X234300714Y-111480476D01*
X234300714Y-111480476D02*
X234110238Y-111528095D01*
X234110238Y-111528095D02*
X234015000Y-111623333D01*
X234015000Y-111623333D02*
X233967380Y-111718571D01*
X233967380Y-111718571D02*
X233967380Y-111909047D01*
X233967380Y-111909047D02*
X234015000Y-112004285D01*
X234015000Y-112004285D02*
X234110238Y-112099523D01*
X234110238Y-112099523D02*
X234300714Y-112147142D01*
X234300714Y-112147142D02*
X234634047Y-112147142D01*
X234634047Y-112147142D02*
X234824523Y-112099523D01*
X234824523Y-112099523D02*
X234919761Y-112004285D01*
X234919761Y-112004285D02*
X234967380Y-111909047D01*
X234967380Y-111909047D02*
X234967380Y-111718571D01*
X233967380Y-113004285D02*
X233967380Y-112813809D01*
X233967380Y-112813809D02*
X234015000Y-112718571D01*
X234015000Y-112718571D02*
X234062619Y-112670952D01*
X234062619Y-112670952D02*
X234205476Y-112575714D01*
X234205476Y-112575714D02*
X234395952Y-112528095D01*
X234395952Y-112528095D02*
X234776904Y-112528095D01*
X234776904Y-112528095D02*
X234872142Y-112575714D01*
X234872142Y-112575714D02*
X234919761Y-112623333D01*
X234919761Y-112623333D02*
X234967380Y-112718571D01*
X234967380Y-112718571D02*
X234967380Y-112909047D01*
X234967380Y-112909047D02*
X234919761Y-113004285D01*
X234919761Y-113004285D02*
X234872142Y-113051904D01*
X234872142Y-113051904D02*
X234776904Y-113099523D01*
X234776904Y-113099523D02*
X234538809Y-113099523D01*
X234538809Y-113099523D02*
X234443571Y-113051904D01*
X234443571Y-113051904D02*
X234395952Y-113004285D01*
X234395952Y-113004285D02*
X234348333Y-112909047D01*
X234348333Y-112909047D02*
X234348333Y-112718571D01*
X234348333Y-112718571D02*
X234395952Y-112623333D01*
X234395952Y-112623333D02*
X234443571Y-112575714D01*
X234443571Y-112575714D02*
X234538809Y-112528095D01*
%TO.C,Q5*%
X235062619Y-90902761D02*
X235015000Y-90807523D01*
X235015000Y-90807523D02*
X234919761Y-90712285D01*
X234919761Y-90712285D02*
X234776904Y-90569428D01*
X234776904Y-90569428D02*
X234729285Y-90474190D01*
X234729285Y-90474190D02*
X234729285Y-90378952D01*
X234967380Y-90426571D02*
X234919761Y-90331333D01*
X234919761Y-90331333D02*
X234824523Y-90236095D01*
X234824523Y-90236095D02*
X234634047Y-90188476D01*
X234634047Y-90188476D02*
X234300714Y-90188476D01*
X234300714Y-90188476D02*
X234110238Y-90236095D01*
X234110238Y-90236095D02*
X234015000Y-90331333D01*
X234015000Y-90331333D02*
X233967380Y-90426571D01*
X233967380Y-90426571D02*
X233967380Y-90617047D01*
X233967380Y-90617047D02*
X234015000Y-90712285D01*
X234015000Y-90712285D02*
X234110238Y-90807523D01*
X234110238Y-90807523D02*
X234300714Y-90855142D01*
X234300714Y-90855142D02*
X234634047Y-90855142D01*
X234634047Y-90855142D02*
X234824523Y-90807523D01*
X234824523Y-90807523D02*
X234919761Y-90712285D01*
X234919761Y-90712285D02*
X234967380Y-90617047D01*
X234967380Y-90617047D02*
X234967380Y-90426571D01*
X233967380Y-91759904D02*
X233967380Y-91283714D01*
X233967380Y-91283714D02*
X234443571Y-91236095D01*
X234443571Y-91236095D02*
X234395952Y-91283714D01*
X234395952Y-91283714D02*
X234348333Y-91378952D01*
X234348333Y-91378952D02*
X234348333Y-91617047D01*
X234348333Y-91617047D02*
X234395952Y-91712285D01*
X234395952Y-91712285D02*
X234443571Y-91759904D01*
X234443571Y-91759904D02*
X234538809Y-91807523D01*
X234538809Y-91807523D02*
X234776904Y-91807523D01*
X234776904Y-91807523D02*
X234872142Y-91759904D01*
X234872142Y-91759904D02*
X234919761Y-91712285D01*
X234919761Y-91712285D02*
X234967380Y-91617047D01*
X234967380Y-91617047D02*
X234967380Y-91378952D01*
X234967380Y-91378952D02*
X234919761Y-91283714D01*
X234919761Y-91283714D02*
X234872142Y-91236095D01*
%TO.C,Q4*%
X209662619Y-112194761D02*
X209615000Y-112099523D01*
X209615000Y-112099523D02*
X209519761Y-112004285D01*
X209519761Y-112004285D02*
X209376904Y-111861428D01*
X209376904Y-111861428D02*
X209329285Y-111766190D01*
X209329285Y-111766190D02*
X209329285Y-111670952D01*
X209567380Y-111718571D02*
X209519761Y-111623333D01*
X209519761Y-111623333D02*
X209424523Y-111528095D01*
X209424523Y-111528095D02*
X209234047Y-111480476D01*
X209234047Y-111480476D02*
X208900714Y-111480476D01*
X208900714Y-111480476D02*
X208710238Y-111528095D01*
X208710238Y-111528095D02*
X208615000Y-111623333D01*
X208615000Y-111623333D02*
X208567380Y-111718571D01*
X208567380Y-111718571D02*
X208567380Y-111909047D01*
X208567380Y-111909047D02*
X208615000Y-112004285D01*
X208615000Y-112004285D02*
X208710238Y-112099523D01*
X208710238Y-112099523D02*
X208900714Y-112147142D01*
X208900714Y-112147142D02*
X209234047Y-112147142D01*
X209234047Y-112147142D02*
X209424523Y-112099523D01*
X209424523Y-112099523D02*
X209519761Y-112004285D01*
X209519761Y-112004285D02*
X209567380Y-111909047D01*
X209567380Y-111909047D02*
X209567380Y-111718571D01*
X208900714Y-113004285D02*
X209567380Y-113004285D01*
X208519761Y-112766190D02*
X209234047Y-112528095D01*
X209234047Y-112528095D02*
X209234047Y-113147142D01*
%TO.C,Q3*%
X209662619Y-90902761D02*
X209615000Y-90807523D01*
X209615000Y-90807523D02*
X209519761Y-90712285D01*
X209519761Y-90712285D02*
X209376904Y-90569428D01*
X209376904Y-90569428D02*
X209329285Y-90474190D01*
X209329285Y-90474190D02*
X209329285Y-90378952D01*
X209567380Y-90426571D02*
X209519761Y-90331333D01*
X209519761Y-90331333D02*
X209424523Y-90236095D01*
X209424523Y-90236095D02*
X209234047Y-90188476D01*
X209234047Y-90188476D02*
X208900714Y-90188476D01*
X208900714Y-90188476D02*
X208710238Y-90236095D01*
X208710238Y-90236095D02*
X208615000Y-90331333D01*
X208615000Y-90331333D02*
X208567380Y-90426571D01*
X208567380Y-90426571D02*
X208567380Y-90617047D01*
X208567380Y-90617047D02*
X208615000Y-90712285D01*
X208615000Y-90712285D02*
X208710238Y-90807523D01*
X208710238Y-90807523D02*
X208900714Y-90855142D01*
X208900714Y-90855142D02*
X209234047Y-90855142D01*
X209234047Y-90855142D02*
X209424523Y-90807523D01*
X209424523Y-90807523D02*
X209519761Y-90712285D01*
X209519761Y-90712285D02*
X209567380Y-90617047D01*
X209567380Y-90617047D02*
X209567380Y-90426571D01*
X208567380Y-91188476D02*
X208567380Y-91807523D01*
X208567380Y-91807523D02*
X208948333Y-91474190D01*
X208948333Y-91474190D02*
X208948333Y-91617047D01*
X208948333Y-91617047D02*
X208995952Y-91712285D01*
X208995952Y-91712285D02*
X209043571Y-91759904D01*
X209043571Y-91759904D02*
X209138809Y-91807523D01*
X209138809Y-91807523D02*
X209376904Y-91807523D01*
X209376904Y-91807523D02*
X209472142Y-91759904D01*
X209472142Y-91759904D02*
X209519761Y-91712285D01*
X209519761Y-91712285D02*
X209567380Y-91617047D01*
X209567380Y-91617047D02*
X209567380Y-91331333D01*
X209567380Y-91331333D02*
X209519761Y-91236095D01*
X209519761Y-91236095D02*
X209472142Y-91188476D01*
%TO.C,Q2*%
X184262619Y-112194761D02*
X184215000Y-112099523D01*
X184215000Y-112099523D02*
X184119761Y-112004285D01*
X184119761Y-112004285D02*
X183976904Y-111861428D01*
X183976904Y-111861428D02*
X183929285Y-111766190D01*
X183929285Y-111766190D02*
X183929285Y-111670952D01*
X184167380Y-111718571D02*
X184119761Y-111623333D01*
X184119761Y-111623333D02*
X184024523Y-111528095D01*
X184024523Y-111528095D02*
X183834047Y-111480476D01*
X183834047Y-111480476D02*
X183500714Y-111480476D01*
X183500714Y-111480476D02*
X183310238Y-111528095D01*
X183310238Y-111528095D02*
X183215000Y-111623333D01*
X183215000Y-111623333D02*
X183167380Y-111718571D01*
X183167380Y-111718571D02*
X183167380Y-111909047D01*
X183167380Y-111909047D02*
X183215000Y-112004285D01*
X183215000Y-112004285D02*
X183310238Y-112099523D01*
X183310238Y-112099523D02*
X183500714Y-112147142D01*
X183500714Y-112147142D02*
X183834047Y-112147142D01*
X183834047Y-112147142D02*
X184024523Y-112099523D01*
X184024523Y-112099523D02*
X184119761Y-112004285D01*
X184119761Y-112004285D02*
X184167380Y-111909047D01*
X184167380Y-111909047D02*
X184167380Y-111718571D01*
X183262619Y-112528095D02*
X183215000Y-112575714D01*
X183215000Y-112575714D02*
X183167380Y-112670952D01*
X183167380Y-112670952D02*
X183167380Y-112909047D01*
X183167380Y-112909047D02*
X183215000Y-113004285D01*
X183215000Y-113004285D02*
X183262619Y-113051904D01*
X183262619Y-113051904D02*
X183357857Y-113099523D01*
X183357857Y-113099523D02*
X183453095Y-113099523D01*
X183453095Y-113099523D02*
X183595952Y-113051904D01*
X183595952Y-113051904D02*
X184167380Y-112480476D01*
X184167380Y-112480476D02*
X184167380Y-113099523D01*
%TO.C,Q1*%
X184262619Y-90902761D02*
X184215000Y-90807523D01*
X184215000Y-90807523D02*
X184119761Y-90712285D01*
X184119761Y-90712285D02*
X183976904Y-90569428D01*
X183976904Y-90569428D02*
X183929285Y-90474190D01*
X183929285Y-90474190D02*
X183929285Y-90378952D01*
X184167380Y-90426571D02*
X184119761Y-90331333D01*
X184119761Y-90331333D02*
X184024523Y-90236095D01*
X184024523Y-90236095D02*
X183834047Y-90188476D01*
X183834047Y-90188476D02*
X183500714Y-90188476D01*
X183500714Y-90188476D02*
X183310238Y-90236095D01*
X183310238Y-90236095D02*
X183215000Y-90331333D01*
X183215000Y-90331333D02*
X183167380Y-90426571D01*
X183167380Y-90426571D02*
X183167380Y-90617047D01*
X183167380Y-90617047D02*
X183215000Y-90712285D01*
X183215000Y-90712285D02*
X183310238Y-90807523D01*
X183310238Y-90807523D02*
X183500714Y-90855142D01*
X183500714Y-90855142D02*
X183834047Y-90855142D01*
X183834047Y-90855142D02*
X184024523Y-90807523D01*
X184024523Y-90807523D02*
X184119761Y-90712285D01*
X184119761Y-90712285D02*
X184167380Y-90617047D01*
X184167380Y-90617047D02*
X184167380Y-90426571D01*
X184167380Y-91807523D02*
X184167380Y-91236095D01*
X184167380Y-91521809D02*
X183167380Y-91521809D01*
X183167380Y-91521809D02*
X183310238Y-91426571D01*
X183310238Y-91426571D02*
X183405476Y-91331333D01*
X183405476Y-91331333D02*
X183453095Y-91236095D01*
%TO.C,U9*%
X143001904Y-110111380D02*
X143001904Y-110920904D01*
X143001904Y-110920904D02*
X142954285Y-111016142D01*
X142954285Y-111016142D02*
X142906666Y-111063761D01*
X142906666Y-111063761D02*
X142811428Y-111111380D01*
X142811428Y-111111380D02*
X142620952Y-111111380D01*
X142620952Y-111111380D02*
X142525714Y-111063761D01*
X142525714Y-111063761D02*
X142478095Y-111016142D01*
X142478095Y-111016142D02*
X142430476Y-110920904D01*
X142430476Y-110920904D02*
X142430476Y-110111380D01*
X141906666Y-111111380D02*
X141716190Y-111111380D01*
X141716190Y-111111380D02*
X141620952Y-111063761D01*
X141620952Y-111063761D02*
X141573333Y-111016142D01*
X141573333Y-111016142D02*
X141478095Y-110873285D01*
X141478095Y-110873285D02*
X141430476Y-110682809D01*
X141430476Y-110682809D02*
X141430476Y-110301857D01*
X141430476Y-110301857D02*
X141478095Y-110206619D01*
X141478095Y-110206619D02*
X141525714Y-110159000D01*
X141525714Y-110159000D02*
X141620952Y-110111380D01*
X141620952Y-110111380D02*
X141811428Y-110111380D01*
X141811428Y-110111380D02*
X141906666Y-110159000D01*
X141906666Y-110159000D02*
X141954285Y-110206619D01*
X141954285Y-110206619D02*
X142001904Y-110301857D01*
X142001904Y-110301857D02*
X142001904Y-110539952D01*
X142001904Y-110539952D02*
X141954285Y-110635190D01*
X141954285Y-110635190D02*
X141906666Y-110682809D01*
X141906666Y-110682809D02*
X141811428Y-110730428D01*
X141811428Y-110730428D02*
X141620952Y-110730428D01*
X141620952Y-110730428D02*
X141525714Y-110682809D01*
X141525714Y-110682809D02*
X141478095Y-110635190D01*
X141478095Y-110635190D02*
X141430476Y-110539952D01*
%TO.C,U8*%
X143001904Y-94871380D02*
X143001904Y-95680904D01*
X143001904Y-95680904D02*
X142954285Y-95776142D01*
X142954285Y-95776142D02*
X142906666Y-95823761D01*
X142906666Y-95823761D02*
X142811428Y-95871380D01*
X142811428Y-95871380D02*
X142620952Y-95871380D01*
X142620952Y-95871380D02*
X142525714Y-95823761D01*
X142525714Y-95823761D02*
X142478095Y-95776142D01*
X142478095Y-95776142D02*
X142430476Y-95680904D01*
X142430476Y-95680904D02*
X142430476Y-94871380D01*
X141811428Y-95299952D02*
X141906666Y-95252333D01*
X141906666Y-95252333D02*
X141954285Y-95204714D01*
X141954285Y-95204714D02*
X142001904Y-95109476D01*
X142001904Y-95109476D02*
X142001904Y-95061857D01*
X142001904Y-95061857D02*
X141954285Y-94966619D01*
X141954285Y-94966619D02*
X141906666Y-94919000D01*
X141906666Y-94919000D02*
X141811428Y-94871380D01*
X141811428Y-94871380D02*
X141620952Y-94871380D01*
X141620952Y-94871380D02*
X141525714Y-94919000D01*
X141525714Y-94919000D02*
X141478095Y-94966619D01*
X141478095Y-94966619D02*
X141430476Y-95061857D01*
X141430476Y-95061857D02*
X141430476Y-95109476D01*
X141430476Y-95109476D02*
X141478095Y-95204714D01*
X141478095Y-95204714D02*
X141525714Y-95252333D01*
X141525714Y-95252333D02*
X141620952Y-95299952D01*
X141620952Y-95299952D02*
X141811428Y-95299952D01*
X141811428Y-95299952D02*
X141906666Y-95347571D01*
X141906666Y-95347571D02*
X141954285Y-95395190D01*
X141954285Y-95395190D02*
X142001904Y-95490428D01*
X142001904Y-95490428D02*
X142001904Y-95680904D01*
X142001904Y-95680904D02*
X141954285Y-95776142D01*
X141954285Y-95776142D02*
X141906666Y-95823761D01*
X141906666Y-95823761D02*
X141811428Y-95871380D01*
X141811428Y-95871380D02*
X141620952Y-95871380D01*
X141620952Y-95871380D02*
X141525714Y-95823761D01*
X141525714Y-95823761D02*
X141478095Y-95776142D01*
X141478095Y-95776142D02*
X141430476Y-95680904D01*
X141430476Y-95680904D02*
X141430476Y-95490428D01*
X141430476Y-95490428D02*
X141478095Y-95395190D01*
X141478095Y-95395190D02*
X141525714Y-95347571D01*
X141525714Y-95347571D02*
X141620952Y-95299952D01*
%TO.C,U7*%
X143001904Y-79631380D02*
X143001904Y-80440904D01*
X143001904Y-80440904D02*
X142954285Y-80536142D01*
X142954285Y-80536142D02*
X142906666Y-80583761D01*
X142906666Y-80583761D02*
X142811428Y-80631380D01*
X142811428Y-80631380D02*
X142620952Y-80631380D01*
X142620952Y-80631380D02*
X142525714Y-80583761D01*
X142525714Y-80583761D02*
X142478095Y-80536142D01*
X142478095Y-80536142D02*
X142430476Y-80440904D01*
X142430476Y-80440904D02*
X142430476Y-79631380D01*
X142049523Y-79631380D02*
X141382857Y-79631380D01*
X141382857Y-79631380D02*
X141811428Y-80631380D01*
%TO.C,R42*%
X158122857Y-116827380D02*
X158456190Y-116351190D01*
X158694285Y-116827380D02*
X158694285Y-115827380D01*
X158694285Y-115827380D02*
X158313333Y-115827380D01*
X158313333Y-115827380D02*
X158218095Y-115875000D01*
X158218095Y-115875000D02*
X158170476Y-115922619D01*
X158170476Y-115922619D02*
X158122857Y-116017857D01*
X158122857Y-116017857D02*
X158122857Y-116160714D01*
X158122857Y-116160714D02*
X158170476Y-116255952D01*
X158170476Y-116255952D02*
X158218095Y-116303571D01*
X158218095Y-116303571D02*
X158313333Y-116351190D01*
X158313333Y-116351190D02*
X158694285Y-116351190D01*
X157265714Y-116160714D02*
X157265714Y-116827380D01*
X157503809Y-115779761D02*
X157741904Y-116494047D01*
X157741904Y-116494047D02*
X157122857Y-116494047D01*
X156789523Y-115922619D02*
X156741904Y-115875000D01*
X156741904Y-115875000D02*
X156646666Y-115827380D01*
X156646666Y-115827380D02*
X156408571Y-115827380D01*
X156408571Y-115827380D02*
X156313333Y-115875000D01*
X156313333Y-115875000D02*
X156265714Y-115922619D01*
X156265714Y-115922619D02*
X156218095Y-116017857D01*
X156218095Y-116017857D02*
X156218095Y-116113095D01*
X156218095Y-116113095D02*
X156265714Y-116255952D01*
X156265714Y-116255952D02*
X156837142Y-116827380D01*
X156837142Y-116827380D02*
X156218095Y-116827380D01*
%TO.C,R41*%
X158122857Y-114287380D02*
X158456190Y-113811190D01*
X158694285Y-114287380D02*
X158694285Y-113287380D01*
X158694285Y-113287380D02*
X158313333Y-113287380D01*
X158313333Y-113287380D02*
X158218095Y-113335000D01*
X158218095Y-113335000D02*
X158170476Y-113382619D01*
X158170476Y-113382619D02*
X158122857Y-113477857D01*
X158122857Y-113477857D02*
X158122857Y-113620714D01*
X158122857Y-113620714D02*
X158170476Y-113715952D01*
X158170476Y-113715952D02*
X158218095Y-113763571D01*
X158218095Y-113763571D02*
X158313333Y-113811190D01*
X158313333Y-113811190D02*
X158694285Y-113811190D01*
X157265714Y-113620714D02*
X157265714Y-114287380D01*
X157503809Y-113239761D02*
X157741904Y-113954047D01*
X157741904Y-113954047D02*
X157122857Y-113954047D01*
X156218095Y-114287380D02*
X156789523Y-114287380D01*
X156503809Y-114287380D02*
X156503809Y-113287380D01*
X156503809Y-113287380D02*
X156599047Y-113430238D01*
X156599047Y-113430238D02*
X156694285Y-113525476D01*
X156694285Y-113525476D02*
X156789523Y-113573095D01*
%TO.C,R40*%
X158122857Y-101587380D02*
X158456190Y-101111190D01*
X158694285Y-101587380D02*
X158694285Y-100587380D01*
X158694285Y-100587380D02*
X158313333Y-100587380D01*
X158313333Y-100587380D02*
X158218095Y-100635000D01*
X158218095Y-100635000D02*
X158170476Y-100682619D01*
X158170476Y-100682619D02*
X158122857Y-100777857D01*
X158122857Y-100777857D02*
X158122857Y-100920714D01*
X158122857Y-100920714D02*
X158170476Y-101015952D01*
X158170476Y-101015952D02*
X158218095Y-101063571D01*
X158218095Y-101063571D02*
X158313333Y-101111190D01*
X158313333Y-101111190D02*
X158694285Y-101111190D01*
X157265714Y-100920714D02*
X157265714Y-101587380D01*
X157503809Y-100539761D02*
X157741904Y-101254047D01*
X157741904Y-101254047D02*
X157122857Y-101254047D01*
X156551428Y-100587380D02*
X156456190Y-100587380D01*
X156456190Y-100587380D02*
X156360952Y-100635000D01*
X156360952Y-100635000D02*
X156313333Y-100682619D01*
X156313333Y-100682619D02*
X156265714Y-100777857D01*
X156265714Y-100777857D02*
X156218095Y-100968333D01*
X156218095Y-100968333D02*
X156218095Y-101206428D01*
X156218095Y-101206428D02*
X156265714Y-101396904D01*
X156265714Y-101396904D02*
X156313333Y-101492142D01*
X156313333Y-101492142D02*
X156360952Y-101539761D01*
X156360952Y-101539761D02*
X156456190Y-101587380D01*
X156456190Y-101587380D02*
X156551428Y-101587380D01*
X156551428Y-101587380D02*
X156646666Y-101539761D01*
X156646666Y-101539761D02*
X156694285Y-101492142D01*
X156694285Y-101492142D02*
X156741904Y-101396904D01*
X156741904Y-101396904D02*
X156789523Y-101206428D01*
X156789523Y-101206428D02*
X156789523Y-100968333D01*
X156789523Y-100968333D02*
X156741904Y-100777857D01*
X156741904Y-100777857D02*
X156694285Y-100682619D01*
X156694285Y-100682619D02*
X156646666Y-100635000D01*
X156646666Y-100635000D02*
X156551428Y-100587380D01*
%TO.C,R39*%
X158122857Y-99047380D02*
X158456190Y-98571190D01*
X158694285Y-99047380D02*
X158694285Y-98047380D01*
X158694285Y-98047380D02*
X158313333Y-98047380D01*
X158313333Y-98047380D02*
X158218095Y-98095000D01*
X158218095Y-98095000D02*
X158170476Y-98142619D01*
X158170476Y-98142619D02*
X158122857Y-98237857D01*
X158122857Y-98237857D02*
X158122857Y-98380714D01*
X158122857Y-98380714D02*
X158170476Y-98475952D01*
X158170476Y-98475952D02*
X158218095Y-98523571D01*
X158218095Y-98523571D02*
X158313333Y-98571190D01*
X158313333Y-98571190D02*
X158694285Y-98571190D01*
X157789523Y-98047380D02*
X157170476Y-98047380D01*
X157170476Y-98047380D02*
X157503809Y-98428333D01*
X157503809Y-98428333D02*
X157360952Y-98428333D01*
X157360952Y-98428333D02*
X157265714Y-98475952D01*
X157265714Y-98475952D02*
X157218095Y-98523571D01*
X157218095Y-98523571D02*
X157170476Y-98618809D01*
X157170476Y-98618809D02*
X157170476Y-98856904D01*
X157170476Y-98856904D02*
X157218095Y-98952142D01*
X157218095Y-98952142D02*
X157265714Y-98999761D01*
X157265714Y-98999761D02*
X157360952Y-99047380D01*
X157360952Y-99047380D02*
X157646666Y-99047380D01*
X157646666Y-99047380D02*
X157741904Y-98999761D01*
X157741904Y-98999761D02*
X157789523Y-98952142D01*
X156694285Y-99047380D02*
X156503809Y-99047380D01*
X156503809Y-99047380D02*
X156408571Y-98999761D01*
X156408571Y-98999761D02*
X156360952Y-98952142D01*
X156360952Y-98952142D02*
X156265714Y-98809285D01*
X156265714Y-98809285D02*
X156218095Y-98618809D01*
X156218095Y-98618809D02*
X156218095Y-98237857D01*
X156218095Y-98237857D02*
X156265714Y-98142619D01*
X156265714Y-98142619D02*
X156313333Y-98095000D01*
X156313333Y-98095000D02*
X156408571Y-98047380D01*
X156408571Y-98047380D02*
X156599047Y-98047380D01*
X156599047Y-98047380D02*
X156694285Y-98095000D01*
X156694285Y-98095000D02*
X156741904Y-98142619D01*
X156741904Y-98142619D02*
X156789523Y-98237857D01*
X156789523Y-98237857D02*
X156789523Y-98475952D01*
X156789523Y-98475952D02*
X156741904Y-98571190D01*
X156741904Y-98571190D02*
X156694285Y-98618809D01*
X156694285Y-98618809D02*
X156599047Y-98666428D01*
X156599047Y-98666428D02*
X156408571Y-98666428D01*
X156408571Y-98666428D02*
X156313333Y-98618809D01*
X156313333Y-98618809D02*
X156265714Y-98571190D01*
X156265714Y-98571190D02*
X156218095Y-98475952D01*
%TO.C,R38*%
X158122857Y-86347380D02*
X158456190Y-85871190D01*
X158694285Y-86347380D02*
X158694285Y-85347380D01*
X158694285Y-85347380D02*
X158313333Y-85347380D01*
X158313333Y-85347380D02*
X158218095Y-85395000D01*
X158218095Y-85395000D02*
X158170476Y-85442619D01*
X158170476Y-85442619D02*
X158122857Y-85537857D01*
X158122857Y-85537857D02*
X158122857Y-85680714D01*
X158122857Y-85680714D02*
X158170476Y-85775952D01*
X158170476Y-85775952D02*
X158218095Y-85823571D01*
X158218095Y-85823571D02*
X158313333Y-85871190D01*
X158313333Y-85871190D02*
X158694285Y-85871190D01*
X157789523Y-85347380D02*
X157170476Y-85347380D01*
X157170476Y-85347380D02*
X157503809Y-85728333D01*
X157503809Y-85728333D02*
X157360952Y-85728333D01*
X157360952Y-85728333D02*
X157265714Y-85775952D01*
X157265714Y-85775952D02*
X157218095Y-85823571D01*
X157218095Y-85823571D02*
X157170476Y-85918809D01*
X157170476Y-85918809D02*
X157170476Y-86156904D01*
X157170476Y-86156904D02*
X157218095Y-86252142D01*
X157218095Y-86252142D02*
X157265714Y-86299761D01*
X157265714Y-86299761D02*
X157360952Y-86347380D01*
X157360952Y-86347380D02*
X157646666Y-86347380D01*
X157646666Y-86347380D02*
X157741904Y-86299761D01*
X157741904Y-86299761D02*
X157789523Y-86252142D01*
X156599047Y-85775952D02*
X156694285Y-85728333D01*
X156694285Y-85728333D02*
X156741904Y-85680714D01*
X156741904Y-85680714D02*
X156789523Y-85585476D01*
X156789523Y-85585476D02*
X156789523Y-85537857D01*
X156789523Y-85537857D02*
X156741904Y-85442619D01*
X156741904Y-85442619D02*
X156694285Y-85395000D01*
X156694285Y-85395000D02*
X156599047Y-85347380D01*
X156599047Y-85347380D02*
X156408571Y-85347380D01*
X156408571Y-85347380D02*
X156313333Y-85395000D01*
X156313333Y-85395000D02*
X156265714Y-85442619D01*
X156265714Y-85442619D02*
X156218095Y-85537857D01*
X156218095Y-85537857D02*
X156218095Y-85585476D01*
X156218095Y-85585476D02*
X156265714Y-85680714D01*
X156265714Y-85680714D02*
X156313333Y-85728333D01*
X156313333Y-85728333D02*
X156408571Y-85775952D01*
X156408571Y-85775952D02*
X156599047Y-85775952D01*
X156599047Y-85775952D02*
X156694285Y-85823571D01*
X156694285Y-85823571D02*
X156741904Y-85871190D01*
X156741904Y-85871190D02*
X156789523Y-85966428D01*
X156789523Y-85966428D02*
X156789523Y-86156904D01*
X156789523Y-86156904D02*
X156741904Y-86252142D01*
X156741904Y-86252142D02*
X156694285Y-86299761D01*
X156694285Y-86299761D02*
X156599047Y-86347380D01*
X156599047Y-86347380D02*
X156408571Y-86347380D01*
X156408571Y-86347380D02*
X156313333Y-86299761D01*
X156313333Y-86299761D02*
X156265714Y-86252142D01*
X156265714Y-86252142D02*
X156218095Y-86156904D01*
X156218095Y-86156904D02*
X156218095Y-85966428D01*
X156218095Y-85966428D02*
X156265714Y-85871190D01*
X156265714Y-85871190D02*
X156313333Y-85823571D01*
X156313333Y-85823571D02*
X156408571Y-85775952D01*
%TO.C,R37*%
X158122857Y-83807380D02*
X158456190Y-83331190D01*
X158694285Y-83807380D02*
X158694285Y-82807380D01*
X158694285Y-82807380D02*
X158313333Y-82807380D01*
X158313333Y-82807380D02*
X158218095Y-82855000D01*
X158218095Y-82855000D02*
X158170476Y-82902619D01*
X158170476Y-82902619D02*
X158122857Y-82997857D01*
X158122857Y-82997857D02*
X158122857Y-83140714D01*
X158122857Y-83140714D02*
X158170476Y-83235952D01*
X158170476Y-83235952D02*
X158218095Y-83283571D01*
X158218095Y-83283571D02*
X158313333Y-83331190D01*
X158313333Y-83331190D02*
X158694285Y-83331190D01*
X157789523Y-82807380D02*
X157170476Y-82807380D01*
X157170476Y-82807380D02*
X157503809Y-83188333D01*
X157503809Y-83188333D02*
X157360952Y-83188333D01*
X157360952Y-83188333D02*
X157265714Y-83235952D01*
X157265714Y-83235952D02*
X157218095Y-83283571D01*
X157218095Y-83283571D02*
X157170476Y-83378809D01*
X157170476Y-83378809D02*
X157170476Y-83616904D01*
X157170476Y-83616904D02*
X157218095Y-83712142D01*
X157218095Y-83712142D02*
X157265714Y-83759761D01*
X157265714Y-83759761D02*
X157360952Y-83807380D01*
X157360952Y-83807380D02*
X157646666Y-83807380D01*
X157646666Y-83807380D02*
X157741904Y-83759761D01*
X157741904Y-83759761D02*
X157789523Y-83712142D01*
X156837142Y-82807380D02*
X156170476Y-82807380D01*
X156170476Y-82807380D02*
X156599047Y-83807380D01*
%TO.C,R36*%
X234830857Y-97141380D02*
X235164190Y-96665190D01*
X235402285Y-97141380D02*
X235402285Y-96141380D01*
X235402285Y-96141380D02*
X235021333Y-96141380D01*
X235021333Y-96141380D02*
X234926095Y-96189000D01*
X234926095Y-96189000D02*
X234878476Y-96236619D01*
X234878476Y-96236619D02*
X234830857Y-96331857D01*
X234830857Y-96331857D02*
X234830857Y-96474714D01*
X234830857Y-96474714D02*
X234878476Y-96569952D01*
X234878476Y-96569952D02*
X234926095Y-96617571D01*
X234926095Y-96617571D02*
X235021333Y-96665190D01*
X235021333Y-96665190D02*
X235402285Y-96665190D01*
X234497523Y-96141380D02*
X233878476Y-96141380D01*
X233878476Y-96141380D02*
X234211809Y-96522333D01*
X234211809Y-96522333D02*
X234068952Y-96522333D01*
X234068952Y-96522333D02*
X233973714Y-96569952D01*
X233973714Y-96569952D02*
X233926095Y-96617571D01*
X233926095Y-96617571D02*
X233878476Y-96712809D01*
X233878476Y-96712809D02*
X233878476Y-96950904D01*
X233878476Y-96950904D02*
X233926095Y-97046142D01*
X233926095Y-97046142D02*
X233973714Y-97093761D01*
X233973714Y-97093761D02*
X234068952Y-97141380D01*
X234068952Y-97141380D02*
X234354666Y-97141380D01*
X234354666Y-97141380D02*
X234449904Y-97093761D01*
X234449904Y-97093761D02*
X234497523Y-97046142D01*
X233021333Y-96141380D02*
X233211809Y-96141380D01*
X233211809Y-96141380D02*
X233307047Y-96189000D01*
X233307047Y-96189000D02*
X233354666Y-96236619D01*
X233354666Y-96236619D02*
X233449904Y-96379476D01*
X233449904Y-96379476D02*
X233497523Y-96569952D01*
X233497523Y-96569952D02*
X233497523Y-96950904D01*
X233497523Y-96950904D02*
X233449904Y-97046142D01*
X233449904Y-97046142D02*
X233402285Y-97093761D01*
X233402285Y-97093761D02*
X233307047Y-97141380D01*
X233307047Y-97141380D02*
X233116571Y-97141380D01*
X233116571Y-97141380D02*
X233021333Y-97093761D01*
X233021333Y-97093761D02*
X232973714Y-97046142D01*
X232973714Y-97046142D02*
X232926095Y-96950904D01*
X232926095Y-96950904D02*
X232926095Y-96712809D01*
X232926095Y-96712809D02*
X232973714Y-96617571D01*
X232973714Y-96617571D02*
X233021333Y-96569952D01*
X233021333Y-96569952D02*
X233116571Y-96522333D01*
X233116571Y-96522333D02*
X233307047Y-96522333D01*
X233307047Y-96522333D02*
X233402285Y-96569952D01*
X233402285Y-96569952D02*
X233449904Y-96617571D01*
X233449904Y-96617571D02*
X233497523Y-96712809D01*
%TO.C,R35*%
X209430857Y-97141380D02*
X209764190Y-96665190D01*
X210002285Y-97141380D02*
X210002285Y-96141380D01*
X210002285Y-96141380D02*
X209621333Y-96141380D01*
X209621333Y-96141380D02*
X209526095Y-96189000D01*
X209526095Y-96189000D02*
X209478476Y-96236619D01*
X209478476Y-96236619D02*
X209430857Y-96331857D01*
X209430857Y-96331857D02*
X209430857Y-96474714D01*
X209430857Y-96474714D02*
X209478476Y-96569952D01*
X209478476Y-96569952D02*
X209526095Y-96617571D01*
X209526095Y-96617571D02*
X209621333Y-96665190D01*
X209621333Y-96665190D02*
X210002285Y-96665190D01*
X209097523Y-96141380D02*
X208478476Y-96141380D01*
X208478476Y-96141380D02*
X208811809Y-96522333D01*
X208811809Y-96522333D02*
X208668952Y-96522333D01*
X208668952Y-96522333D02*
X208573714Y-96569952D01*
X208573714Y-96569952D02*
X208526095Y-96617571D01*
X208526095Y-96617571D02*
X208478476Y-96712809D01*
X208478476Y-96712809D02*
X208478476Y-96950904D01*
X208478476Y-96950904D02*
X208526095Y-97046142D01*
X208526095Y-97046142D02*
X208573714Y-97093761D01*
X208573714Y-97093761D02*
X208668952Y-97141380D01*
X208668952Y-97141380D02*
X208954666Y-97141380D01*
X208954666Y-97141380D02*
X209049904Y-97093761D01*
X209049904Y-97093761D02*
X209097523Y-97046142D01*
X207573714Y-96141380D02*
X208049904Y-96141380D01*
X208049904Y-96141380D02*
X208097523Y-96617571D01*
X208097523Y-96617571D02*
X208049904Y-96569952D01*
X208049904Y-96569952D02*
X207954666Y-96522333D01*
X207954666Y-96522333D02*
X207716571Y-96522333D01*
X207716571Y-96522333D02*
X207621333Y-96569952D01*
X207621333Y-96569952D02*
X207573714Y-96617571D01*
X207573714Y-96617571D02*
X207526095Y-96712809D01*
X207526095Y-96712809D02*
X207526095Y-96950904D01*
X207526095Y-96950904D02*
X207573714Y-97046142D01*
X207573714Y-97046142D02*
X207621333Y-97093761D01*
X207621333Y-97093761D02*
X207716571Y-97141380D01*
X207716571Y-97141380D02*
X207954666Y-97141380D01*
X207954666Y-97141380D02*
X208049904Y-97093761D01*
X208049904Y-97093761D02*
X208097523Y-97046142D01*
%TO.C,R34*%
X184030857Y-97395380D02*
X184364190Y-96919190D01*
X184602285Y-97395380D02*
X184602285Y-96395380D01*
X184602285Y-96395380D02*
X184221333Y-96395380D01*
X184221333Y-96395380D02*
X184126095Y-96443000D01*
X184126095Y-96443000D02*
X184078476Y-96490619D01*
X184078476Y-96490619D02*
X184030857Y-96585857D01*
X184030857Y-96585857D02*
X184030857Y-96728714D01*
X184030857Y-96728714D02*
X184078476Y-96823952D01*
X184078476Y-96823952D02*
X184126095Y-96871571D01*
X184126095Y-96871571D02*
X184221333Y-96919190D01*
X184221333Y-96919190D02*
X184602285Y-96919190D01*
X183697523Y-96395380D02*
X183078476Y-96395380D01*
X183078476Y-96395380D02*
X183411809Y-96776333D01*
X183411809Y-96776333D02*
X183268952Y-96776333D01*
X183268952Y-96776333D02*
X183173714Y-96823952D01*
X183173714Y-96823952D02*
X183126095Y-96871571D01*
X183126095Y-96871571D02*
X183078476Y-96966809D01*
X183078476Y-96966809D02*
X183078476Y-97204904D01*
X183078476Y-97204904D02*
X183126095Y-97300142D01*
X183126095Y-97300142D02*
X183173714Y-97347761D01*
X183173714Y-97347761D02*
X183268952Y-97395380D01*
X183268952Y-97395380D02*
X183554666Y-97395380D01*
X183554666Y-97395380D02*
X183649904Y-97347761D01*
X183649904Y-97347761D02*
X183697523Y-97300142D01*
X182221333Y-96728714D02*
X182221333Y-97395380D01*
X182459428Y-96347761D02*
X182697523Y-97062047D01*
X182697523Y-97062047D02*
X182078476Y-97062047D01*
%TO.C,C39*%
X131772142Y-116197142D02*
X131819761Y-116149523D01*
X131819761Y-116149523D02*
X131867380Y-116006666D01*
X131867380Y-116006666D02*
X131867380Y-115911428D01*
X131867380Y-115911428D02*
X131819761Y-115768571D01*
X131819761Y-115768571D02*
X131724523Y-115673333D01*
X131724523Y-115673333D02*
X131629285Y-115625714D01*
X131629285Y-115625714D02*
X131438809Y-115578095D01*
X131438809Y-115578095D02*
X131295952Y-115578095D01*
X131295952Y-115578095D02*
X131105476Y-115625714D01*
X131105476Y-115625714D02*
X131010238Y-115673333D01*
X131010238Y-115673333D02*
X130915000Y-115768571D01*
X130915000Y-115768571D02*
X130867380Y-115911428D01*
X130867380Y-115911428D02*
X130867380Y-116006666D01*
X130867380Y-116006666D02*
X130915000Y-116149523D01*
X130915000Y-116149523D02*
X130962619Y-116197142D01*
X130867380Y-116530476D02*
X130867380Y-117149523D01*
X130867380Y-117149523D02*
X131248333Y-116816190D01*
X131248333Y-116816190D02*
X131248333Y-116959047D01*
X131248333Y-116959047D02*
X131295952Y-117054285D01*
X131295952Y-117054285D02*
X131343571Y-117101904D01*
X131343571Y-117101904D02*
X131438809Y-117149523D01*
X131438809Y-117149523D02*
X131676904Y-117149523D01*
X131676904Y-117149523D02*
X131772142Y-117101904D01*
X131772142Y-117101904D02*
X131819761Y-117054285D01*
X131819761Y-117054285D02*
X131867380Y-116959047D01*
X131867380Y-116959047D02*
X131867380Y-116673333D01*
X131867380Y-116673333D02*
X131819761Y-116578095D01*
X131819761Y-116578095D02*
X131772142Y-116530476D01*
X131867380Y-117625714D02*
X131867380Y-117816190D01*
X131867380Y-117816190D02*
X131819761Y-117911428D01*
X131819761Y-117911428D02*
X131772142Y-117959047D01*
X131772142Y-117959047D02*
X131629285Y-118054285D01*
X131629285Y-118054285D02*
X131438809Y-118101904D01*
X131438809Y-118101904D02*
X131057857Y-118101904D01*
X131057857Y-118101904D02*
X130962619Y-118054285D01*
X130962619Y-118054285D02*
X130915000Y-118006666D01*
X130915000Y-118006666D02*
X130867380Y-117911428D01*
X130867380Y-117911428D02*
X130867380Y-117720952D01*
X130867380Y-117720952D02*
X130915000Y-117625714D01*
X130915000Y-117625714D02*
X130962619Y-117578095D01*
X130962619Y-117578095D02*
X131057857Y-117530476D01*
X131057857Y-117530476D02*
X131295952Y-117530476D01*
X131295952Y-117530476D02*
X131391190Y-117578095D01*
X131391190Y-117578095D02*
X131438809Y-117625714D01*
X131438809Y-117625714D02*
X131486428Y-117720952D01*
X131486428Y-117720952D02*
X131486428Y-117911428D01*
X131486428Y-117911428D02*
X131438809Y-118006666D01*
X131438809Y-118006666D02*
X131391190Y-118054285D01*
X131391190Y-118054285D02*
X131295952Y-118101904D01*
%TO.C,C38*%
X131772142Y-100957142D02*
X131819761Y-100909523D01*
X131819761Y-100909523D02*
X131867380Y-100766666D01*
X131867380Y-100766666D02*
X131867380Y-100671428D01*
X131867380Y-100671428D02*
X131819761Y-100528571D01*
X131819761Y-100528571D02*
X131724523Y-100433333D01*
X131724523Y-100433333D02*
X131629285Y-100385714D01*
X131629285Y-100385714D02*
X131438809Y-100338095D01*
X131438809Y-100338095D02*
X131295952Y-100338095D01*
X131295952Y-100338095D02*
X131105476Y-100385714D01*
X131105476Y-100385714D02*
X131010238Y-100433333D01*
X131010238Y-100433333D02*
X130915000Y-100528571D01*
X130915000Y-100528571D02*
X130867380Y-100671428D01*
X130867380Y-100671428D02*
X130867380Y-100766666D01*
X130867380Y-100766666D02*
X130915000Y-100909523D01*
X130915000Y-100909523D02*
X130962619Y-100957142D01*
X130867380Y-101290476D02*
X130867380Y-101909523D01*
X130867380Y-101909523D02*
X131248333Y-101576190D01*
X131248333Y-101576190D02*
X131248333Y-101719047D01*
X131248333Y-101719047D02*
X131295952Y-101814285D01*
X131295952Y-101814285D02*
X131343571Y-101861904D01*
X131343571Y-101861904D02*
X131438809Y-101909523D01*
X131438809Y-101909523D02*
X131676904Y-101909523D01*
X131676904Y-101909523D02*
X131772142Y-101861904D01*
X131772142Y-101861904D02*
X131819761Y-101814285D01*
X131819761Y-101814285D02*
X131867380Y-101719047D01*
X131867380Y-101719047D02*
X131867380Y-101433333D01*
X131867380Y-101433333D02*
X131819761Y-101338095D01*
X131819761Y-101338095D02*
X131772142Y-101290476D01*
X131295952Y-102480952D02*
X131248333Y-102385714D01*
X131248333Y-102385714D02*
X131200714Y-102338095D01*
X131200714Y-102338095D02*
X131105476Y-102290476D01*
X131105476Y-102290476D02*
X131057857Y-102290476D01*
X131057857Y-102290476D02*
X130962619Y-102338095D01*
X130962619Y-102338095D02*
X130915000Y-102385714D01*
X130915000Y-102385714D02*
X130867380Y-102480952D01*
X130867380Y-102480952D02*
X130867380Y-102671428D01*
X130867380Y-102671428D02*
X130915000Y-102766666D01*
X130915000Y-102766666D02*
X130962619Y-102814285D01*
X130962619Y-102814285D02*
X131057857Y-102861904D01*
X131057857Y-102861904D02*
X131105476Y-102861904D01*
X131105476Y-102861904D02*
X131200714Y-102814285D01*
X131200714Y-102814285D02*
X131248333Y-102766666D01*
X131248333Y-102766666D02*
X131295952Y-102671428D01*
X131295952Y-102671428D02*
X131295952Y-102480952D01*
X131295952Y-102480952D02*
X131343571Y-102385714D01*
X131343571Y-102385714D02*
X131391190Y-102338095D01*
X131391190Y-102338095D02*
X131486428Y-102290476D01*
X131486428Y-102290476D02*
X131676904Y-102290476D01*
X131676904Y-102290476D02*
X131772142Y-102338095D01*
X131772142Y-102338095D02*
X131819761Y-102385714D01*
X131819761Y-102385714D02*
X131867380Y-102480952D01*
X131867380Y-102480952D02*
X131867380Y-102671428D01*
X131867380Y-102671428D02*
X131819761Y-102766666D01*
X131819761Y-102766666D02*
X131772142Y-102814285D01*
X131772142Y-102814285D02*
X131676904Y-102861904D01*
X131676904Y-102861904D02*
X131486428Y-102861904D01*
X131486428Y-102861904D02*
X131391190Y-102814285D01*
X131391190Y-102814285D02*
X131343571Y-102766666D01*
X131343571Y-102766666D02*
X131295952Y-102671428D01*
%TO.C,C37*%
X131772142Y-85717142D02*
X131819761Y-85669523D01*
X131819761Y-85669523D02*
X131867380Y-85526666D01*
X131867380Y-85526666D02*
X131867380Y-85431428D01*
X131867380Y-85431428D02*
X131819761Y-85288571D01*
X131819761Y-85288571D02*
X131724523Y-85193333D01*
X131724523Y-85193333D02*
X131629285Y-85145714D01*
X131629285Y-85145714D02*
X131438809Y-85098095D01*
X131438809Y-85098095D02*
X131295952Y-85098095D01*
X131295952Y-85098095D02*
X131105476Y-85145714D01*
X131105476Y-85145714D02*
X131010238Y-85193333D01*
X131010238Y-85193333D02*
X130915000Y-85288571D01*
X130915000Y-85288571D02*
X130867380Y-85431428D01*
X130867380Y-85431428D02*
X130867380Y-85526666D01*
X130867380Y-85526666D02*
X130915000Y-85669523D01*
X130915000Y-85669523D02*
X130962619Y-85717142D01*
X130867380Y-86050476D02*
X130867380Y-86669523D01*
X130867380Y-86669523D02*
X131248333Y-86336190D01*
X131248333Y-86336190D02*
X131248333Y-86479047D01*
X131248333Y-86479047D02*
X131295952Y-86574285D01*
X131295952Y-86574285D02*
X131343571Y-86621904D01*
X131343571Y-86621904D02*
X131438809Y-86669523D01*
X131438809Y-86669523D02*
X131676904Y-86669523D01*
X131676904Y-86669523D02*
X131772142Y-86621904D01*
X131772142Y-86621904D02*
X131819761Y-86574285D01*
X131819761Y-86574285D02*
X131867380Y-86479047D01*
X131867380Y-86479047D02*
X131867380Y-86193333D01*
X131867380Y-86193333D02*
X131819761Y-86098095D01*
X131819761Y-86098095D02*
X131772142Y-86050476D01*
X130867380Y-87002857D02*
X130867380Y-87669523D01*
X130867380Y-87669523D02*
X131867380Y-87240952D01*
%TO.C,C36*%
X149552142Y-116197142D02*
X149599761Y-116149523D01*
X149599761Y-116149523D02*
X149647380Y-116006666D01*
X149647380Y-116006666D02*
X149647380Y-115911428D01*
X149647380Y-115911428D02*
X149599761Y-115768571D01*
X149599761Y-115768571D02*
X149504523Y-115673333D01*
X149504523Y-115673333D02*
X149409285Y-115625714D01*
X149409285Y-115625714D02*
X149218809Y-115578095D01*
X149218809Y-115578095D02*
X149075952Y-115578095D01*
X149075952Y-115578095D02*
X148885476Y-115625714D01*
X148885476Y-115625714D02*
X148790238Y-115673333D01*
X148790238Y-115673333D02*
X148695000Y-115768571D01*
X148695000Y-115768571D02*
X148647380Y-115911428D01*
X148647380Y-115911428D02*
X148647380Y-116006666D01*
X148647380Y-116006666D02*
X148695000Y-116149523D01*
X148695000Y-116149523D02*
X148742619Y-116197142D01*
X148647380Y-116530476D02*
X148647380Y-117149523D01*
X148647380Y-117149523D02*
X149028333Y-116816190D01*
X149028333Y-116816190D02*
X149028333Y-116959047D01*
X149028333Y-116959047D02*
X149075952Y-117054285D01*
X149075952Y-117054285D02*
X149123571Y-117101904D01*
X149123571Y-117101904D02*
X149218809Y-117149523D01*
X149218809Y-117149523D02*
X149456904Y-117149523D01*
X149456904Y-117149523D02*
X149552142Y-117101904D01*
X149552142Y-117101904D02*
X149599761Y-117054285D01*
X149599761Y-117054285D02*
X149647380Y-116959047D01*
X149647380Y-116959047D02*
X149647380Y-116673333D01*
X149647380Y-116673333D02*
X149599761Y-116578095D01*
X149599761Y-116578095D02*
X149552142Y-116530476D01*
X148647380Y-118006666D02*
X148647380Y-117816190D01*
X148647380Y-117816190D02*
X148695000Y-117720952D01*
X148695000Y-117720952D02*
X148742619Y-117673333D01*
X148742619Y-117673333D02*
X148885476Y-117578095D01*
X148885476Y-117578095D02*
X149075952Y-117530476D01*
X149075952Y-117530476D02*
X149456904Y-117530476D01*
X149456904Y-117530476D02*
X149552142Y-117578095D01*
X149552142Y-117578095D02*
X149599761Y-117625714D01*
X149599761Y-117625714D02*
X149647380Y-117720952D01*
X149647380Y-117720952D02*
X149647380Y-117911428D01*
X149647380Y-117911428D02*
X149599761Y-118006666D01*
X149599761Y-118006666D02*
X149552142Y-118054285D01*
X149552142Y-118054285D02*
X149456904Y-118101904D01*
X149456904Y-118101904D02*
X149218809Y-118101904D01*
X149218809Y-118101904D02*
X149123571Y-118054285D01*
X149123571Y-118054285D02*
X149075952Y-118006666D01*
X149075952Y-118006666D02*
X149028333Y-117911428D01*
X149028333Y-117911428D02*
X149028333Y-117720952D01*
X149028333Y-117720952D02*
X149075952Y-117625714D01*
X149075952Y-117625714D02*
X149123571Y-117578095D01*
X149123571Y-117578095D02*
X149218809Y-117530476D01*
%TO.C,C35*%
X149552142Y-100957142D02*
X149599761Y-100909523D01*
X149599761Y-100909523D02*
X149647380Y-100766666D01*
X149647380Y-100766666D02*
X149647380Y-100671428D01*
X149647380Y-100671428D02*
X149599761Y-100528571D01*
X149599761Y-100528571D02*
X149504523Y-100433333D01*
X149504523Y-100433333D02*
X149409285Y-100385714D01*
X149409285Y-100385714D02*
X149218809Y-100338095D01*
X149218809Y-100338095D02*
X149075952Y-100338095D01*
X149075952Y-100338095D02*
X148885476Y-100385714D01*
X148885476Y-100385714D02*
X148790238Y-100433333D01*
X148790238Y-100433333D02*
X148695000Y-100528571D01*
X148695000Y-100528571D02*
X148647380Y-100671428D01*
X148647380Y-100671428D02*
X148647380Y-100766666D01*
X148647380Y-100766666D02*
X148695000Y-100909523D01*
X148695000Y-100909523D02*
X148742619Y-100957142D01*
X148647380Y-101290476D02*
X148647380Y-101909523D01*
X148647380Y-101909523D02*
X149028333Y-101576190D01*
X149028333Y-101576190D02*
X149028333Y-101719047D01*
X149028333Y-101719047D02*
X149075952Y-101814285D01*
X149075952Y-101814285D02*
X149123571Y-101861904D01*
X149123571Y-101861904D02*
X149218809Y-101909523D01*
X149218809Y-101909523D02*
X149456904Y-101909523D01*
X149456904Y-101909523D02*
X149552142Y-101861904D01*
X149552142Y-101861904D02*
X149599761Y-101814285D01*
X149599761Y-101814285D02*
X149647380Y-101719047D01*
X149647380Y-101719047D02*
X149647380Y-101433333D01*
X149647380Y-101433333D02*
X149599761Y-101338095D01*
X149599761Y-101338095D02*
X149552142Y-101290476D01*
X148647380Y-102814285D02*
X148647380Y-102338095D01*
X148647380Y-102338095D02*
X149123571Y-102290476D01*
X149123571Y-102290476D02*
X149075952Y-102338095D01*
X149075952Y-102338095D02*
X149028333Y-102433333D01*
X149028333Y-102433333D02*
X149028333Y-102671428D01*
X149028333Y-102671428D02*
X149075952Y-102766666D01*
X149075952Y-102766666D02*
X149123571Y-102814285D01*
X149123571Y-102814285D02*
X149218809Y-102861904D01*
X149218809Y-102861904D02*
X149456904Y-102861904D01*
X149456904Y-102861904D02*
X149552142Y-102814285D01*
X149552142Y-102814285D02*
X149599761Y-102766666D01*
X149599761Y-102766666D02*
X149647380Y-102671428D01*
X149647380Y-102671428D02*
X149647380Y-102433333D01*
X149647380Y-102433333D02*
X149599761Y-102338095D01*
X149599761Y-102338095D02*
X149552142Y-102290476D01*
%TO.C,C34*%
X149552142Y-85717142D02*
X149599761Y-85669523D01*
X149599761Y-85669523D02*
X149647380Y-85526666D01*
X149647380Y-85526666D02*
X149647380Y-85431428D01*
X149647380Y-85431428D02*
X149599761Y-85288571D01*
X149599761Y-85288571D02*
X149504523Y-85193333D01*
X149504523Y-85193333D02*
X149409285Y-85145714D01*
X149409285Y-85145714D02*
X149218809Y-85098095D01*
X149218809Y-85098095D02*
X149075952Y-85098095D01*
X149075952Y-85098095D02*
X148885476Y-85145714D01*
X148885476Y-85145714D02*
X148790238Y-85193333D01*
X148790238Y-85193333D02*
X148695000Y-85288571D01*
X148695000Y-85288571D02*
X148647380Y-85431428D01*
X148647380Y-85431428D02*
X148647380Y-85526666D01*
X148647380Y-85526666D02*
X148695000Y-85669523D01*
X148695000Y-85669523D02*
X148742619Y-85717142D01*
X148647380Y-86050476D02*
X148647380Y-86669523D01*
X148647380Y-86669523D02*
X149028333Y-86336190D01*
X149028333Y-86336190D02*
X149028333Y-86479047D01*
X149028333Y-86479047D02*
X149075952Y-86574285D01*
X149075952Y-86574285D02*
X149123571Y-86621904D01*
X149123571Y-86621904D02*
X149218809Y-86669523D01*
X149218809Y-86669523D02*
X149456904Y-86669523D01*
X149456904Y-86669523D02*
X149552142Y-86621904D01*
X149552142Y-86621904D02*
X149599761Y-86574285D01*
X149599761Y-86574285D02*
X149647380Y-86479047D01*
X149647380Y-86479047D02*
X149647380Y-86193333D01*
X149647380Y-86193333D02*
X149599761Y-86098095D01*
X149599761Y-86098095D02*
X149552142Y-86050476D01*
X148980714Y-87526666D02*
X149647380Y-87526666D01*
X148599761Y-87288571D02*
X149314047Y-87050476D01*
X149314047Y-87050476D02*
X149314047Y-87669523D01*
%TO.C,C33*%
X152516142Y-116197142D02*
X152563761Y-116149523D01*
X152563761Y-116149523D02*
X152611380Y-116006666D01*
X152611380Y-116006666D02*
X152611380Y-115911428D01*
X152611380Y-115911428D02*
X152563761Y-115768571D01*
X152563761Y-115768571D02*
X152468523Y-115673333D01*
X152468523Y-115673333D02*
X152373285Y-115625714D01*
X152373285Y-115625714D02*
X152182809Y-115578095D01*
X152182809Y-115578095D02*
X152039952Y-115578095D01*
X152039952Y-115578095D02*
X151849476Y-115625714D01*
X151849476Y-115625714D02*
X151754238Y-115673333D01*
X151754238Y-115673333D02*
X151659000Y-115768571D01*
X151659000Y-115768571D02*
X151611380Y-115911428D01*
X151611380Y-115911428D02*
X151611380Y-116006666D01*
X151611380Y-116006666D02*
X151659000Y-116149523D01*
X151659000Y-116149523D02*
X151706619Y-116197142D01*
X151611380Y-116530476D02*
X151611380Y-117149523D01*
X151611380Y-117149523D02*
X151992333Y-116816190D01*
X151992333Y-116816190D02*
X151992333Y-116959047D01*
X151992333Y-116959047D02*
X152039952Y-117054285D01*
X152039952Y-117054285D02*
X152087571Y-117101904D01*
X152087571Y-117101904D02*
X152182809Y-117149523D01*
X152182809Y-117149523D02*
X152420904Y-117149523D01*
X152420904Y-117149523D02*
X152516142Y-117101904D01*
X152516142Y-117101904D02*
X152563761Y-117054285D01*
X152563761Y-117054285D02*
X152611380Y-116959047D01*
X152611380Y-116959047D02*
X152611380Y-116673333D01*
X152611380Y-116673333D02*
X152563761Y-116578095D01*
X152563761Y-116578095D02*
X152516142Y-116530476D01*
X151611380Y-117482857D02*
X151611380Y-118101904D01*
X151611380Y-118101904D02*
X151992333Y-117768571D01*
X151992333Y-117768571D02*
X151992333Y-117911428D01*
X151992333Y-117911428D02*
X152039952Y-118006666D01*
X152039952Y-118006666D02*
X152087571Y-118054285D01*
X152087571Y-118054285D02*
X152182809Y-118101904D01*
X152182809Y-118101904D02*
X152420904Y-118101904D01*
X152420904Y-118101904D02*
X152516142Y-118054285D01*
X152516142Y-118054285D02*
X152563761Y-118006666D01*
X152563761Y-118006666D02*
X152611380Y-117911428D01*
X152611380Y-117911428D02*
X152611380Y-117625714D01*
X152611380Y-117625714D02*
X152563761Y-117530476D01*
X152563761Y-117530476D02*
X152516142Y-117482857D01*
%TO.C,C32*%
X152516142Y-100957142D02*
X152563761Y-100909523D01*
X152563761Y-100909523D02*
X152611380Y-100766666D01*
X152611380Y-100766666D02*
X152611380Y-100671428D01*
X152611380Y-100671428D02*
X152563761Y-100528571D01*
X152563761Y-100528571D02*
X152468523Y-100433333D01*
X152468523Y-100433333D02*
X152373285Y-100385714D01*
X152373285Y-100385714D02*
X152182809Y-100338095D01*
X152182809Y-100338095D02*
X152039952Y-100338095D01*
X152039952Y-100338095D02*
X151849476Y-100385714D01*
X151849476Y-100385714D02*
X151754238Y-100433333D01*
X151754238Y-100433333D02*
X151659000Y-100528571D01*
X151659000Y-100528571D02*
X151611380Y-100671428D01*
X151611380Y-100671428D02*
X151611380Y-100766666D01*
X151611380Y-100766666D02*
X151659000Y-100909523D01*
X151659000Y-100909523D02*
X151706619Y-100957142D01*
X151611380Y-101290476D02*
X151611380Y-101909523D01*
X151611380Y-101909523D02*
X151992333Y-101576190D01*
X151992333Y-101576190D02*
X151992333Y-101719047D01*
X151992333Y-101719047D02*
X152039952Y-101814285D01*
X152039952Y-101814285D02*
X152087571Y-101861904D01*
X152087571Y-101861904D02*
X152182809Y-101909523D01*
X152182809Y-101909523D02*
X152420904Y-101909523D01*
X152420904Y-101909523D02*
X152516142Y-101861904D01*
X152516142Y-101861904D02*
X152563761Y-101814285D01*
X152563761Y-101814285D02*
X152611380Y-101719047D01*
X152611380Y-101719047D02*
X152611380Y-101433333D01*
X152611380Y-101433333D02*
X152563761Y-101338095D01*
X152563761Y-101338095D02*
X152516142Y-101290476D01*
X151706619Y-102290476D02*
X151659000Y-102338095D01*
X151659000Y-102338095D02*
X151611380Y-102433333D01*
X151611380Y-102433333D02*
X151611380Y-102671428D01*
X151611380Y-102671428D02*
X151659000Y-102766666D01*
X151659000Y-102766666D02*
X151706619Y-102814285D01*
X151706619Y-102814285D02*
X151801857Y-102861904D01*
X151801857Y-102861904D02*
X151897095Y-102861904D01*
X151897095Y-102861904D02*
X152039952Y-102814285D01*
X152039952Y-102814285D02*
X152611380Y-102242857D01*
X152611380Y-102242857D02*
X152611380Y-102861904D01*
%TO.C,C31*%
X152516142Y-85717142D02*
X152563761Y-85669523D01*
X152563761Y-85669523D02*
X152611380Y-85526666D01*
X152611380Y-85526666D02*
X152611380Y-85431428D01*
X152611380Y-85431428D02*
X152563761Y-85288571D01*
X152563761Y-85288571D02*
X152468523Y-85193333D01*
X152468523Y-85193333D02*
X152373285Y-85145714D01*
X152373285Y-85145714D02*
X152182809Y-85098095D01*
X152182809Y-85098095D02*
X152039952Y-85098095D01*
X152039952Y-85098095D02*
X151849476Y-85145714D01*
X151849476Y-85145714D02*
X151754238Y-85193333D01*
X151754238Y-85193333D02*
X151659000Y-85288571D01*
X151659000Y-85288571D02*
X151611380Y-85431428D01*
X151611380Y-85431428D02*
X151611380Y-85526666D01*
X151611380Y-85526666D02*
X151659000Y-85669523D01*
X151659000Y-85669523D02*
X151706619Y-85717142D01*
X151611380Y-86050476D02*
X151611380Y-86669523D01*
X151611380Y-86669523D02*
X151992333Y-86336190D01*
X151992333Y-86336190D02*
X151992333Y-86479047D01*
X151992333Y-86479047D02*
X152039952Y-86574285D01*
X152039952Y-86574285D02*
X152087571Y-86621904D01*
X152087571Y-86621904D02*
X152182809Y-86669523D01*
X152182809Y-86669523D02*
X152420904Y-86669523D01*
X152420904Y-86669523D02*
X152516142Y-86621904D01*
X152516142Y-86621904D02*
X152563761Y-86574285D01*
X152563761Y-86574285D02*
X152611380Y-86479047D01*
X152611380Y-86479047D02*
X152611380Y-86193333D01*
X152611380Y-86193333D02*
X152563761Y-86098095D01*
X152563761Y-86098095D02*
X152516142Y-86050476D01*
X152611380Y-87621904D02*
X152611380Y-87050476D01*
X152611380Y-87336190D02*
X151611380Y-87336190D01*
X151611380Y-87336190D02*
X151754238Y-87240952D01*
X151754238Y-87240952D02*
X151849476Y-87145714D01*
X151849476Y-87145714D02*
X151897095Y-87050476D01*
D11*
%TO.C,Q6*%
X233660000Y-107220000D02*
X233660000Y-118890000D01*
X223540000Y-117490000D02*
X223540000Y-107220000D01*
%TO.C,Q5*%
X233660000Y-85928000D02*
X233660000Y-97598000D01*
X223540000Y-96198000D02*
X223540000Y-85928000D01*
%TO.C,Q4*%
X208260000Y-107220000D02*
X208260000Y-118890000D01*
X198140000Y-117490000D02*
X198140000Y-107220000D01*
%TO.C,Q3*%
X208260000Y-85928000D02*
X208260000Y-97598000D01*
X198140000Y-96198000D02*
X198140000Y-85928000D01*
%TO.C,Q2*%
X182860000Y-107220000D02*
X182860000Y-118890000D01*
X172740000Y-117490000D02*
X172740000Y-107220000D01*
%TO.C,Q1*%
X182860000Y-85928000D02*
X182860000Y-97598000D01*
X172740000Y-96198000D02*
X172740000Y-85928000D01*
%TO.C,U9*%
X145660000Y-112445000D02*
X147940000Y-112445000D01*
X142240000Y-121525000D02*
X138820000Y-121525000D01*
X142240000Y-112155000D02*
X138820000Y-112155000D01*
X145660000Y-112155000D02*
X145660000Y-112445000D01*
X138820000Y-121525000D02*
X138820000Y-121235000D01*
X145660000Y-121525000D02*
X145660000Y-121235000D01*
X138820000Y-112155000D02*
X138820000Y-112445000D01*
X142240000Y-112155000D02*
X145660000Y-112155000D01*
X142240000Y-121525000D02*
X145660000Y-121525000D01*
%TO.C,U8*%
X142240000Y-106285000D02*
X145660000Y-106285000D01*
X142240000Y-96915000D02*
X145660000Y-96915000D01*
X138820000Y-96915000D02*
X138820000Y-97205000D01*
X145660000Y-106285000D02*
X145660000Y-105995000D01*
X138820000Y-106285000D02*
X138820000Y-105995000D01*
X145660000Y-96915000D02*
X145660000Y-97205000D01*
X142240000Y-96915000D02*
X138820000Y-96915000D01*
X142240000Y-106285000D02*
X138820000Y-106285000D01*
X145660000Y-97205000D02*
X147940000Y-97205000D01*
%TO.C,U7*%
X145660000Y-81965000D02*
X147940000Y-81965000D01*
X142240000Y-91045000D02*
X138820000Y-91045000D01*
X142240000Y-81675000D02*
X138820000Y-81675000D01*
X145660000Y-81675000D02*
X145660000Y-81965000D01*
X138820000Y-91045000D02*
X138820000Y-90755000D01*
X145660000Y-91045000D02*
X145660000Y-90755000D01*
X138820000Y-81675000D02*
X138820000Y-81965000D01*
X142240000Y-81675000D02*
X145660000Y-81675000D01*
X142240000Y-91045000D02*
X145660000Y-91045000D01*
%TO.C,R42*%
X157707064Y-117375000D02*
X157252936Y-117375000D01*
X157707064Y-118845000D02*
X157252936Y-118845000D01*
%TO.C,R41*%
X157707064Y-114835000D02*
X157252936Y-114835000D01*
X157707064Y-116305000D02*
X157252936Y-116305000D01*
%TO.C,R40*%
X157707064Y-102135000D02*
X157252936Y-102135000D01*
X157707064Y-103605000D02*
X157252936Y-103605000D01*
%TO.C,R39*%
X157707064Y-99595000D02*
X157252936Y-99595000D01*
X157707064Y-101065000D02*
X157252936Y-101065000D01*
%TO.C,R38*%
X157707064Y-86895000D02*
X157252936Y-86895000D01*
X157707064Y-88365000D02*
X157252936Y-88365000D01*
%TO.C,R37*%
X157707064Y-84355000D02*
X157252936Y-84355000D01*
X157707064Y-85825000D02*
X157252936Y-85825000D01*
%TO.C,R36*%
X229108000Y-104902000D02*
X239522000Y-104902000D01*
X228854000Y-98298000D02*
X239522000Y-98298000D01*
%TO.C,R35*%
X203708000Y-104902000D02*
X214122000Y-104902000D01*
X203454000Y-98298000D02*
X214122000Y-98298000D01*
%TO.C,R34*%
X178308000Y-104902000D02*
X188722000Y-104902000D01*
X178054000Y-98298000D02*
X188722000Y-98298000D01*
%TO.C,C39*%
X132440000Y-116128748D02*
X132440000Y-117551252D01*
X134260000Y-116128748D02*
X134260000Y-117551252D01*
%TO.C,C38*%
X132440000Y-100888748D02*
X132440000Y-102311252D01*
X134260000Y-100888748D02*
X134260000Y-102311252D01*
%TO.C,C37*%
X132440000Y-85648748D02*
X132440000Y-87071252D01*
X134260000Y-85648748D02*
X134260000Y-87071252D01*
%TO.C,C36*%
X150220000Y-116128748D02*
X150220000Y-117551252D01*
X152040000Y-116128748D02*
X152040000Y-117551252D01*
%TO.C,C35*%
X150220000Y-100888748D02*
X150220000Y-102311252D01*
X152040000Y-100888748D02*
X152040000Y-102311252D01*
%TO.C,C34*%
X150220000Y-85648748D02*
X150220000Y-87071252D01*
X152040000Y-85648748D02*
X152040000Y-87071252D01*
%TO.C,C33*%
X154659000Y-116578748D02*
X154659000Y-117101252D01*
X153189000Y-116578748D02*
X153189000Y-117101252D01*
%TO.C,C32*%
X154659000Y-101338748D02*
X154659000Y-101861252D01*
X153189000Y-101338748D02*
X153189000Y-101861252D01*
%TO.C,C31*%
X154659000Y-86098748D02*
X154659000Y-86621252D01*
X153189000Y-86098748D02*
X153189000Y-86621252D01*
%TD*%
M02*
